<?xml version="1.0" encoding="UTF-8" standalone="no"?><svg xmlns="http://www.w3.org/2000/svg" xmlns:xlink="http://www.w3.org/1999/xlink" clip-rule="evenodd" stroke-miterlimit="4.00" viewBox="0 0 1024 768"><desc>SVG generated by Keynote</desc><defs></defs><g transform="matrix(1.00, 0.00, -0.00, -1.00, 0.0, 768.0)"><path d="M 0.0 768.0 L 1024.0 768.0 L 1024.0 0.0 L 0.0 0.0 Z M 0.0 768.0 " fill="#000000"></path><image xlink:href="A07E5CC00AF597983290C22FDB492EC5.png" width="914.00" height="540.00" transform="matrix(1.02, 0.00, -0.00, -1.02, 47.3, 608.1)"></image><text xml:space="preserve" font-family="SourceSansPro-It" font-style="italic" font-size="25.0" fill="#FEFFFF" transform="matrix(1.00, 0.00, -0.00, -1.00, 99.0, 633.0)">“</text><text xml:space="preserve" font-family="SourceSansPro-It" font-style="italic" font-size="25.0" fill="#FEFFFF" transform="matrix(1.00, 0.00, -0.00, -1.00, 109.2, 633.0)">I</text><text xml:space="preserve" font-family="SourceSansPro-It" font-style="italic" font-size="25.0" fill="#FEFFFF" transform="matrix(1.00, 0.00, -0.00, -1.00, 115.5, 633.0)">s</text><text xml:space="preserve" font-family="SourceSansPro-It" font-style="italic" font-size="25.0" fill="#FEFFFF" transform="matrix(1.00, 0.00, -0.00, -1.00, 125.5, 633.0)"> </text><text xml:space="preserve" font-family="SourceSansPro-It" font-style="italic" font-size="25.0" fill="#FEFFFF" transform="matrix(1.00, 0.00, -0.00, -1.00, 130.3, 633.0)">t</text><text xml:space="preserve" font-family="SourceSansPro-It" font-style="italic" font-size="25.0" fill="#FEFFFF" transform="matrix(1.00, 0.00, -0.00, -1.00, 138.4, 633.0)">h</text><text xml:space="preserve" font-family="SourceSansPro-It" font-style="italic" font-size="25.0" fill="#FEFFFF" transform="matrix(1.00, 0.00, -0.00, -1.00, 151.4, 633.0)">i</text><text xml:space="preserve" font-family="SourceSansPro-It" font-style="italic" font-size="25.0" fill="#FEFFFF" transform="matrix(1.00, 0.00, -0.00, -1.00, 157.4, 633.0)">s</text><text xml:space="preserve" font-family="SourceSansPro-It" font-style="italic" font-size="25.0" fill="#FEFFFF" transform="matrix(1.00, 0.00, -0.00, -1.00, 167.4, 633.0)"> </text><text xml:space="preserve" font-family="SourceSansPro-It" font-style="italic" font-size="25.0" fill="#FEFFFF" transform="matrix(1.00, 0.00, -0.00, -1.00, 172.2, 633.0)">s</text><text xml:space="preserve" font-family="SourceSansPro-It" font-style="italic" font-size="25.0" fill="#FEFFFF" transform="matrix(1.00, 0.00, -0.00, -1.00, 182.2, 633.0)">o</text><text xml:space="preserve" font-family="SourceSansPro-It" font-style="italic" font-size="25.0" fill="#FEFFFF" transform="matrix(1.00, 0.00, -0.00, -1.00, 195.1, 633.0)">m</text><text xml:space="preserve" font-family="SourceSansPro-It" font-style="italic" font-size="25.0" fill="#FEFFFF" transform="matrix(1.00, 0.00, -0.00, -1.00, 215.1, 633.0)">e</text><text xml:space="preserve" font-family="SourceSansPro-It" font-style="italic" font-size="25.0" fill="#FEFFFF" transform="matrix(1.00, 0.00, -0.00, -1.00, 226.7, 633.0)">t</text><text xml:space="preserve" font-family="SourceSansPro-It" font-style="italic" font-size="25.0" fill="#FEFFFF" transform="matrix(1.00, 0.00, -0.00, -1.00, 234.8, 633.0)">h</text><text xml:space="preserve" font-family="SourceSansPro-It" font-style="italic" font-size="25.0" fill="#FEFFFF" transform="matrix(1.00, 0.00, -0.00, -1.00, 247.8, 633.0)">i</text><text xml:space="preserve" font-family="SourceSansPro-It" font-style="italic" font-size="25.0" fill="#FEFFFF" transform="matrix(1.00, 0.00, -0.00, -1.00, 253.7, 633.0)">n</text><text xml:space="preserve" font-family="SourceSansPro-It" font-style="italic" font-size="25.0" fill="#FEFFFF" transform="matrix(1.00, 0.00, -0.00, -1.00, 266.9, 633.0)">g</text><text xml:space="preserve" font-family="SourceSansPro-It" font-style="italic" font-size="25.0" fill="#FEFFFF" transform="matrix(1.00, 0.00, -0.00, -1.00, 280.1, 633.0)"> </text><text xml:space="preserve" font-family="SourceSansPro-It" font-style="italic" font-size="25.0" fill="#FEFFFF" transform="matrix(1.00, 0.00, -0.00, -1.00, 284.9, 633.0)">c</text><text xml:space="preserve" font-family="SourceSansPro-It" font-style="italic" font-size="25.0" fill="#FEFFFF" transform="matrix(1.00, 0.00, -0.00, -1.00, 295.8, 633.0)">u</text><text xml:space="preserve" font-family="SourceSansPro-It" font-style="italic" font-size="25.0" fill="#FEFFFF" transform="matrix(1.00, 0.00, -0.00, -1.00, 309.0, 633.0)">s</text><text xml:space="preserve" font-family="SourceSansPro-It" font-style="italic" font-size="25.0" fill="#FEFFFF" transform="matrix(1.00, 0.00, -0.00, -1.00, 319.1, 633.0)">t</text><text xml:space="preserve" font-family="SourceSansPro-It" font-style="italic" font-size="25.0" fill="#FEFFFF" transform="matrix(1.00, 0.00, -0.00, -1.00, 326.9, 633.0)">o</text><text xml:space="preserve" font-family="SourceSansPro-It" font-style="italic" font-size="25.0" fill="#FEFFFF" transform="matrix(1.00, 0.00, -0.00, -1.00, 339.8, 633.0)">m</text><text xml:space="preserve" font-family="SourceSansPro-It" font-style="italic" font-size="25.0" fill="#FEFFFF" transform="matrix(1.00, 0.00, -0.00, -1.00, 359.8, 633.0)">e</text><text xml:space="preserve" font-family="SourceSansPro-It" font-style="italic" font-size="25.0" fill="#FEFFFF" transform="matrix(1.00, 0.00, -0.00, -1.00, 371.8, 633.0)">r</text><text xml:space="preserve" font-family="SourceSansPro-It" font-style="italic" font-size="25.0" fill="#FEFFFF" transform="matrix(1.00, 0.00, -0.00, -1.00, 380.2, 633.0)">s</text><text xml:space="preserve" font-family="SourceSansPro-It" font-style="italic" font-size="25.0" fill="#FEFFFF" transform="matrix(1.00, 0.00, -0.00, -1.00, 390.2, 633.0)"> </text><text xml:space="preserve" font-family="SourceSansPro-It" font-style="italic" font-size="25.0" fill="#FEFFFF" transform="matrix(1.00, 0.00, -0.00, -1.00, 395.0, 633.0)">a</text><text xml:space="preserve" font-family="SourceSansPro-It" font-style="italic" font-size="25.0" fill="#FEFFFF" transform="matrix(1.00, 0.00, -0.00, -1.00, 408.5, 633.0)">s</text><text xml:space="preserve" font-family="SourceSansPro-It" font-style="italic" font-size="25.0" fill="#FEFFFF" transform="matrix(1.00, 0.00, -0.00, -1.00, 418.5, 633.0)">k</text><text xml:space="preserve" font-family="SourceSansPro-It" font-style="italic" font-size="25.0" fill="#FEFFFF" transform="matrix(1.00, 0.00, -0.00, -1.00, 430.0, 633.0)">e</text><text xml:space="preserve" font-family="SourceSansPro-It" font-style="italic" font-size="25.0" fill="#FEFFFF" transform="matrix(1.00, 0.00, -0.00, -1.00, 442.0, 633.0)">d</text><text xml:space="preserve" font-family="SourceSansPro-It" font-style="italic" font-size="25.0" fill="#FEFFFF" transform="matrix(1.00, 0.00, -0.00, -1.00, 455.4, 633.0)"> </text><text xml:space="preserve" font-family="SourceSansPro-It" font-style="italic" font-size="25.0" fill="#FEFFFF" transform="matrix(1.00, 0.00, -0.00, -1.00, 460.2, 633.0)">a</text><text xml:space="preserve" font-family="SourceSansPro-It" font-style="italic" font-size="25.0" fill="#FEFFFF" transform="matrix(1.00, 0.00, -0.00, -1.00, 473.6, 633.0)">n</text><text xml:space="preserve" font-family="SourceSansPro-It" font-style="italic" font-size="25.0" fill="#FEFFFF" transform="matrix(1.00, 0.00, -0.00, -1.00, 486.7, 633.0)">d</text><text xml:space="preserve" font-family="SourceSansPro-It" font-style="italic" font-size="25.0" fill="#FEFFFF" transform="matrix(1.00, 0.00, -0.00, -1.00, 500.1, 633.0)"> </text><text xml:space="preserve" font-family="SourceSansPro-It" font-style="italic" font-size="25.0" fill="#FEFFFF" transform="matrix(1.00, 0.00, -0.00, -1.00, 504.9, 633.0)">y</text><text xml:space="preserve" font-family="SourceSansPro-It" font-style="italic" font-size="25.0" fill="#FEFFFF" transform="matrix(1.00, 0.00, -0.00, -1.00, 516.0, 633.0)">o</text><text xml:space="preserve" font-family="SourceSansPro-It" font-style="italic" font-size="25.0" fill="#FEFFFF" transform="matrix(1.00, 0.00, -0.00, -1.00, 528.9, 633.0)">u</text><text xml:space="preserve" font-family="SourceSansPro-It" font-style="italic" font-size="25.0" fill="#FEFFFF" transform="matrix(1.00, 0.00, -0.00, -1.00, 542.1, 633.0)"> </text><text xml:space="preserve" font-family="SourceSansPro-It" font-style="italic" font-size="25.0" fill="#FEFFFF" transform="matrix(1.00, 0.00, -0.00, -1.00, 546.9, 633.0)">w</text><text xml:space="preserve" font-family="SourceSansPro-It" font-style="italic" font-size="25.0" fill="#FEFFFF" transform="matrix(1.00, 0.00, -0.00, -1.00, 564.5, 633.0)">i</text><text xml:space="preserve" font-family="SourceSansPro-It" font-style="italic" font-size="25.0" fill="#FEFFFF" transform="matrix(1.00, 0.00, -0.00, -1.00, 570.5, 633.0)">s</text><text xml:space="preserve" font-family="SourceSansPro-It" font-style="italic" font-size="25.0" fill="#FEFFFF" transform="matrix(1.00, 0.00, -0.00, -1.00, 580.5, 633.0)">h</text><text xml:space="preserve" font-family="SourceSansPro-It" font-style="italic" font-size="25.0" fill="#FEFFFF" transform="matrix(1.00, 0.00, -0.00, -1.00, 593.5, 633.0)"> </text><text xml:space="preserve" font-family="SourceSansPro-It" font-style="italic" font-size="25.0" fill="#FEFFFF" transform="matrix(1.00, 0.00, -0.00, -1.00, 598.3, 633.0)">i</text><text xml:space="preserve" font-family="SourceSansPro-It" font-style="italic" font-size="25.0" fill="#FEFFFF" transform="matrix(1.00, 0.00, -0.00, -1.00, 604.2, 633.0)">t</text><text xml:space="preserve" font-family="SourceSansPro-It" font-style="italic" font-size="25.0" fill="#FEFFFF" transform="matrix(1.00, 0.00, -0.00, -1.00, 612.4, 633.0)">’</text><text xml:space="preserve" font-family="SourceSansPro-It" font-style="italic" font-size="25.0" fill="#FEFFFF" transform="matrix(1.00, 0.00, -0.00, -1.00, 617.4, 633.0)">s</text><text xml:space="preserve" font-family="SourceSansPro-It" font-style="italic" font-size="25.0" fill="#FEFFFF" transform="matrix(1.00, 0.00, -0.00, -1.00, 627.5, 633.0)"> </text><text xml:space="preserve" font-family="SourceSansPro-It" font-style="italic" font-size="25.0" fill="#FEFFFF" transform="matrix(1.00, 0.00, -0.00, -1.00, 632.2, 633.0)">d</text><text xml:space="preserve" font-family="SourceSansPro-It" font-style="italic" font-size="25.0" fill="#FEFFFF" transform="matrix(1.00, 0.00, -0.00, -1.00, 645.6, 633.0)">o</text><text xml:space="preserve" font-family="SourceSansPro-It" font-style="italic" font-size="25.0" fill="#FEFFFF" transform="matrix(1.00, 0.00, -0.00, -1.00, 658.5, 633.0)">c</text><text xml:space="preserve" font-family="SourceSansPro-It" font-style="italic" font-size="25.0" fill="#FEFFFF" transform="matrix(1.00, 0.00, -0.00, -1.00, 669.4, 633.0)">u</text><text xml:space="preserve" font-family="SourceSansPro-It" font-style="italic" font-size="25.0" fill="#FEFFFF" transform="matrix(1.00, 0.00, -0.00, -1.00, 682.6, 633.0)">m</text><text xml:space="preserve" font-family="SourceSansPro-It" font-style="italic" font-size="25.0" fill="#FEFFFF" transform="matrix(1.00, 0.00, -0.00, -1.00, 702.6, 633.0)">e</text><text xml:space="preserve" font-family="SourceSansPro-It" font-style="italic" font-size="25.0" fill="#FEFFFF" transform="matrix(1.00, 0.00, -0.00, -1.00, 714.6, 633.0)">n</text><text xml:space="preserve" font-family="SourceSansPro-It" font-style="italic" font-size="25.0" fill="#FEFFFF" transform="matrix(1.00, 0.00, -0.00, -1.00, 727.7, 633.0)">t</text><text xml:space="preserve" font-family="SourceSansPro-It" font-style="italic" font-size="25.0" fill="#FEFFFF" transform="matrix(1.00, 0.00, -0.00, -1.00, 735.6, 633.0)">e</text><text xml:space="preserve" font-family="SourceSansPro-It" font-style="italic" font-size="25.0" fill="#FEFFFF" transform="matrix(1.00, 0.00, -0.00, -1.00, 747.6, 633.0)">d</text><text xml:space="preserve" font-family="SourceSansPro-It" font-style="italic" font-size="25.0" fill="#FEFFFF" transform="matrix(1.00, 0.00, -0.00, -1.00, 761.0, 633.0)"> </text><text xml:space="preserve" font-family="SourceSansPro-It" font-style="italic" font-size="25.0" fill="#FEFFFF" transform="matrix(1.00, 0.00, -0.00, -1.00, 765.8, 633.0)">i</text><text xml:space="preserve" font-family="SourceSansPro-It" font-style="italic" font-size="25.0" fill="#FEFFFF" transform="matrix(1.00, 0.00, -0.00, -1.00, 771.7, 633.0)">n</text><text xml:space="preserve" font-family="SourceSansPro-It" font-style="italic" font-size="25.0" fill="#FEFFFF" transform="matrix(1.00, 0.00, -0.00, -1.00, 784.8, 633.0)"> </text><text xml:space="preserve" font-family="SourceSansPro-It" font-style="italic" font-size="25.0" fill="#FEFFFF" transform="matrix(1.00, 0.00, -0.00, -1.00, 789.6, 633.0)">p</text><text xml:space="preserve" font-family="SourceSansPro-It" font-style="italic" font-size="25.0" fill="#FEFFFF" transform="matrix(1.00, 0.00, -0.00, -1.00, 803.0, 633.0)">r</text><text xml:space="preserve" font-family="SourceSansPro-It" font-style="italic" font-size="25.0" fill="#FEFFFF" transform="matrix(1.00, 0.00, -0.00, -1.00, 811.3, 633.0)">o</text><text xml:space="preserve" font-family="SourceSansPro-It" font-style="italic" font-size="25.0" fill="#FEFFFF" transform="matrix(1.00, 0.00, -0.00, -1.00, 824.1, 633.0)">d</text><text xml:space="preserve" font-family="SourceSansPro-It" font-style="italic" font-size="25.0" fill="#FEFFFF" transform="matrix(1.00, 0.00, -0.00, -1.00, 837.5, 633.0)">u</text><text xml:space="preserve" font-family="SourceSansPro-It" font-style="italic" font-size="25.0" fill="#FEFFFF" transform="matrix(1.00, 0.00, -0.00, -1.00, 850.7, 633.0)">c</text><text xml:space="preserve" font-family="SourceSansPro-It" font-style="italic" font-size="25.0" fill="#FEFFFF" transform="matrix(1.00, 0.00, -0.00, -1.00, 861.6, 633.0)">t</text><text xml:space="preserve" font-family="SourceSansPro-It" font-style="italic" font-size="25.0" fill="#FEFFFF" transform="matrix(1.00, 0.00, -0.00, -1.00, 869.7, 633.0)">?</text><text xml:space="preserve" font-family="SourceSansPro-It" font-style="italic" font-size="25.0" fill="#FEFFFF" transform="matrix(1.00, 0.00, -0.00, -1.00, 879.7, 633.0)">”</text><text xml:space="preserve" font-family="SourceSansPro-Light" font-size="28.0" fill="#FEFFFF" transform="matrix(1.00, 0.00, -0.00, -1.00, 36.0, 707.0)">T</text><text xml:space="preserve" font-family="SourceSansPro-Light" font-size="28.0" fill="#FEFFFF" transform="matrix(1.00, 0.00, -0.00, -1.00, 49.1, 707.0)">r</text><text xml:space="preserve" font-family="SourceSansPro-Light" font-size="28.0" fill="#FEFFFF" transform="matrix(1.00, 0.00, -0.00, -1.00, 57.3, 707.0)">a</text><text xml:space="preserve" font-family="SourceSansPro-Light" font-size="28.0" fill="#FEFFFF" transform="matrix(1.00, 0.00, -0.00, -1.00, 71.3, 707.0)">i</text><text xml:space="preserve" font-family="SourceSansPro-Light" font-size="28.0" fill="#FEFFFF" transform="matrix(1.00, 0.00, -0.00, -1.00, 77.7, 707.0)">n</text><text xml:space="preserve" font-family="SourceSansPro-Light" font-size="28.0" fill="#FEFFFF" transform="matrix(1.00, 0.00, -0.00, -1.00, 92.6, 707.0)">e</text><text xml:space="preserve" font-family="SourceSansPro-Light" font-size="28.0" fill="#FEFFFF" transform="matrix(1.00, 0.00, -0.00, -1.00, 106.1, 707.0)">r</text><text xml:space="preserve" font-family="SourceSansPro-Light" font-size="28.0" fill="#FEFFFF" transform="matrix(1.00, 0.00, -0.00, -1.00, 115.0, 707.0)"> </text><text xml:space="preserve" font-family="SourceSansPro-Light" font-size="28.0" fill="#FEFFFF" transform="matrix(1.00, 0.00, -0.00, -1.00, 120.6, 707.0)">o</text><text xml:space="preserve" font-family="SourceSansPro-Light" font-size="28.0" fill="#FEFFFF" transform="matrix(1.00, 0.00, -0.00, -1.00, 135.6, 707.0)">n</text><text xml:space="preserve" font-family="SourceSansPro-Light" font-size="28.0" fill="#FEFFFF" transform="matrix(1.00, 0.00, -0.00, -1.00, 150.5, 707.0)">b</text><text xml:space="preserve" font-family="SourceSansPro-Light" font-size="28.0" fill="#FEFFFF" transform="matrix(1.00, 0.00, -0.00, -1.00, 165.7, 707.0)">o</text><text xml:space="preserve" font-family="SourceSansPro-Light" font-size="28.0" fill="#FEFFFF" transform="matrix(1.00, 0.00, -0.00, -1.00, 180.3, 707.0)">a</text><text xml:space="preserve" font-family="SourceSansPro-Light" font-size="28.0" fill="#FEFFFF" transform="matrix(1.00, 0.00, -0.00, -1.00, 194.2, 707.0)">r</text><text xml:space="preserve" font-family="SourceSansPro-Light" font-size="28.0" fill="#FEFFFF" transform="matrix(1.00, 0.00, -0.00, -1.00, 202.8, 707.0)">d</text><text xml:space="preserve" font-family="SourceSansPro-Light" font-size="28.0" fill="#FEFFFF" transform="matrix(1.00, 0.00, -0.00, -1.00, 218.1, 707.0)">i</text><text xml:space="preserve" font-family="SourceSansPro-Light" font-size="28.0" fill="#FEFFFF" transform="matrix(1.00, 0.00, -0.00, -1.00, 224.5, 707.0)">n</text><text xml:space="preserve" font-family="SourceSansPro-Light" font-size="28.0" fill="#FEFFFF" transform="matrix(1.00, 0.00, -0.00, -1.00, 239.4, 707.0)">g</text><text xml:space="preserve" font-family="SourceSansPro-Light" font-size="28.0" fill="#FEFFFF" transform="matrix(1.00, 0.00, -0.00, -1.00, 253.0, 707.0)"> </text><text xml:space="preserve" font-family="SourceSansPro-Light" font-size="28.0" fill="#FEFFFF" transform="matrix(1.00, 0.00, -0.00, -1.00, 258.6, 707.0)">|</text><text xml:space="preserve" font-family="SourceSansPro-Light" font-size="28.0" fill="#FEFFFF" transform="matrix(1.00, 0.00, -0.00, -1.00, 264.9, 707.0)"> </text><text xml:space="preserve" font-family="SourceSansPro-Bold" font-weight="bold" font-size="28.0" fill="#FEFFFF" transform="matrix(1.00, 0.00, -0.00, -1.00, 270.5, 707.0)">V</text><text xml:space="preserve" font-family="SourceSansPro-Bold" font-weight="bold" font-size="28.0" fill="#FEFFFF" transform="matrix(1.00, 0.00, -0.00, -1.00, 285.0, 707.0)">a</text><text xml:space="preserve" font-family="SourceSansPro-Bold" font-weight="bold" font-size="28.0" fill="#FEFFFF" transform="matrix(1.00, 0.00, -0.00, -1.00, 300.0, 707.0)">l</text><text xml:space="preserve" font-family="SourceSansPro-Bold" font-weight="bold" font-size="28.0" fill="#FEFFFF" transform="matrix(1.00, 0.00, -0.00, -1.00, 308.0, 707.0)">i</text><text xml:space="preserve" font-family="SourceSansPro-Bold" font-weight="bold" font-size="28.0" fill="#FEFFFF" transform="matrix(1.00, 0.00, -0.00, -1.00, 315.7, 707.0)">d</text><text xml:space="preserve" font-family="SourceSansPro-Bold" font-weight="bold" font-size="28.0" fill="#FEFFFF" transform="matrix(1.00, 0.00, -0.00, -1.00, 331.8, 707.0)">a</text><text xml:space="preserve" font-family="SourceSansPro-Bold" font-weight="bold" font-size="28.0" fill="#FEFFFF" transform="matrix(1.00, 0.00, -0.00, -1.00, 346.7, 707.0)">t</text><text xml:space="preserve" font-family="SourceSansPro-Bold" font-weight="bold" font-size="28.0" fill="#FEFFFF" transform="matrix(1.00, 0.00, -0.00, -1.00, 357.4, 707.0)">i</text><text xml:space="preserve" font-family="SourceSansPro-Bold" font-weight="bold" font-size="28.0" fill="#FEFFFF" transform="matrix(1.00, 0.00, -0.00, -1.00, 365.2, 707.0)">o</text><text xml:space="preserve" font-family="SourceSansPro-Bold" font-weight="bold" font-size="28.0" fill="#FEFFFF" transform="matrix(1.00, 0.00, -0.00, -1.00, 380.7, 707.0)">n</text><text xml:space="preserve" font-family="Helvetica-Light" font-size="18.0" fill="#FEFFFF" transform="matrix(1.00, 0.00, -0.00, -1.00, 501.0, 17.0)">1</text><text xml:space="preserve" font-family="Helvetica-Light" font-size="18.0" fill="#FEFFFF" transform="matrix(1.00, 0.00, -0.00, -1.00, 511.0, 17.0)">1</text></g></svg>