<?xml version="1.0" encoding="UTF-8" standalone="no"?><svg xmlns="http://www.w3.org/2000/svg" xmlns:xlink="http://www.w3.org/1999/xlink" clip-rule="evenodd" stroke-miterlimit="4.00" viewBox="0 0 1027 670"><desc>SVG generated by Keynote</desc><defs></defs><g transform="matrix(1.00, 0.00, -0.00, -1.00, 0.0, 670.0)"><g><clipPath id="clip-1050"><path d="M 1.0 670.0 L 278.0 670.0 L 278.0 274.0 L 1.0 274.0 Z M 0.6 669.8 "></path></clipPath><g clip-path="url(#clip-1050)"><g><clipPath id="clip-1051"><path d="M 0.6 274.1 L 277.6 274.1 L 277.6 669.8 L 0.6 669.8 Z M 0.6 274.1 "></path></clipPath><g clip-path="url(#clip-1051)"><image xlink:href="A17F0CD52B6C9B1CDED4275019874B2D.png" width="324.00" height="432.00" transform="matrix(1.00, 0.00, -0.00, -1.00, 1.0, 670.0)"></image></g></g></g></g><g><clipPath id="clip-1052"><path d="M 558.0 339.0 L 1027.0 339.0 L 1027.0 0.0 L 558.0 0.0 Z M 557.9 339.4 "></path></clipPath><g clip-path="url(#clip-1052)"><g><clipPath id="clip-1053"><path d="M 557.9 0.5 L 1027.0 0.5 L 1027.0 339.4 L 557.9 339.4 Z M 557.9 0.5 "></path></clipPath><g clip-path="url(#clip-1053)"><image xlink:href="19E84A9F3383EF963891668ECB0E37B3.png" width="508.00" height="381.00" transform="matrix(1.00, 0.00, -0.00, -1.00, 519.0, 339.0)"></image></g></g></g></g><g><clipPath id="clip-1054"><path d="M 657.9 458.2 L 732.9 458.2 L 732.9 596.4 L 657.9 596.4 Z M 657.9 458.2 "></path></clipPath><g clip-path="url(#clip-1054)"><image xlink:href="5BC35B3339E1BAE6D60A09EB387BBFF4.png" width="75.00" height="139.00" transform="matrix(1.00, 0.00, -0.00, -0.99, 658.0, 596.0)"></image></g></g><g><clipPath id="clip-1055"><path d="M 336.3 454.6 L 409.5 454.6 L 409.5 592.8 L 336.3 592.8 Z M 336.3 454.6 "></path></clipPath><g clip-path="url(#clip-1055)"><image xlink:href="83450C622DCB1530E56617A47C57B112.png" width="73.00" height="139.00" transform="matrix(1.00, 0.00, -0.00, -0.99, 336.0, 593.0)"></image></g></g><g><clipPath id="clip-1056"><path d="M 499.7 454.4 L 570.4 454.4 L 570.4 588.1 L 499.7 588.1 Z M 499.7 454.4 "></path></clipPath><g clip-path="url(#clip-1056)"><image xlink:href="ACD89B1553B20877E8D6C7392DE31E17.png" width="70.00" height="134.00" transform="matrix(1.00, 0.00, -0.00, -1.00, 500.0, 588.0)"></image></g></g><g><clipPath id="clip-1057"><path d="M 418.1 449.9 L 491.2 449.9 L 491.2 588.1 L 418.1 588.1 Z M 418.1 449.9 "></path></clipPath><g clip-path="url(#clip-1057)"><image xlink:href="676ACB83C8EBDE623E6CB6D74885F684.png" width="73.00" height="139.00" transform="matrix(1.00, 0.00, -0.00, -0.99, 418.0, 588.0)"></image></g></g><g><clipPath id="clip-1058"><path d="M 740.0 421.5 L 815.0 421.5 L 815.0 588.1 L 740.0 588.1 Z M 740.0 421.5 "></path></clipPath><g clip-path="url(#clip-1058)"><image xlink:href="D916356E3086327803EE3313DE83084B.png" width="75.00" height="167.00" transform="matrix(1.00, 0.00, -0.00, -1.00, 740.0, 588.0)"></image></g></g><g><clipPath id="clip-1059"><path d="M 579.0 461.4 L 652.2 461.4 L 652.2 599.4 L 579.0 599.4 Z M 579.0 461.4 "></path></clipPath><g clip-path="url(#clip-1059)"><image xlink:href="173D84CAD1290B562E7064EA19DF6FC2.png" width="73.00" height="139.00" transform="matrix(1.00, 0.00, -0.00, -0.99, 579.0, 599.0)"></image></g></g><g><clipPath id="clip-1060"><path d="M 252.9 451.1 L 334.3 451.1 L 334.3 584.7 L 252.9 584.7 Z M 252.9 451.1 "></path></clipPath><g clip-path="url(#clip-1060)"><image xlink:href="7642E895335E489BEDF0D6E5AA7B1057.png" width="81.00" height="134.00" transform="matrix(1.00, 0.00, -0.00, -1.00, 253.0, 585.0)"></image></g></g><g><clipPath id="clip-1061"><path d="M 271.2 415.5 L 822.6 415.5 L 822.6 463.5 L 271.2 463.5 Z M 271.2 415.5 "></path></clipPath><g clip-path="url(#clip-1061)"><path d="M 272.2 462.5 L 821.6 462.5 L 821.6 416.5 L 272.2 416.5 Z M 272.2 462.5 " fill="#000000"></path></g></g><g><clipPath id="clip-1062"><path d="M 277.7 586.5 L 822.6 586.5 L 822.6 608.6 L 277.7 608.6 Z M 277.7 586.5 "></path></clipPath><g clip-path="url(#clip-1062)"><path d="M 278.7 607.6 L 821.6 607.6 L 821.6 587.5 L 278.7 587.5 Z M 278.7 607.6 " fill="#000000"></path></g></g><g><clipPath id="clip-1063"><path d="M 254.6 218.0 L 443.4 218.0 L 443.4 380.5 L 254.6 380.5 Z M 254.6 218.0 "></path></clipPath><g clip-path="url(#clip-1063)"><image xlink:href="EAD61E9D7A65769AFE570B78A32BC7D1.png" width="189.00" height="162.00" transform="matrix(0.99, 0.00, -0.00, -1.00, 255.0, 380.0)"></image></g></g><g><clipPath id="clip-1064"><path d="M 451.4 218.0 L 640.5 218.0 L 640.5 380.5 L 451.4 380.5 Z M 451.4 218.0 "></path></clipPath><g clip-path="url(#clip-1064)"><image xlink:href="4B4EDC3A51275D50F602CDB1C39893F0.png" width="190.00" height="163.00" transform="matrix(0.99, 0.00, -0.00, -0.99, 451.0, 380.0)"></image></g></g><g><clipPath id="clip-1065"><path d="M 649.0 381.0 L 823.0 381.0 L 823.0 217.0 L 649.0 217.0 Z M 648.5 381.3 "></path></clipPath><g clip-path="url(#clip-1065)"><g><clipPath id="clip-1066"><path d="M 648.5 217.2 L 823.3 217.2 L 823.3 381.3 L 648.5 381.3 Z M 648.5 217.2 "></path></clipPath><g clip-path="url(#clip-1066)"><image xlink:href="751AB7237F3CC983E17321D4430D9EFF.jpeg" width="257.00" height="187.00" transform="matrix(1.00, 0.00, -0.00, -1.00, 565.0, 381.0)"></image></g></g></g></g><g><clipPath id="clip-1067"><path d="M 470.2 591.4 L 697.1 591.4 L 697.1 622.4 L 470.2 622.4 Z M 470.2 591.4 "></path></clipPath><g clip-path="url(#clip-1067)"><text xml:space="preserve" font-family="Helvetica-Light" font-size="18.0" fill="#FEFFFF" transform="matrix(1.00, 0.00, -0.00, -1.00, 475.0, 600.0)">N</text><text xml:space="preserve" font-family="Helvetica-Light" font-size="18.0" fill="#FEFFFF" transform="matrix(1.00, 0.00, -0.00, -1.00, 488.0, 600.0)">a</text><text xml:space="preserve" font-family="Helvetica-Light" font-size="18.0" fill="#FEFFFF" transform="matrix(1.00, 0.00, -0.00, -1.00, 498.0, 600.0)">v</text><text xml:space="preserve" font-family="Helvetica-Light" font-size="18.0" fill="#FEFFFF" transform="matrix(1.00, 0.00, -0.00, -1.00, 507.0, 600.0)"> </text><text xml:space="preserve" font-family="Helvetica-Light" font-size="18.0" fill="#FEFFFF" transform="matrix(1.00, 0.00, -0.00, -1.00, 512.0, 600.0)">b</text><text xml:space="preserve" font-family="Helvetica-Light" font-size="18.0" fill="#FEFFFF" transform="matrix(1.00, 0.00, -0.00, -1.00, 523.0, 600.0)">a</text><text xml:space="preserve" font-family="Helvetica-Light" font-size="18.0" fill="#FEFFFF" transform="matrix(1.00, 0.00, -0.00, -1.00, 533.0, 600.0)">r</text><text xml:space="preserve" font-family="Helvetica-Light" font-size="18.0" fill="#FEFFFF" transform="matrix(1.00, 0.00, -0.00, -1.00, 539.0, 600.0)"> </text><text xml:space="preserve" font-family="Helvetica-Light" font-size="18.0" fill="#FEFFFF" transform="matrix(1.00, 0.00, -0.00, -1.00, 544.0, 600.0)">i</text><text xml:space="preserve" font-family="Helvetica-Light" font-size="18.0" fill="#FEFFFF" transform="matrix(1.00, 0.00, -0.00, -1.00, 548.0, 600.0)">t</text><text xml:space="preserve" font-family="Helvetica-Light" font-size="18.0" fill="#FEFFFF" transform="matrix(1.00, 0.00, -0.00, -1.00, 553.0, 600.0)">e</text><text xml:space="preserve" font-family="Helvetica-Light" font-size="18.0" fill="#FEFFFF" transform="matrix(1.00, 0.00, -0.00, -1.00, 563.0, 600.0)">r</text><text xml:space="preserve" font-family="Helvetica-Light" font-size="18.0" fill="#FEFFFF" transform="matrix(1.00, 0.00, -0.00, -1.00, 569.0, 600.0)">a</text><text xml:space="preserve" font-family="Helvetica-Light" font-size="18.0" fill="#FEFFFF" transform="matrix(1.00, 0.00, -0.00, -1.00, 579.0, 600.0)">t</text><text xml:space="preserve" font-family="Helvetica-Light" font-size="18.0" fill="#FEFFFF" transform="matrix(1.00, 0.00, -0.00, -1.00, 584.0, 600.0)">i</text><text xml:space="preserve" font-family="Helvetica-Light" font-size="18.0" fill="#FEFFFF" transform="matrix(1.00, 0.00, -0.00, -1.00, 588.0, 600.0)">o</text><text xml:space="preserve" font-family="Helvetica-Light" font-size="18.0" fill="#FEFFFF" transform="matrix(1.00, 0.00, -0.00, -1.00, 598.0, 600.0)">n</text></g></g><g><clipPath id="clip-1068"><path d="M 481.4 389.4 L 596.4 389.4 L 596.4 420.4 L 481.4 420.4 Z M 481.4 389.4 "></path></clipPath><g clip-path="url(#clip-1068)"><text xml:space="preserve" font-family="Helvetica-Light" font-size="18.0" fill="#FEFFFF" transform="matrix(1.00, 0.00, -0.00, -1.00, 486.0, 398.0)">M</text><text xml:space="preserve" font-family="Helvetica-Light" font-size="18.0" fill="#FEFFFF" transform="matrix(1.00, 0.00, -0.00, -1.00, 501.0, 398.0)">a</text><text xml:space="preserve" font-family="Helvetica-Light" font-size="18.0" fill="#FEFFFF" transform="matrix(1.00, 0.00, -0.00, -1.00, 511.0, 398.0)">p</text><text xml:space="preserve" font-family="Helvetica-Light" font-size="18.0" fill="#FEFFFF" transform="matrix(1.00, 0.00, -0.00, -1.00, 522.0, 398.0)"> </text><text xml:space="preserve" font-family="Helvetica-Light" font-size="18.0" fill="#FEFFFF" transform="matrix(1.00, 0.00, -0.00, -1.00, 527.0, 398.0)">i</text><text xml:space="preserve" font-family="Helvetica-Light" font-size="18.0" fill="#FEFFFF" transform="matrix(1.00, 0.00, -0.00, -1.00, 531.0, 398.0)">t</text><text xml:space="preserve" font-family="Helvetica-Light" font-size="18.0" fill="#FEFFFF" transform="matrix(1.00, 0.00, -0.00, -1.00, 536.0, 398.0)">e</text><text xml:space="preserve" font-family="Helvetica-Light" font-size="18.0" fill="#FEFFFF" transform="matrix(1.00, 0.00, -0.00, -1.00, 546.0, 398.0)">r</text><text xml:space="preserve" font-family="Helvetica-Light" font-size="18.0" fill="#FEFFFF" transform="matrix(1.00, 0.00, -0.00, -1.00, 552.0, 398.0)">a</text><text xml:space="preserve" font-family="Helvetica-Light" font-size="18.0" fill="#FEFFFF" transform="matrix(1.00, 0.00, -0.00, -1.00, 562.0, 398.0)">t</text><text xml:space="preserve" font-family="Helvetica-Light" font-size="18.0" fill="#FEFFFF" transform="matrix(1.00, 0.00, -0.00, -1.00, 567.0, 398.0)">i</text><text xml:space="preserve" font-family="Helvetica-Light" font-size="18.0" fill="#FEFFFF" transform="matrix(1.00, 0.00, -0.00, -1.00, 571.0, 398.0)">o</text><text xml:space="preserve" font-family="Helvetica-Light" font-size="18.0" fill="#FEFFFF" transform="matrix(1.00, 0.00, -0.00, -1.00, 581.0, 398.0)">n</text></g></g></g></svg>