<?xml version="1.0" encoding="UTF-8" standalone="no"?><svg xmlns="http://www.w3.org/2000/svg" xmlns:xlink="http://www.w3.org/1999/xlink" clip-rule="evenodd" stroke-miterlimit="4.00" viewBox="0 0 476 32"><desc>SVG generated by Keynote</desc><defs></defs><g transform="matrix(1.00, 0.00, -0.00, -1.00, 0.0, 32.0)"><text xml:space="preserve" font-family="SourceSansPro-Light" font-size="28.0" fill="#FEFFFF" transform="matrix(1.00, 0.00, -0.00, -1.00, 1.0, 9.0)">T</text><text xml:space="preserve" font-family="SourceSansPro-Light" font-size="28.0" fill="#FEFFFF" transform="matrix(1.00, 0.00, -0.00, -1.00, 14.1, 9.0)">r</text><text xml:space="preserve" font-family="SourceSansPro-Light" font-size="28.0" fill="#FEFFFF" transform="matrix(1.00, 0.00, -0.00, -1.00, 22.3, 9.0)">a</text><text xml:space="preserve" font-family="SourceSansPro-Light" font-size="28.0" fill="#FEFFFF" transform="matrix(1.00, 0.00, -0.00, -1.00, 36.3, 9.0)">i</text><text xml:space="preserve" font-family="SourceSansPro-Light" font-size="28.0" fill="#FEFFFF" transform="matrix(1.00, 0.00, -0.00, -1.00, 42.7, 9.0)">n</text><text xml:space="preserve" font-family="SourceSansPro-Light" font-size="28.0" fill="#FEFFFF" transform="matrix(1.00, 0.00, -0.00, -1.00, 57.6, 9.0)">e</text><text xml:space="preserve" font-family="SourceSansPro-Light" font-size="28.0" fill="#FEFFFF" transform="matrix(1.00, 0.00, -0.00, -1.00, 71.1, 9.0)">r</text><text xml:space="preserve" font-family="SourceSansPro-Light" font-size="28.0" fill="#FEFFFF" transform="matrix(1.00, 0.00, -0.00, -1.00, 80.0, 9.0)"> </text><text xml:space="preserve" font-family="SourceSansPro-Light" font-size="28.0" fill="#FEFFFF" transform="matrix(1.00, 0.00, -0.00, -1.00, 85.6, 9.0)">o</text><text xml:space="preserve" font-family="SourceSansPro-Light" font-size="28.0" fill="#FEFFFF" transform="matrix(1.00, 0.00, -0.00, -1.00, 100.6, 9.0)">n</text><text xml:space="preserve" font-family="SourceSansPro-Light" font-size="28.0" fill="#FEFFFF" transform="matrix(1.00, 0.00, -0.00, -1.00, 115.5, 9.0)">b</text><text xml:space="preserve" font-family="SourceSansPro-Light" font-size="28.0" fill="#FEFFFF" transform="matrix(1.00, 0.00, -0.00, -1.00, 130.7, 9.0)">o</text><text xml:space="preserve" font-family="SourceSansPro-Light" font-size="28.0" fill="#FEFFFF" transform="matrix(1.00, 0.00, -0.00, -1.00, 145.3, 9.0)">a</text><text xml:space="preserve" font-family="SourceSansPro-Light" font-size="28.0" fill="#FEFFFF" transform="matrix(1.00, 0.00, -0.00, -1.00, 159.2, 9.0)">r</text><text xml:space="preserve" font-family="SourceSansPro-Light" font-size="28.0" fill="#FEFFFF" transform="matrix(1.00, 0.00, -0.00, -1.00, 167.8, 9.0)">d</text><text xml:space="preserve" font-family="SourceSansPro-Light" font-size="28.0" fill="#FEFFFF" transform="matrix(1.00, 0.00, -0.00, -1.00, 183.1, 9.0)">i</text><text xml:space="preserve" font-family="SourceSansPro-Light" font-size="28.0" fill="#FEFFFF" transform="matrix(1.00, 0.00, -0.00, -1.00, 189.5, 9.0)">n</text><text xml:space="preserve" font-family="SourceSansPro-Light" font-size="28.0" fill="#FEFFFF" transform="matrix(1.00, 0.00, -0.00, -1.00, 204.4, 9.0)">g</text><text xml:space="preserve" font-family="SourceSansPro-Light" font-size="28.0" fill="#FEFFFF" transform="matrix(1.00, 0.00, -0.00, -1.00, 218.0, 9.0)"> </text><text xml:space="preserve" font-family="SourceSansPro-Light" font-size="28.0" fill="#FEFFFF" transform="matrix(1.00, 0.00, -0.00, -1.00, 223.6, 9.0)">|</text><text xml:space="preserve" font-family="SourceSansPro-Light" font-size="28.0" fill="#FEFFFF" transform="matrix(1.00, 0.00, -0.00, -1.00, 229.9, 9.0)"> </text><text xml:space="preserve" font-family="SourceSansPro-Bold" font-weight="bold" font-size="28.0" fill="#FEFFFF" transform="matrix(1.00, 0.00, -0.00, -1.00, 235.5, 9.0)">T</text><text xml:space="preserve" font-family="SourceSansPro-Bold" font-weight="bold" font-size="28.0" fill="#FEFFFF" transform="matrix(1.00, 0.00, -0.00, -1.00, 251.0, 9.0)">h</text><text xml:space="preserve" font-family="SourceSansPro-Bold" font-weight="bold" font-size="28.0" fill="#FEFFFF" transform="matrix(1.00, 0.00, -0.00, -1.00, 267.0, 9.0)">e</text><text xml:space="preserve" font-family="SourceSansPro-Bold" font-weight="bold" font-size="28.0" fill="#FEFFFF" transform="matrix(1.00, 0.00, -0.00, -1.00, 281.5, 9.0)"> </text><text xml:space="preserve" font-family="SourceSansPro-Bold" font-weight="bold" font-size="28.0" fill="#FEFFFF" transform="matrix(1.00, 0.00, -0.00, -1.00, 287.3, 9.0)">c</text><text xml:space="preserve" font-family="SourceSansPro-Bold" font-weight="bold" font-size="28.0" fill="#FEFFFF" transform="matrix(1.00, 0.00, -0.00, -1.00, 300.4, 9.0)">h</text><text xml:space="preserve" font-family="SourceSansPro-Bold" font-weight="bold" font-size="28.0" fill="#FEFFFF" transform="matrix(1.00, 0.00, -0.00, -1.00, 316.4, 9.0)">a</text><text xml:space="preserve" font-family="SourceSansPro-Bold" font-weight="bold" font-size="28.0" fill="#FEFFFF" transform="matrix(1.00, 0.00, -0.00, -1.00, 331.3, 9.0)">n</text><text xml:space="preserve" font-family="SourceSansPro-Bold" font-weight="bold" font-size="28.0" fill="#FEFFFF" transform="matrix(1.00, 0.00, -0.00, -1.00, 347.4, 9.0)">g</text><text xml:space="preserve" font-family="SourceSansPro-Bold" font-weight="bold" font-size="28.0" fill="#FEFFFF" transform="matrix(1.00, 0.00, -0.00, -1.00, 361.8, 9.0)">e</text><text xml:space="preserve" font-family="SourceSansPro-Bold" font-weight="bold" font-size="28.0" fill="#FEFFFF" transform="matrix(1.00, 0.00, -0.00, -1.00, 376.3, 9.0)"> </text><text xml:space="preserve" font-family="SourceSansPro-Bold" font-weight="bold" font-size="28.0" fill="#FEFFFF" transform="matrix(1.00, 0.00, -0.00, -1.00, 382.1, 9.0)">i</text><text xml:space="preserve" font-family="SourceSansPro-Bold" font-weight="bold" font-size="28.0" fill="#FEFFFF" transform="matrix(1.00, 0.00, -0.00, -1.00, 389.9, 9.0)">n</text><text xml:space="preserve" font-family="SourceSansPro-Bold" font-weight="bold" font-size="28.0" fill="#FEFFFF" transform="matrix(1.00, 0.00, -0.00, -1.00, 405.9, 9.0)"> </text><text xml:space="preserve" font-family="SourceSansPro-Bold" font-weight="bold" font-size="28.0" fill="#FEFFFF" transform="matrix(1.00, 0.00, -0.00, -1.00, 411.7, 9.0)">m</text><text xml:space="preserve" font-family="SourceSansPro-Bold" font-weight="bold" font-size="28.0" fill="#FEFFFF" transform="matrix(1.00, 0.00, -0.00, -1.00, 435.7, 9.0)">i</text><text xml:space="preserve" font-family="SourceSansPro-Bold" font-weight="bold" font-size="28.0" fill="#FEFFFF" transform="matrix(1.00, 0.00, -0.00, -1.00, 443.4, 9.0)">n</text><text xml:space="preserve" font-family="SourceSansPro-Bold" font-weight="bold" font-size="28.0" fill="#FEFFFF" transform="matrix(1.00, 0.00, -0.00, -1.00, 459.4, 9.0)">d</text></g></svg>