<?xml version="1.0" encoding="UTF-8" standalone="no"?><svg xmlns="http://www.w3.org/2000/svg" xmlns:xlink="http://www.w3.org/1999/xlink" clip-rule="evenodd" stroke-miterlimit="4.00" viewBox="0 0 1024 768"><desc>SVG generated by Keynote</desc><defs></defs><g transform="matrix(1.00, 0.00, -0.00, -1.00, 0.0, 768.0)"><path d="M 0.0 768.0 L 1024.0 768.0 L 1024.0 0.0 L 0.0 0.0 Z M 0.0 768.0 " fill="#000000"></path><g><clipPath id="clip-1907"><path d="M 32.2 196.9 L 369.0 196.9 L 369.0 613.1 L 32.2 613.1 Z M 32.2 196.9 "></path></clipPath><g clip-path="url(#clip-1907)"><image xlink:href="F88CBDC2CE1CEA8BE375591B3743F5F5.png" width="337.00" height="417.00" transform="matrix(1.00, 0.00, -0.00, -1.00, 32.0, 613.0)"></image></g></g><g><clipPath id="clip-1908"><path d="M 472.0 614.0 L 960.0 614.0 L 960.0 68.0 L 472.0 68.0 Z M 471.7 613.5 "></path></clipPath><g clip-path="url(#clip-1908)"><g><clipPath id="clip-1909"><path d="M 471.7 68.2 L 960.4 68.2 L 960.4 613.5 L 471.7 613.5 Z M 471.7 68.2 "></path></clipPath><g clip-path="url(#clip-1909)"><image xlink:href="6EF74EF32A7706BC7C84CFFF41568CD0.png" width="484.00" height="541.00" transform="matrix(1.01, 0.00, -0.00, -1.01, 472.0, 614.0)"></image></g></g></g></g><text xml:space="preserve" font-family="Helvetica-Light" font-size="18.0" fill="#FEFFFF" transform="matrix(1.00, 0.00, -0.00, -1.00, 501.0, 17.0)">2</text><text xml:space="preserve" font-family="Helvetica-Light" font-size="18.0" fill="#FEFFFF" transform="matrix(1.00, 0.00, -0.00, -1.00, 511.0, 17.0)">6</text><text xml:space="preserve" font-family="Avenir-Light" font-size="25.0" fill="#FEFFFF" transform="matrix(1.00, 0.00, -0.00, -1.00, 36.0, 710.0)">S</text><text xml:space="preserve" font-family="Avenir-Light" font-size="25.0" fill="#FEFFFF" transform="matrix(1.00, 0.00, -0.00, -1.00, 49.9, 710.0)">i</text><text xml:space="preserve" font-family="Avenir-Light" font-size="25.0" fill="#FEFFFF" transform="matrix(1.00, 0.00, -0.00, -1.00, 55.9, 710.0)">d</text><text xml:space="preserve" font-family="Avenir-Light" font-size="25.0" fill="#FEFFFF" transform="matrix(1.00, 0.00, -0.00, -1.00, 71.2, 710.0)">e</text><text xml:space="preserve" font-family="Avenir-Light" font-size="25.0" fill="#FEFFFF" transform="matrix(1.00, 0.00, -0.00, -1.00, 85.1, 710.0)"> </text><text xml:space="preserve" font-family="Avenir-Light" font-size="25.0" fill="#FEFFFF" transform="matrix(1.00, 0.00, -0.00, -1.00, 91.6, 710.0)">p</text><text xml:space="preserve" font-family="Avenir-Light" font-size="25.0" fill="#FEFFFF" transform="matrix(1.00, 0.00, -0.00, -1.00, 106.8, 710.0)">r</text><text xml:space="preserve" font-family="Avenir-Light" font-size="25.0" fill="#FEFFFF" transform="matrix(1.00, 0.00, -0.00, -1.00, 114.7, 710.0)">o</text><text xml:space="preserve" font-family="Avenir-Light" font-size="25.0" fill="#FEFFFF" transform="matrix(1.00, 0.00, -0.00, -1.00, 129.6, 710.0)">j</text><text xml:space="preserve" font-family="Avenir-Light" font-size="25.0" fill="#FEFFFF" transform="matrix(1.00, 0.00, -0.00, -1.00, 135.6, 710.0)">e</text><text xml:space="preserve" font-family="Avenir-Light" font-size="25.0" fill="#FEFFFF" transform="matrix(1.00, 0.00, -0.00, -1.00, 149.5, 710.0)">c</text><text xml:space="preserve" font-family="Avenir-Light" font-size="25.0" fill="#FEFFFF" transform="matrix(1.00, 0.00, -0.00, -1.00, 161.5, 710.0)">t</text><text xml:space="preserve" font-family="Avenir-Light" font-size="25.0" fill="#FEFFFF" transform="matrix(1.00, 0.00, -0.00, -1.00, 169.8, 710.0)">s</text><text xml:space="preserve" font-family="Avenir-Light" font-size="25.0" fill="#FEFFFF" transform="matrix(1.00, 0.00, -0.00, -1.00, 180.5, 710.0)"> </text><text xml:space="preserve" font-family="Avenir-Light" font-size="25.0" fill="#FEFFFF" transform="matrix(1.00, 0.00, -0.00, -1.00, 187.0, 710.0)">|</text><text xml:space="preserve" font-family="Avenir-Light" font-size="25.0" fill="#FEFFFF" transform="matrix(1.00, 0.00, -0.00, -1.00, 192.5, 710.0)"> </text><text xml:space="preserve" font-family="Avenir-Black" font-weight="bold" font-size="25.0" fill="#FEFFFF" transform="matrix(1.00, 0.00, -0.00, -1.00, 199.0, 710.0)">S</text><text xml:space="preserve" font-family="Avenir-Black" font-weight="bold" font-size="25.0" fill="#FEFFFF" transform="matrix(1.00, 0.00, -0.00, -1.00, 213.4, 710.0)">n</text><text xml:space="preserve" font-family="Avenir-Black" font-weight="bold" font-size="25.0" fill="#FEFFFF" transform="matrix(1.00, 0.00, -0.00, -1.00, 227.7, 710.0)">a</text><text xml:space="preserve" font-family="Avenir-Black" font-weight="bold" font-size="25.0" fill="#FEFFFF" transform="matrix(1.00, 0.00, -0.00, -1.00, 241.2, 710.0)">c</text><text xml:space="preserve" font-family="Avenir-Black" font-weight="bold" font-size="25.0" fill="#FEFFFF" transform="matrix(1.00, 0.00, -0.00, -1.00, 253.2, 710.0)">k</text><text xml:space="preserve" font-family="Avenir-Black" font-weight="bold" font-size="25.0" fill="#FEFFFF" transform="matrix(1.00, 0.00, -0.00, -1.00, 267.1, 710.0)"> </text><text xml:space="preserve" font-family="Avenir-Black" font-weight="bold" font-size="25.0" fill="#FEFFFF" transform="matrix(1.00, 0.00, -0.00, -1.00, 274.5, 710.0)">o</text><text xml:space="preserve" font-family="Avenir-Black" font-weight="bold" font-size="25.0" fill="#FEFFFF" transform="matrix(1.00, 0.00, -0.00, -1.00, 289.8, 710.0)">r</text><text xml:space="preserve" font-family="Avenir-Black" font-weight="bold" font-size="25.0" fill="#FEFFFF" transform="matrix(1.00, 0.00, -0.00, -1.00, 299.5, 710.0)">d</text><text xml:space="preserve" font-family="Avenir-Black" font-weight="bold" font-size="25.0" fill="#FEFFFF" transform="matrix(1.00, 0.00, -0.00, -1.00, 315.2, 710.0)">e</text><text xml:space="preserve" font-family="Avenir-Black" font-weight="bold" font-size="25.0" fill="#FEFFFF" transform="matrix(1.00, 0.00, -0.00, -1.00, 329.6, 710.0)">r</text><text xml:space="preserve" font-family="Avenir-Black" font-weight="bold" font-size="25.0" fill="#FEFFFF" transform="matrix(1.00, 0.00, -0.00, -1.00, 339.8, 710.0)">i</text><text xml:space="preserve" font-family="Avenir-Black" font-weight="bold" font-size="25.0" fill="#FEFFFF" transform="matrix(1.00, 0.00, -0.00, -1.00, 346.3, 710.0)">n</text><text xml:space="preserve" font-family="Avenir-Black" font-weight="bold" font-size="25.0" fill="#FEFFFF" transform="matrix(1.00, 0.00, -0.00, -1.00, 360.6, 710.0)">g</text><text xml:space="preserve" font-family="Avenir-Black" font-weight="bold" font-size="25.0" fill="#FEFFFF" transform="matrix(1.00, 0.00, -0.00, -1.00, 376.4, 710.0)"> </text><text xml:space="preserve" font-family="Avenir-Black" font-weight="bold" font-size="25.0" fill="#FEFFFF" transform="matrix(1.00, 0.00, -0.00, -1.00, 383.8, 710.0)">a</text><text xml:space="preserve" font-family="Avenir-Black" font-weight="bold" font-size="25.0" fill="#FEFFFF" transform="matrix(1.00, 0.00, -0.00, -1.00, 397.2, 710.0)">p</text><text xml:space="preserve" font-family="Avenir-Black" font-weight="bold" font-size="25.0" fill="#FEFFFF" transform="matrix(1.00, 0.00, -0.00, -1.00, 412.9, 710.0)">p</text><text xml:space="preserve" font-family="Avenir-Black" font-weight="bold" font-size="25.0" fill="#FEFFFF" transform="matrix(1.00, 0.00, -0.00, -1.00, 428.7, 710.0)"> </text><text xml:space="preserve" font-family="Avenir-Black" font-weight="bold" font-size="25.0" fill="#FEFFFF" transform="matrix(1.00, 0.00, -0.00, -1.00, 436.1, 710.0)">f</text><text xml:space="preserve" font-family="Avenir-Black" font-weight="bold" font-size="25.0" fill="#FEFFFF" transform="matrix(1.00, 0.00, -0.00, -1.00, 445.3, 710.0)">o</text><text xml:space="preserve" font-family="Avenir-Black" font-weight="bold" font-size="25.0" fill="#FEFFFF" transform="matrix(1.00, 0.00, -0.00, -1.00, 460.6, 710.0)">r</text><text xml:space="preserve" font-family="Avenir-Black" font-weight="bold" font-size="25.0" fill="#FEFFFF" transform="matrix(1.00, 0.00, -0.00, -1.00, 470.8, 710.0)"> </text><text xml:space="preserve" font-family="Avenir-Black" font-weight="bold" font-size="25.0" fill="#FEFFFF" transform="matrix(1.00, 0.00, -0.00, -1.00, 478.2, 710.0)">S</text><text xml:space="preserve" font-family="Avenir-Black" font-weight="bold" font-size="25.0" fill="#FEFFFF" transform="matrix(1.00, 0.00, -0.00, -1.00, 492.5, 710.0)">a</text><text xml:space="preserve" font-family="Avenir-Black" font-weight="bold" font-size="25.0" fill="#FEFFFF" transform="matrix(1.00, 0.00, -0.00, -1.00, 505.9, 710.0)">n</text><text xml:space="preserve" font-family="Avenir-Black" font-weight="bold" font-size="25.0" fill="#FEFFFF" transform="matrix(1.00, 0.00, -0.00, -1.00, 520.3, 710.0)">t</text><text xml:space="preserve" font-family="Avenir-Black" font-weight="bold" font-size="25.0" fill="#FEFFFF" transform="matrix(1.00, 0.00, -0.00, -1.00, 530.5, 710.0)">a</text><text xml:space="preserve" font-family="Avenir-Black" font-weight="bold" font-size="25.0" fill="#FEFFFF" transform="matrix(1.00, 0.00, -0.00, -1.00, 543.9, 710.0)"> </text><text xml:space="preserve" font-family="Avenir-Black" font-weight="bold" font-size="25.0" fill="#FEFFFF" transform="matrix(1.00, 0.00, -0.00, -1.00, 551.3, 710.0)">B</text><text xml:space="preserve" font-family="Avenir-Black" font-weight="bold" font-size="25.0" fill="#FEFFFF" transform="matrix(1.00, 0.00, -0.00, -1.00, 567.5, 710.0)">a</text><text xml:space="preserve" font-family="Avenir-Black" font-weight="bold" font-size="25.0" fill="#FEFFFF" transform="matrix(1.00, 0.00, -0.00, -1.00, 580.9, 710.0)">r</text><text xml:space="preserve" font-family="Avenir-Black" font-weight="bold" font-size="25.0" fill="#FEFFFF" transform="matrix(1.00, 0.00, -0.00, -1.00, 591.1, 710.0)">b</text><text xml:space="preserve" font-family="Avenir-Black" font-weight="bold" font-size="25.0" fill="#FEFFFF" transform="matrix(1.00, 0.00, -0.00, -1.00, 606.8, 710.0)">a</text><text xml:space="preserve" font-family="Avenir-Black" font-weight="bold" font-size="25.0" fill="#FEFFFF" transform="matrix(1.00, 0.00, -0.00, -1.00, 620.2, 710.0)">r</text><text xml:space="preserve" font-family="Avenir-Black" font-weight="bold" font-size="25.0" fill="#FEFFFF" transform="matrix(1.00, 0.00, -0.00, -1.00, 630.4, 710.0)">a</text><text xml:space="preserve" font-family="Avenir-Black" font-weight="bold" font-size="25.0" fill="#FEFFFF" transform="matrix(1.00, 0.00, -0.00, -1.00, 643.8, 710.0)"> </text><text xml:space="preserve" font-family="Avenir-Black" font-weight="bold" font-size="25.0" fill="#FEFFFF" transform="matrix(1.00, 0.00, -0.00, -1.00, 651.2, 710.0)">l</text><text xml:space="preserve" font-family="Avenir-Black" font-weight="bold" font-size="25.0" fill="#FEFFFF" transform="matrix(1.00, 0.00, -0.00, -1.00, 657.7, 710.0)">o</text><text xml:space="preserve" font-family="Avenir-Black" font-weight="bold" font-size="25.0" fill="#FEFFFF" transform="matrix(1.00, 0.00, -0.00, -1.00, 673.0, 710.0)">c</text><text xml:space="preserve" font-family="Avenir-Black" font-weight="bold" font-size="25.0" fill="#FEFFFF" transform="matrix(1.00, 0.00, -0.00, -1.00, 685.0, 710.0)">a</text><text xml:space="preserve" font-family="Avenir-Black" font-weight="bold" font-size="25.0" fill="#FEFFFF" transform="matrix(1.00, 0.00, -0.00, -1.00, 698.5, 710.0)">l</text><text xml:space="preserve" font-family="Avenir-Black" font-weight="bold" font-size="25.0" fill="#FEFFFF" transform="matrix(1.00, 0.00, -0.00, -1.00, 705.0, 710.0)"> </text><text xml:space="preserve" font-family="Avenir-Black" font-weight="bold" font-size="25.0" fill="#FEFFFF" transform="matrix(1.00, 0.00, -0.00, -1.00, 712.4, 710.0)">s</text><text xml:space="preserve" font-family="Avenir-Black" font-weight="bold" font-size="25.0" fill="#FEFFFF" transform="matrix(1.00, 0.00, -0.00, -1.00, 723.9, 710.0)">t</text><text xml:space="preserve" font-family="Avenir-Black" font-weight="bold" font-size="25.0" fill="#FEFFFF" transform="matrix(1.00, 0.00, -0.00, -1.00, 734.1, 710.0)">a</text><text xml:space="preserve" font-family="Avenir-Black" font-weight="bold" font-size="25.0" fill="#FEFFFF" transform="matrix(1.00, 0.00, -0.00, -1.00, 747.5, 710.0)">r</text><text xml:space="preserve" font-family="Avenir-Black" font-weight="bold" font-size="25.0" fill="#FEFFFF" transform="matrix(1.00, 0.00, -0.00, -1.00, 757.7, 710.0)">t</text><text xml:space="preserve" font-family="Avenir-Black" font-weight="bold" font-size="25.0" fill="#FEFFFF" transform="matrix(1.00, 0.00, -0.00, -1.00, 767.9, 710.0)">u</text><text xml:space="preserve" font-family="Avenir-Black" font-weight="bold" font-size="25.0" fill="#FEFFFF" transform="matrix(1.00, 0.00, -0.00, -1.00, 782.2, 710.0)">p</text></g></svg>