<?xml version="1.0" encoding="UTF-8" standalone="no"?><svg xmlns="http://www.w3.org/2000/svg" xmlns:xlink="http://www.w3.org/1999/xlink" clip-rule="evenodd" stroke-miterlimit="4.00" viewBox="0 0 336 32"><desc>SVG generated by Keynote</desc><defs></defs><g transform="matrix(1.00, 0.00, -0.00, -1.00, 0.0, 32.0)"><text xml:space="preserve" font-family="SourceSansPro-Light" font-size="28.0" fill="#FEFFFF" transform="matrix(1.00, 0.00, -0.00, -1.00, 0.0, 9.0)">S</text><text xml:space="preserve" font-family="SourceSansPro-Light" font-size="28.0" fill="#FEFFFF" transform="matrix(1.00, 0.00, -0.00, -1.00, 14.4, 9.0)">o</text><text xml:space="preserve" font-family="SourceSansPro-Light" font-size="28.0" fill="#FEFFFF" transform="matrix(1.00, 0.00, -0.00, -1.00, 29.4, 9.0)">m</text><text xml:space="preserve" font-family="SourceSansPro-Light" font-size="28.0" fill="#FEFFFF" transform="matrix(1.00, 0.00, -0.00, -1.00, 52.1, 9.0)">e</text><text xml:space="preserve" font-family="SourceSansPro-Light" font-size="28.0" fill="#FEFFFF" transform="matrix(1.00, 0.00, -0.00, -1.00, 65.6, 9.0)"> </text><text xml:space="preserve" font-family="SourceSansPro-Light" font-size="28.0" fill="#FEFFFF" transform="matrix(1.00, 0.00, -0.00, -1.00, 71.2, 9.0)">o</text><text xml:space="preserve" font-family="SourceSansPro-Light" font-size="28.0" fill="#FEFFFF" transform="matrix(1.00, 0.00, -0.00, -1.00, 86.2, 9.0)">t</text><text xml:space="preserve" font-family="SourceSansPro-Light" font-size="28.0" fill="#FEFFFF" transform="matrix(1.00, 0.00, -0.00, -1.00, 94.9, 9.0)">h</text><text xml:space="preserve" font-family="SourceSansPro-Light" font-size="28.0" fill="#FEFFFF" transform="matrix(1.00, 0.00, -0.00, -1.00, 109.7, 9.0)">e</text><text xml:space="preserve" font-family="SourceSansPro-Light" font-size="28.0" fill="#FEFFFF" transform="matrix(1.00, 0.00, -0.00, -1.00, 123.2, 9.0)">r</text><text xml:space="preserve" font-family="SourceSansPro-Light" font-size="28.0" fill="#FEFFFF" transform="matrix(1.00, 0.00, -0.00, -1.00, 132.1, 9.0)"> </text><text xml:space="preserve" font-family="SourceSansPro-Light" font-size="28.0" fill="#FEFFFF" transform="matrix(1.00, 0.00, -0.00, -1.00, 137.7, 9.0)">w</text><text xml:space="preserve" font-family="SourceSansPro-Light" font-size="28.0" fill="#FEFFFF" transform="matrix(1.00, 0.00, -0.00, -1.00, 156.9, 9.0)">o</text><text xml:space="preserve" font-family="SourceSansPro-Light" font-size="28.0" fill="#FEFFFF" transform="matrix(1.00, 0.00, -0.00, -1.00, 171.8, 9.0)">r</text><text xml:space="preserve" font-family="SourceSansPro-Light" font-size="28.0" fill="#FEFFFF" transform="matrix(1.00, 0.00, -0.00, -1.00, 180.7, 9.0)">k</text><text xml:space="preserve" font-family="SourceSansPro-Light" font-size="28.0" fill="#FEFFFF" transform="matrix(1.00, 0.00, -0.00, -1.00, 193.7, 9.0)">s</text><text xml:space="preserve" font-family="SourceSansPro-Light" font-size="28.0" fill="#FEFFFF" transform="matrix(1.00, 0.00, -0.00, -1.00, 205.0, 9.0)"> </text><text xml:space="preserve" font-family="SourceSansPro-Light" font-size="28.0" fill="#FEFFFF" transform="matrix(1.00, 0.00, -0.00, -1.00, 210.6, 9.0)">|</text><text xml:space="preserve" font-family="SourceSansPro-Light" font-size="28.0" fill="#FEFFFF" transform="matrix(1.00, 0.00, -0.00, -1.00, 216.9, 9.0)"> </text><text xml:space="preserve" font-family="SourceSansPro-Bold" font-weight="bold" font-size="28.0" fill="#FEFFFF" transform="matrix(1.00, 0.00, -0.00, -1.00, 222.5, 9.0)">R</text><text xml:space="preserve" font-family="SourceSansPro-Bold" font-weight="bold" font-size="28.0" fill="#FEFFFF" transform="matrix(1.00, 0.00, -0.00, -1.00, 239.5, 9.0)">e</text><text xml:space="preserve" font-family="SourceSansPro-Bold" font-weight="bold" font-size="28.0" fill="#FEFFFF" transform="matrix(1.00, 0.00, -0.00, -1.00, 254.0, 9.0)">s</text><text xml:space="preserve" font-family="SourceSansPro-Bold" font-weight="bold" font-size="28.0" fill="#FEFFFF" transform="matrix(1.00, 0.00, -0.00, -1.00, 266.4, 9.0)">e</text><text xml:space="preserve" font-family="SourceSansPro-Bold" font-weight="bold" font-size="28.0" fill="#FEFFFF" transform="matrix(1.00, 0.00, -0.00, -1.00, 280.6, 9.0)">a</text><text xml:space="preserve" font-family="SourceSansPro-Bold" font-weight="bold" font-size="28.0" fill="#FEFFFF" transform="matrix(1.00, 0.00, -0.00, -1.00, 295.5, 9.0)">r</text><text xml:space="preserve" font-family="SourceSansPro-Bold" font-weight="bold" font-size="28.0" fill="#FEFFFF" transform="matrix(1.00, 0.00, -0.00, -1.00, 306.4, 9.0)">c</text><text xml:space="preserve" font-family="SourceSansPro-Bold" font-weight="bold" font-size="28.0" fill="#FEFFFF" transform="matrix(1.00, 0.00, -0.00, -1.00, 319.5, 9.0)">h</text></g></svg>