<?xml version="1.0" encoding="UTF-8" standalone="no"?><svg xmlns="http://www.w3.org/2000/svg" xmlns:xlink="http://www.w3.org/1999/xlink" clip-rule="evenodd" stroke-miterlimit="4.00" viewBox="0 0 1024 768"><desc>SVG generated by Keynote</desc><defs></defs><g transform="matrix(1.00, 0.00, -0.00, -1.00, 0.0, 768.0)"><path d="M 0.0 768.0 L 1024.0 768.0 L 1024.0 0.0 L 0.0 0.0 Z M 0.0 768.0 " fill="#000000"></path><text xml:space="preserve" font-family="Helvetica-Light" font-size="18.0" fill="#FEFFFF" transform="matrix(1.00, 0.00, -0.00, -1.00, 506.0, 17.0)">6</text><g><clipPath id="clip-1535"><path d="M 372.0 768.0 L 892.0 768.0 L 892.0 519.0 L 372.0 519.0 Z M 372.1 767.9 "></path></clipPath><g clip-path="url(#clip-1535)"><image xlink:href="../../0D901B30-C708-41ED-9200-A558B82B4A88/assets/2D4F60E98E201BA3B1C08FA1967D6C30.png" width="520.00" height="270.00" transform="matrix(1.00, 0.00, -0.00, -1.00, 372.0, 768.0)"></image></g></g><g><clipPath id="clip-1536"><path d="M 372.0 509.0 L 892.0 509.0 L 892.0 260.0 L 372.0 260.0 Z M 372.1 508.9 "></path></clipPath><g clip-path="url(#clip-1536)"><image xlink:href="../../0D901B30-C708-41ED-9200-A558B82B4A88/assets/E2DFF0C8453DFDAFD75C410A1D9EE192.png" width="520.00" height="264.00" transform="matrix(1.00, 0.00, -0.00, -1.00, 372.0, 509.0)"></image></g></g><g><clipPath id="clip-1537"><path d="M 372.0 250.0 L 892.0 250.0 L 892.0 0.0 L 372.0 0.0 Z M 372.1 249.6 "></path></clipPath><g clip-path="url(#clip-1537)"><image xlink:href="../../7A6EAB0F-DD6E-4290-8FB8-99856366664A/assets/CB9674F2AC2F2AFAC4CDAAEE7F4DE6D2.png" width="961.00" height="489.00" transform="matrix(0.54, 0.00, -0.00, -0.54, 372.0, 250.0)"></image></g></g><text xml:space="preserve" font-family="Avenir-Book" font-size="20.0" fill="#FEFFFF" transform="matrix(1.00, 0.00, -0.00, -1.00, 906.0, 551.0)">V</text><text xml:space="preserve" font-family="Avenir-Book" font-size="20.0" fill="#FEFFFF" transform="matrix(1.00, 0.00, -0.00, -1.00, 917.1, 551.0)">a</text><text xml:space="preserve" font-family="Avenir-Book" font-size="20.0" fill="#FEFFFF" transform="matrix(1.00, 0.00, -0.00, -1.00, 927.5, 551.0)">r</text><text xml:space="preserve" font-family="Avenir-Book" font-size="20.0" fill="#FEFFFF" transform="matrix(1.00, 0.00, -0.00, -1.00, 934.1, 551.0)"> </text><text xml:space="preserve" font-family="Avenir-Book" font-size="20.0" fill="#FEFFFF" transform="matrix(1.00, 0.00, -0.00, -1.00, 939.7, 551.0)">1</text><text xml:space="preserve" font-family="Avenir-Book" font-size="20.0" fill="#FEFFFF" transform="matrix(1.00, 0.00, -0.00, -1.00, 906.0, 283.0)">V</text><text xml:space="preserve" font-family="Avenir-Book" font-size="20.0" fill="#FEFFFF" transform="matrix(1.00, 0.00, -0.00, -1.00, 917.1, 283.0)">a</text><text xml:space="preserve" font-family="Avenir-Book" font-size="20.0" fill="#FEFFFF" transform="matrix(1.00, 0.00, -0.00, -1.00, 927.5, 283.0)">r</text><text xml:space="preserve" font-family="Avenir-Book" font-size="20.0" fill="#FEFFFF" transform="matrix(1.00, 0.00, -0.00, -1.00, 934.1, 283.0)"> </text><text xml:space="preserve" font-family="Avenir-Book" font-size="20.0" fill="#FEFFFF" transform="matrix(1.00, 0.00, -0.00, -1.00, 939.7, 283.0)">2</text><text xml:space="preserve" font-family="Avenir-Book" font-size="20.0" fill="#FEFFFF" transform="matrix(1.00, 0.00, -0.00, -1.00, 906.0, 24.0)">V</text><text xml:space="preserve" font-family="Avenir-Book" font-size="20.0" fill="#FEFFFF" transform="matrix(1.00, 0.00, -0.00, -1.00, 917.1, 24.0)">a</text><text xml:space="preserve" font-family="Avenir-Book" font-size="20.0" fill="#FEFFFF" transform="matrix(1.00, 0.00, -0.00, -1.00, 927.5, 24.0)">r</text><text xml:space="preserve" font-family="Avenir-Book" font-size="20.0" fill="#FEFFFF" transform="matrix(1.00, 0.00, -0.00, -1.00, 934.1, 24.0)"> </text><text xml:space="preserve" font-family="Avenir-Book" font-size="20.0" fill="#FEFFFF" transform="matrix(1.00, 0.00, -0.00, -1.00, 939.7, 24.0)">3</text><g opacity="0.71"><g><clipPath id="clip-1538"><path d="M 372.0 768.0 L 892.0 768.0 L 892.0 519.0 L 372.0 519.0 Z M 372.0 767.9 "></path></clipPath><g clip-path="url(#clip-1538)"><g><clipPath id="clip-1539"><path d="M 370.0 517.0 L 893.0 517.0 L 893.0 768.0 L 370.0 768.0 Z M 370.0 517.0 "></path></clipPath><g clip-path="url(#clip-1539)"><image xlink:href="../../DB57854A-CC47-437C-8EC5-1C2AC484F0E4/assets/4036F2D0F34FC177606CB1879264E233.png" width="520.00" height="269.00" transform="matrix(1.00, 0.00, -0.00, -1.00, 372.0, 768.0)"></image></g></g></g></g></g><g opacity="0.71"><g><clipPath id="clip-1540"><path d="M 372.0 509.0 L 892.0 509.0 L 892.0 260.0 L 372.0 260.0 Z M 372.0 509.0 "></path></clipPath><g clip-path="url(#clip-1540)"><g><clipPath id="clip-1541"><path d="M 371.0 259.0 L 893.0 259.0 L 893.0 510.0 L 371.0 510.0 Z M 371.0 259.0 "></path></clipPath><g clip-path="url(#clip-1541)"><image xlink:href="../../DB57854A-CC47-437C-8EC5-1C2AC484F0E4/assets/0695B39171788DA4443678D8501F5298.png" width="520.00" height="265.00" transform="matrix(1.00, 0.00, -0.00, -1.00, 372.0, 509.0)"></image></g></g></g></g></g><g opacity="0.71"><g><clipPath id="clip-1542"><path d="M 372.0 250.0 L 892.0 250.0 L 892.0 1.0 L 372.0 1.0 Z M 372.1 249.6 "></path></clipPath><g clip-path="url(#clip-1542)"><g><clipPath id="clip-1543"><path d="M 371.0 0.0 L 894.0 0.0 L 894.0 251.0 L 371.0 251.0 Z M 371.0 0.0 "></path></clipPath><g clip-path="url(#clip-1543)"><image xlink:href="../../DB57854A-CC47-437C-8EC5-1C2AC484F0E4/assets/B64E4A5C6A887017866874CC1C2A14B8.png" width="520.00" height="264.00" transform="matrix(1.00, 0.00, -0.00, -1.00, 372.0, 250.0)"></image></g></g></g></g></g><text xml:space="preserve" font-family="Avenir-Light" font-size="25.0" fill="#FEFFFF" transform="matrix(1.00, 0.00, -0.00, -1.00, 36.0, 710.0)">L</text><text xml:space="preserve" font-family="Avenir-Light" font-size="25.0" fill="#FEFFFF" transform="matrix(1.00, 0.00, -0.00, -1.00, 48.5, 710.0)">o</text><text xml:space="preserve" font-family="Avenir-Light" font-size="25.0" fill="#FEFFFF" transform="matrix(1.00, 0.00, -0.00, -1.00, 63.4, 710.0)">c</text><text xml:space="preserve" font-family="Avenir-Light" font-size="25.0" fill="#FEFFFF" transform="matrix(1.00, 0.00, -0.00, -1.00, 75.4, 710.0)">a</text><text xml:space="preserve" font-family="Avenir-Light" font-size="25.0" fill="#FEFFFF" transform="matrix(1.00, 0.00, -0.00, -1.00, 88.3, 710.0)">t</text><text xml:space="preserve" font-family="Avenir-Light" font-size="25.0" fill="#FEFFFF" transform="matrix(1.00, 0.00, -0.00, -1.00, 96.7, 710.0)">i</text><text xml:space="preserve" font-family="Avenir-Light" font-size="25.0" fill="#FEFFFF" transform="matrix(1.00, 0.00, -0.00, -1.00, 102.7, 710.0)">o</text><text xml:space="preserve" font-family="Avenir-Light" font-size="25.0" fill="#FEFFFF" transform="matrix(1.00, 0.00, -0.00, -1.00, 117.6, 710.0)">n</text><text xml:space="preserve" font-family="Avenir-Light" font-size="25.0" fill="#FEFFFF" transform="matrix(1.00, 0.00, -0.00, -1.00, 131.5, 710.0)"> </text><text xml:space="preserve" font-family="Avenir-Light" font-size="25.0" fill="#FEFFFF" transform="matrix(1.00, 0.00, -0.00, -1.00, 138.0, 710.0)">s</text><text xml:space="preserve" font-family="Avenir-Light" font-size="25.0" fill="#FEFFFF" transform="matrix(1.00, 0.00, -0.00, -1.00, 148.6, 710.0)">e</text><text xml:space="preserve" font-family="Avenir-Light" font-size="25.0" fill="#FEFFFF" transform="matrix(1.00, 0.00, -0.00, -1.00, 162.5, 710.0)">a</text><text xml:space="preserve" font-family="Avenir-Light" font-size="25.0" fill="#FEFFFF" transform="matrix(1.00, 0.00, -0.00, -1.00, 175.5, 710.0)">r</text><text xml:space="preserve" font-family="Avenir-Light" font-size="25.0" fill="#FEFFFF" transform="matrix(1.00, 0.00, -0.00, -1.00, 183.4, 710.0)">c</text><text xml:space="preserve" font-family="Avenir-Light" font-size="25.0" fill="#FEFFFF" transform="matrix(1.00, 0.00, -0.00, -1.00, 195.4, 710.0)">h</text><text xml:space="preserve" font-family="Avenir-Light" font-size="25.0" fill="#FEFFFF" transform="matrix(1.00, 0.00, -0.00, -1.00, 209.3, 710.0)"> </text><text xml:space="preserve" font-family="Avenir-Light" font-size="25.0" fill="#FEFFFF" transform="matrix(1.00, 0.00, -0.00, -1.00, 215.8, 710.0)">|</text><text xml:space="preserve" font-family="Avenir-Light" font-size="25.0" fill="#FEFFFF" transform="matrix(1.00, 0.00, -0.00, -1.00, 221.3, 710.0)"> </text><text xml:space="preserve" font-family="Avenir-Black" font-weight="bold" font-size="25.0" fill="#FEFFFF" transform="matrix(1.00, 0.00, -0.00, -1.00, 227.8, 710.0)">T</text><text xml:space="preserve" font-family="Avenir-Black" font-weight="bold" font-size="25.0" fill="#FEFFFF" transform="matrix(1.00, 0.00, -0.00, -1.00, 239.4, 710.0)">e</text><text xml:space="preserve" font-family="Avenir-Black" font-weight="bold" font-size="25.0" fill="#FEFFFF" transform="matrix(1.00, 0.00, -0.00, -1.00, 253.8, 710.0)">s</text><text xml:space="preserve" font-family="Avenir-Black" font-weight="bold" font-size="25.0" fill="#FEFFFF" transform="matrix(1.00, 0.00, -0.00, -1.00, 265.3, 710.0)">t</text><text xml:space="preserve" font-family="Avenir-Black" font-weight="bold" font-size="25.0" fill="#FEFFFF" transform="matrix(1.00, 0.00, -0.00, -1.00, 275.5, 710.0)"> </text><text xml:space="preserve" font-family="Avenir-Black" font-weight="bold" font-size="25.0" fill="#FEFFFF" transform="matrix(1.00, 0.00, -0.00, -1.00, 282.9, 710.0)">s</text><text xml:space="preserve" font-family="Avenir-Black" font-weight="bold" font-size="25.0" fill="#FEFFFF" transform="matrix(1.00, 0.00, -0.00, -1.00, 294.5, 710.0)">e</text><text xml:space="preserve" font-family="Avenir-Black" font-weight="bold" font-size="25.0" fill="#FEFFFF" transform="matrix(1.00, 0.00, -0.00, -1.00, 308.8, 710.0)">t</text><text xml:space="preserve" font-family="Avenir-Black" font-weight="bold" font-size="25.0" fill="#FEFFFF" transform="matrix(1.00, 0.00, -0.00, -1.00, 319.0, 710.0)">u</text><text xml:space="preserve" font-family="Avenir-Black" font-weight="bold" font-size="25.0" fill="#FEFFFF" transform="matrix(1.00, 0.00, -0.00, -1.00, 333.4, 710.0)">p</text><path d="M 890.0 768.7 L 900.3 768.7 L 900.3 0.7 L 890.0 0.7 Z M 890.0 768.7 " fill="#000000"></path><path d="M 363.2 510.0 L 898.8 510.0 L 898.8 508.3 L 363.2 508.3 Z M 363.2 510.0 " fill="#000000"></path></g></svg>