<?xml version="1.0" encoding="UTF-8" standalone="no"?><svg xmlns="http://www.w3.org/2000/svg" xmlns:xlink="http://www.w3.org/1999/xlink" clip-rule="evenodd" stroke-miterlimit="10" viewBox="0 0 318 38"><desc>SVG generated by Keynote</desc><defs></defs><g transform="matrix(1.00, 0.00, -0.00, -1.00, 0.0, 38.0)"><text xml:space="preserve" font-family="SourceSansPro-Light,Source Sans Pro" font-size="36.0" fill="#FEFFFF" transform="matrix(1.00, 0.00, -0.00, -1.00, -0.6, 10.8)">P</text><text xml:space="preserve" font-family="SourceSansPro-Light,Source Sans Pro" font-size="36.0" fill="#FEFFFF" transform="matrix(1.00, 0.00, -0.00, -1.00, 19.3, 10.8)">r</text><text xml:space="preserve" font-family="SourceSansPro-Light,Source Sans Pro" font-size="36.0" fill="#FEFFFF" transform="matrix(1.00, 0.00, -0.00, -1.00, 30.3, 10.8)">o</text><text xml:space="preserve" font-family="SourceSansPro-Light,Source Sans Pro" font-size="36.0" fill="#FEFFFF" transform="matrix(1.00, 0.00, -0.00, -1.00, 49.6, 10.8)">d</text><text xml:space="preserve" font-family="SourceSansPro-Light,Source Sans Pro" font-size="36.0" fill="#FEFFFF" transform="matrix(1.00, 0.00, -0.00, -1.00, 69.2, 10.8)">u</text><text xml:space="preserve" font-family="SourceSansPro-Light,Source Sans Pro" font-size="36.0" fill="#FEFFFF" transform="matrix(1.00, 0.00, -0.00, -1.00, 88.2, 10.8)">c</text><text xml:space="preserve" font-family="SourceSansPro-Light,Source Sans Pro" font-size="36.0" fill="#FEFFFF" transform="matrix(1.00, 0.00, -0.00, -1.00, 104.4, 10.8)">t</text><text xml:space="preserve" font-family="SourceSansPro-Light,Source Sans Pro" font-size="36.0" fill="#FEFFFF" transform="matrix(1.00, 0.00, -0.00, -1.00, 115.6, 10.8)"> </text><text xml:space="preserve" font-family="SourceSansPro-Light,Source Sans Pro" font-size="36.0" fill="#FEFFFF" transform="matrix(1.00, 0.00, -0.00, -1.00, 122.8, 10.8)">/</text><text xml:space="preserve" font-family="SourceSansPro-Light,Source Sans Pro" font-size="36.0" fill="#FEFFFF" transform="matrix(1.00, 0.00, -0.00, -1.00, 135.6, 10.8)"> </text><text xml:space="preserve" font-family="SourceSansPro-Light,Source Sans Pro" font-size="36.0" fill="#FEFFFF" transform="matrix(1.00, 0.00, -0.00, -1.00, 142.8, 10.8)">U</text><text xml:space="preserve" font-family="SourceSansPro-Light,Source Sans Pro" font-size="36.0" fill="#FEFFFF" transform="matrix(1.00, 0.00, -0.00, -1.00, 165.0, 10.8)">X</text><text xml:space="preserve" font-family="SourceSansPro-Light,Source Sans Pro" font-size="36.0" fill="#FEFFFF" transform="matrix(1.00, 0.00, -0.00, -1.00, 182.1, 10.8)"> </text><text xml:space="preserve" font-family="SourceSansPro-Light,Source Sans Pro" font-size="36.0" fill="#FEFFFF" transform="matrix(1.00, 0.00, -0.00, -1.00, 189.3, 10.8)">D</text><text xml:space="preserve" font-family="SourceSansPro-Light,Source Sans Pro" font-size="36.0" fill="#FEFFFF" transform="matrix(1.00, 0.00, -0.00, -1.00, 210.8, 10.8)">e</text><text xml:space="preserve" font-family="SourceSansPro-Light,Source Sans Pro" font-size="36.0" fill="#FEFFFF" transform="matrix(1.00, 0.00, -0.00, -1.00, 228.2, 10.8)">s</text><text xml:space="preserve" font-family="SourceSansPro-Light,Source Sans Pro" font-size="36.0" fill="#FEFFFF" transform="matrix(1.00, 0.00, -0.00, -1.00, 242.8, 10.8)">i</text><text xml:space="preserve" font-family="SourceSansPro-Light,Source Sans Pro" font-size="36.0" fill="#FEFFFF" transform="matrix(1.00, 0.00, -0.00, -1.00, 251.0, 10.8)">g</text><text xml:space="preserve" font-family="SourceSansPro-Light,Source Sans Pro" font-size="36.0" fill="#FEFFFF" transform="matrix(1.00, 0.00, -0.00, -1.00, 268.6, 10.8)">n</text><text xml:space="preserve" font-family="SourceSansPro-Light,Source Sans Pro" font-size="36.0" fill="#FEFFFF" transform="matrix(1.00, 0.00, -0.00, -1.00, 287.7, 10.8)">e</text><text xml:space="preserve" font-family="SourceSansPro-Light,Source Sans Pro" font-size="36.0" fill="#FEFFFF" transform="matrix(1.00, 0.00, -0.00, -1.00, 305.1, 10.8)">r</text></g></svg>