<?xml version="1.0" encoding="UTF-8" standalone="no"?><svg xmlns="http://www.w3.org/2000/svg" xmlns:xlink="http://www.w3.org/1999/xlink" clip-rule="evenodd" stroke-miterlimit="4.00" viewBox="0 0 1024 768"><desc>SVG generated by Keynote</desc><defs></defs><g transform="matrix(1.00, 0.00, -0.00, -1.00, 0.0, 768.0)"><path d="M 0.0 768.0 L 1024.0 768.0 L 1024.0 0.0 L 0.0 0.0 Z M 0.0 768.0 " fill="#E7A432"></path><text xml:space="preserve" font-family="Helvetica-Light" font-size="18.0" fill="#FEFFFF" transform="matrix(1.00, 0.00, -0.00, -1.00, 506.0, 17.0)">2</text><g><clipPath id="clip-0"><path d="M 96.0 492.0 L 343.0 492.0 L 343.0 287.0 L 96.0 287.0 Z M 96.4 492.0 "></path></clipPath><g clip-path="url(#clip-0)"><g><clipPath id="clip-1"><path d="M 242.1 434.2 C 236.1 433.7 229.2 433.2 222.3 432.3 C 211.7 430.9 201.2 429.1 192.4 425.0 C 175.4 418.1 163.9 403.4 163.9 381.8 C 163.9 354.7 181.4 341.0 203.5 341.0 C 210.8 341.0 216.8 341.9 222.3 343.2 C 231.1 346.0 238.4 351.0 247.1 360.2 C 252.2 353.3 253.6 350.1 262.3 342.8 C 264.6 341.9 266.9 341.9 268.7 343.2 C 274.3 347.8 283.9 356.1 289.0 360.7 C 291.3 362.5 290.8 365.3 289.4 367.6 C 284.4 374.0 279.3 379.5 279.3 391.9 L 279.3 433.2 C 279.3 450.7 280.7 466.8 267.8 478.7 C 257.3 488.3 240.7 492.0 227.8 492.0 L 222.3 492.0 C 198.9 490.6 174.0 480.5 168.5 451.6 C 167.6 447.9 170.4 446.6 172.2 446.1 L 197.9 442.9 C 200.7 443.3 202.1 445.6 202.5 447.9 C 204.8 458.0 213.1 463.1 222.3 464.0 L 224.2 464.0 C 229.7 464.0 235.6 461.7 238.9 457.1 C 242.5 451.6 242.1 444.2 242.1 437.8 L 242.1 434.2 L 242.1 434.2 L 242.1 434.2 Z M 242.1 407.5 C 242.1 396.9 242.5 388.7 237.0 379.5 C 233.8 373.1 228.3 369.0 222.3 367.6 C 221.4 367.6 220.0 367.1 218.6 367.1 C 208.5 367.1 202.5 374.9 202.5 386.4 C 202.5 401.1 211.3 408.0 222.3 411.2 C 228.3 412.6 235.2 413.0 242.1 413.0 L 242.1 407.5 L 242.1 407.5 L 242.1 407.5 Z M 242.1 407.5 "></path></clipPath><g clip-path="url(#clip-1)"><g><clipPath id="clip-2"><path d="M 96.0 287.0 L 343.0 287.0 L 343.0 492.0 L 96.0 492.0 Z M 96.0 287.0 "></path></clipPath><g clip-path="url(#clip-2)"><path d="M 160.8 495.1 L 293.7 495.1 L 293.7 337.9 L 160.8 337.9 Z M 160.8 495.1 " fill="#FFFFFF"></path></g></g></g></g></g></g><g><clipPath id="clip-3"><path d="M 96.0 492.0 L 343.0 492.0 L 343.0 287.0 L 96.0 287.0 Z M 96.4 492.0 "></path></clipPath><g clip-path="url(#clip-3)"><g><clipPath id="clip-4"><path d="M 326.8 298.4 C 338.0 307.9 342.8 325.1 343.0 334.1 L 343.0 335.6 C 343.0 337.6 342.5 339.1 342.0 339.8 C 339.8 342.6 323.3 345.1 309.0 340.8 C 305.0 339.6 301.5 337.8 298.3 335.6 C 295.8 333.8 296.3 331.6 298.8 331.9 C 301.5 332.4 305.0 332.6 309.0 333.1 C 317.8 333.8 328.0 334.1 330.5 330.9 C 334.0 326.6 326.5 308.2 323.3 300.2 C 322.3 297.7 324.5 296.7 326.8 298.4 L 326.8 298.4 L 326.8 298.4 Z M 326.8 298.4 "></path></clipPath><g clip-path="url(#clip-4)"><g><clipPath id="clip-5"><path d="M 96.0 287.0 L 343.0 287.0 L 343.0 492.0 L 96.0 492.0 Z M 96.0 287.0 "></path></clipPath><g clip-path="url(#clip-5)"><path d="M 293.6 346.2 L 346.1 346.2 L 346.1 294.5 L 293.6 294.5 Z M 293.6 346.2 " fill="#FFFFFF"></path></g></g></g></g></g></g><g><clipPath id="clip-6"><path d="M 96.0 492.0 L 343.0 492.0 L 343.0 287.0 L 96.0 287.0 Z M 96.4 492.0 "></path></clipPath><g clip-path="url(#clip-6)"><g><clipPath id="clip-7"><path d="M 97.2 334.1 C 129.5 304.9 171.9 287.4 219.4 287.4 C 248.8 287.4 282.8 295.7 309.0 311.4 C 312.5 313.4 316.0 315.6 319.3 318.1 C 323.8 321.4 319.8 326.4 315.3 324.4 C 313.3 323.6 311.0 322.6 309.0 321.9 C 280.3 310.6 250.1 305.4 222.1 305.4 C 177.7 305.4 134.7 317.6 100.0 337.8 C 96.7 339.6 94.5 336.3 97.2 334.1 L 97.2 334.1 L 97.2 334.1 Z M 97.2 334.1 "></path></clipPath><g clip-path="url(#clip-7)"><g><clipPath id="clip-8"><path d="M 96.0 287.0 L 343.0 287.0 L 343.0 492.0 L 96.0 492.0 Z M 96.0 287.0 "></path></clipPath><g clip-path="url(#clip-8)"><path d="M 92.9 341.4 L 324.3 341.4 L 324.3 284.4 L 92.9 284.4 Z M 92.9 341.4 " fill="#FFFFFF"></path></g></g></g></g></g></g><g opacity="0.76"><g><clipPath id="clip-9"><path d="M 384.0 316.0 L 964.0 316.0 L 964.0 463.0 L 384.0 463.0 Z M 384.0 316.0 "></path></clipPath><g clip-path="url(#clip-9)"><text xml:space="preserve" font-family="SourceSansPro-Regular" font-size="55.0" fill="#FEFFFF" transform="matrix(1.00, 0.00, -0.00, -1.00, 388.0, 405.0)">R</text><text xml:space="preserve" font-family="SourceSansPro-Regular" font-size="55.0" fill="#FEFFFF" transform="matrix(1.00, 0.00, -0.00, -1.00, 419.1, 405.0)">e</text><text xml:space="preserve" font-family="SourceSansPro-Regular" font-size="55.0" fill="#FEFFFF" transform="matrix(1.00, 0.00, -0.00, -1.00, 446.4, 405.0)">c</text><text xml:space="preserve" font-family="SourceSansPro-Regular" font-size="55.0" fill="#FEFFFF" transform="matrix(1.00, 0.00, -0.00, -1.00, 471.5, 405.0)">r</text><text xml:space="preserve" font-family="SourceSansPro-Regular" font-size="55.0" fill="#FEFFFF" transform="matrix(1.00, 0.00, -0.00, -1.00, 490.6, 405.0)">u</text><text xml:space="preserve" font-family="SourceSansPro-Regular" font-size="55.0" fill="#FEFFFF" transform="matrix(1.00, 0.00, -0.00, -1.00, 520.5, 405.0)">i</text><text xml:space="preserve" font-family="SourceSansPro-Regular" font-size="55.0" fill="#FEFFFF" transform="matrix(1.00, 0.00, -0.00, -1.00, 534.0, 405.0)">t</text><text xml:space="preserve" font-family="SourceSansPro-Regular" font-size="55.0" fill="#FEFFFF" transform="matrix(1.00, 0.00, -0.00, -1.00, 552.6, 405.0)">i</text><text xml:space="preserve" font-family="SourceSansPro-Regular" font-size="55.0" fill="#FEFFFF" transform="matrix(1.00, 0.00, -0.00, -1.00, 566.1, 405.0)">n</text><text xml:space="preserve" font-family="SourceSansPro-Regular" font-size="55.0" fill="#FEFFFF" transform="matrix(1.00, 0.00, -0.00, -1.00, 596.2, 405.0)">g</text><text xml:space="preserve" font-family="SourceSansPro-Regular" font-size="55.0" fill="#FEFFFF" transform="matrix(1.00, 0.00, -0.00, -1.00, 624.0, 405.0)"> </text><text xml:space="preserve" font-family="SourceSansPro-Regular" font-size="55.0" fill="#FEFFFF" transform="matrix(1.00, 0.00, -0.00, -1.00, 635.1, 405.0)">&amp;</text><text xml:space="preserve" font-family="SourceSansPro-Regular" font-size="55.0" fill="#FEFFFF" transform="matrix(1.00, 0.00, -0.00, -1.00, 668.6, 405.0)"> </text><text xml:space="preserve" font-family="SourceSansPro-Regular" font-size="55.0" fill="#FEFFFF" transform="matrix(1.00, 0.00, -0.00, -1.00, 679.7, 405.0)">C</text><text xml:space="preserve" font-family="SourceSansPro-Regular" font-size="55.0" fill="#FEFFFF" transform="matrix(1.00, 0.00, -0.00, -1.00, 710.8, 405.0)">a</text><text xml:space="preserve" font-family="SourceSansPro-Regular" font-size="55.0" fill="#FEFFFF" transform="matrix(1.00, 0.00, -0.00, -1.00, 739.0, 405.0)">n</text><text xml:space="preserve" font-family="SourceSansPro-Regular" font-size="55.0" fill="#FEFFFF" transform="matrix(1.00, 0.00, -0.00, -1.00, 769.0, 405.0)">d</text><text xml:space="preserve" font-family="SourceSansPro-Regular" font-size="55.0" fill="#FEFFFF" transform="matrix(1.00, 0.00, -0.00, -1.00, 799.6, 405.0)">i</text><text xml:space="preserve" font-family="SourceSansPro-Regular" font-size="55.0" fill="#FEFFFF" transform="matrix(1.00, 0.00, -0.00, -1.00, 813.1, 405.0)">d</text><text xml:space="preserve" font-family="SourceSansPro-Regular" font-size="55.0" fill="#FEFFFF" transform="matrix(1.00, 0.00, -0.00, -1.00, 843.6, 405.0)">a</text><text xml:space="preserve" font-family="SourceSansPro-Regular" font-size="55.0" fill="#FEFFFF" transform="matrix(1.00, 0.00, -0.00, -1.00, 871.8, 405.0)">t</text><text xml:space="preserve" font-family="SourceSansPro-Regular" font-size="55.0" fill="#FEFFFF" transform="matrix(1.00, 0.00, -0.00, -1.00, 889.8, 405.0)">e</text><text xml:space="preserve" font-family="SourceSansPro-Regular" font-size="55.0" fill="#FEFFFF" transform="matrix(1.00, 0.00, -0.00, -1.00, 917.1, 405.0)"> </text><text xml:space="preserve" font-family="SourceSansPro-Regular" font-size="55.0" fill="#FEFFFF" transform="matrix(1.00, 0.00, -0.00, -1.00, 388.0, 336.0)">e</text><text xml:space="preserve" font-family="SourceSansPro-Regular" font-size="55.0" fill="#FEFFFF" transform="matrix(1.00, 0.00, -0.00, -1.00, 414.9, 336.0)">x</text><text xml:space="preserve" font-family="SourceSansPro-Regular" font-size="55.0" fill="#FEFFFF" transform="matrix(1.00, 0.00, -0.00, -1.00, 439.4, 336.0)">p</text><text xml:space="preserve" font-family="SourceSansPro-Regular" font-size="55.0" fill="#FEFFFF" transform="matrix(1.00, 0.00, -0.00, -1.00, 469.9, 336.0)">e</text><text xml:space="preserve" font-family="SourceSansPro-Regular" font-size="55.0" fill="#FEFFFF" transform="matrix(1.00, 0.00, -0.00, -1.00, 497.2, 336.0)">r</text><text xml:space="preserve" font-family="SourceSansPro-Regular" font-size="55.0" fill="#FEFFFF" transform="matrix(1.00, 0.00, -0.00, -1.00, 516.3, 336.0)">i</text><text xml:space="preserve" font-family="SourceSansPro-Regular" font-size="55.0" fill="#FEFFFF" transform="matrix(1.00, 0.00, -0.00, -1.00, 529.8, 336.0)">e</text><text xml:space="preserve" font-family="SourceSansPro-Regular" font-size="55.0" fill="#FEFFFF" transform="matrix(1.00, 0.00, -0.00, -1.00, 557.1, 336.0)">n</text><text xml:space="preserve" font-family="SourceSansPro-Regular" font-size="55.0" fill="#FEFFFF" transform="matrix(1.00, 0.00, -0.00, -1.00, 587.2, 336.0)">c</text><text xml:space="preserve" font-family="SourceSansPro-Regular" font-size="55.0" fill="#FEFFFF" transform="matrix(1.00, 0.00, -0.00, -1.00, 611.1, 336.0)">e</text></g></g></g></g></svg>