<?xml version="1.0" encoding="UTF-8" standalone="no"?><svg xmlns="http://www.w3.org/2000/svg" xmlns:xlink="http://www.w3.org/1999/xlink" clip-rule="evenodd" stroke-miterlimit="4.00" viewBox="0 0 1024 768"><desc>SVG generated by Keynote</desc><defs></defs><g transform="matrix(1.00, 0.00, -0.00, -1.00, 0.0, 768.0)"><path d="M 0.0 768.0 L 1024.0 768.0 L 1024.0 0.0 L 0.0 0.0 Z M 0.0 768.0 " fill="#000000"></path><text xml:space="preserve" font-family="SourceSansPro-Light" font-size="75.0" fill="#54A3EA" transform="matrix(1.00, 0.00, -0.00, -1.00, 310.0, 367.0)">J</text><text xml:space="preserve" font-family="SourceSansPro-Light" font-size="75.0" fill="#54A3EA" transform="matrix(1.00, 0.00, -0.00, -1.00, 344.1, 367.0)">e</text><text xml:space="preserve" font-family="SourceSansPro-Light" font-size="75.0" fill="#54A3EA" transform="matrix(1.00, 0.00, -0.00, -1.00, 380.4, 367.0)">s</text><text xml:space="preserve" font-family="SourceSansPro-Light" font-size="75.0" fill="#54A3EA" transform="matrix(1.00, 0.00, -0.00, -1.00, 410.7, 367.0)">s</text><text xml:space="preserve" font-family="SourceSansPro-Light" font-size="75.0" fill="#54A3EA" transform="matrix(1.00, 0.00, -0.00, -1.00, 441.1, 367.0)">i</text><text xml:space="preserve" font-family="SourceSansPro-Light" font-size="75.0" fill="#54A3EA" transform="matrix(1.00, 0.00, -0.00, -1.00, 458.3, 367.0)">c</text><text xml:space="preserve" font-family="SourceSansPro-Light" font-size="75.0" fill="#54A3EA" transform="matrix(1.00, 0.00, -0.00, -1.00, 491.2, 367.0)">a</text><text xml:space="preserve" font-family="SourceSansPro-Light" font-size="75.0" fill="#FEFFFF" transform="matrix(1.00, 0.00, -0.00, -1.00, 528.6, 367.0)"> </text><text xml:space="preserve" font-family="SourceSansPro-Light" font-size="75.0" fill="#FEFFFF" transform="matrix(1.00, 0.00, -0.00, -1.00, 543.5, 367.0)">W</text><text xml:space="preserve" font-family="SourceSansPro-Light" font-size="75.0" fill="#FEFFFF" transform="matrix(1.00, 0.00, -0.00, -1.00, 599.4, 367.0)">a</text><text xml:space="preserve" font-family="SourceSansPro-Light" font-size="75.0" fill="#FEFFFF" transform="matrix(1.00, 0.00, -0.00, -1.00, 636.8, 367.0)">n</text><text xml:space="preserve" font-family="SourceSansPro-Light" font-size="75.0" fill="#FEFFFF" transform="matrix(1.00, 0.00, -0.00, -1.00, 676.7, 367.0)">g</text><text xml:space="preserve" font-family="SourceSansPro-Light" font-size="36.8" fill="#FEFFFF" transform="matrix(1.00, 0.00, -0.00, -1.00, 645.0, 270.0)">U</text><text xml:space="preserve" font-family="SourceSansPro-Light" font-size="36.8" fill="#FEFFFF" transform="matrix(1.00, 0.00, -0.00, -1.00, 667.7, 270.0)">X</text><text xml:space="preserve" font-family="SourceSansPro-Light" font-size="36.8" fill="#FEFFFF" transform="matrix(1.00, 0.00, -0.00, -1.00, 685.1, 270.0)"> </text><text xml:space="preserve" font-family="SourceSansPro-Light" font-size="36.8" fill="#FEFFFF" transform="matrix(1.00, 0.00, -0.00, -1.00, 692.4, 270.0)">D</text><text xml:space="preserve" font-family="SourceSansPro-Light" font-size="36.8" fill="#FEFFFF" transform="matrix(1.00, 0.00, -0.00, -1.00, 714.5, 270.0)">e</text><text xml:space="preserve" font-family="SourceSansPro-Light" font-size="36.8" fill="#FEFFFF" transform="matrix(1.00, 0.00, -0.00, -1.00, 732.2, 270.0)">s</text><text xml:space="preserve" font-family="SourceSansPro-Light" font-size="36.8" fill="#FEFFFF" transform="matrix(1.00, 0.00, -0.00, -1.00, 747.1, 270.0)">i</text><text xml:space="preserve" font-family="SourceSansPro-Light" font-size="36.8" fill="#FEFFFF" transform="matrix(1.00, 0.00, -0.00, -1.00, 755.5, 270.0)">g</text><text xml:space="preserve" font-family="SourceSansPro-Light" font-size="36.8" fill="#FEFFFF" transform="matrix(1.00, 0.00, -0.00, -1.00, 773.4, 270.0)">n</text><text xml:space="preserve" font-family="Helvetica-Light" font-size="18.0" fill="#FEFFFF" transform="matrix(1.00, 0.00, -0.00, -1.00, 506.0, 17.0)">1</text></g></svg>