<?xml version="1.0" encoding="UTF-8" standalone="no"?><svg xmlns="http://www.w3.org/2000/svg" xmlns:xlink="http://www.w3.org/1999/xlink" clip-rule="evenodd" stroke-miterlimit="4.00" viewBox="0 0 1024 768"><desc>SVG generated by Keynote</desc><defs></defs><g transform="matrix(1.00, 0.00, -0.00, -1.00, 0.0, 768.0)"><path d="M 0.0 768.0 L 1024.0 768.0 L 1024.0 0.0 L 0.0 0.0 Z M 0.0 768.0 " fill="#000000"></path><text xml:space="preserve" font-family="Avenir-Light" font-size="25.0" fill="#FEFFFF" transform="matrix(1.00, 0.00, -0.00, -1.00, 36.0, 710.0)">T</text><text xml:space="preserve" font-family="Avenir-Light" font-size="25.0" fill="#FEFFFF" transform="matrix(1.00, 0.00, -0.00, -1.00, 48.0, 710.0)">r</text><text xml:space="preserve" font-family="Avenir-Light" font-size="25.0" fill="#FEFFFF" transform="matrix(1.00, 0.00, -0.00, -1.00, 56.4, 710.0)">a</text><text xml:space="preserve" font-family="Avenir-Light" font-size="25.0" fill="#FEFFFF" transform="matrix(1.00, 0.00, -0.00, -1.00, 69.3, 710.0)">i</text><text xml:space="preserve" font-family="Avenir-Light" font-size="25.0" fill="#FEFFFF" transform="matrix(1.00, 0.00, -0.00, -1.00, 75.3, 710.0)">n</text><text xml:space="preserve" font-family="Avenir-Light" font-size="25.0" fill="#FEFFFF" transform="matrix(1.00, 0.00, -0.00, -1.00, 89.2, 710.0)">e</text><text xml:space="preserve" font-family="Avenir-Light" font-size="25.0" fill="#FEFFFF" transform="matrix(1.00, 0.00, -0.00, -1.00, 103.2, 710.0)">r</text><text xml:space="preserve" font-family="Avenir-Light" font-size="25.0" fill="#FEFFFF" transform="matrix(1.00, 0.00, -0.00, -1.00, 111.5, 710.0)"> </text><text xml:space="preserve" font-family="Avenir-Light" font-size="25.0" fill="#FEFFFF" transform="matrix(1.00, 0.00, -0.00, -1.00, 118.0, 710.0)">o</text><text xml:space="preserve" font-family="Avenir-Light" font-size="25.0" fill="#FEFFFF" transform="matrix(1.00, 0.00, -0.00, -1.00, 132.8, 710.0)">n</text><text xml:space="preserve" font-family="Avenir-Light" font-size="25.0" fill="#FEFFFF" transform="matrix(1.00, 0.00, -0.00, -1.00, 146.7, 710.0)">b</text><text xml:space="preserve" font-family="Avenir-Light" font-size="25.0" fill="#FEFFFF" transform="matrix(1.00, 0.00, -0.00, -1.00, 162.0, 710.0)">o</text><text xml:space="preserve" font-family="Avenir-Light" font-size="25.0" fill="#FEFFFF" transform="matrix(1.00, 0.00, -0.00, -1.00, 176.9, 710.0)">a</text><text xml:space="preserve" font-family="Avenir-Light" font-size="25.0" fill="#FEFFFF" transform="matrix(1.00, 0.00, -0.00, -1.00, 189.8, 710.0)">r</text><text xml:space="preserve" font-family="Avenir-Light" font-size="25.0" fill="#FEFFFF" transform="matrix(1.00, 0.00, -0.00, -1.00, 197.7, 710.0)">d</text><text xml:space="preserve" font-family="Avenir-Light" font-size="25.0" fill="#FEFFFF" transform="matrix(1.00, 0.00, -0.00, -1.00, 213.0, 710.0)">i</text><text xml:space="preserve" font-family="Avenir-Light" font-size="25.0" fill="#FEFFFF" transform="matrix(1.00, 0.00, -0.00, -1.00, 219.0, 710.0)">n</text><text xml:space="preserve" font-family="Avenir-Light" font-size="25.0" fill="#FEFFFF" transform="matrix(1.00, 0.00, -0.00, -1.00, 232.9, 710.0)">g</text><text xml:space="preserve" font-family="Avenir-Light" font-size="25.0" fill="#FEFFFF" transform="matrix(1.00, 0.00, -0.00, -1.00, 248.2, 710.0)"> </text><text xml:space="preserve" font-family="Avenir-Light" font-size="25.0" fill="#FEFFFF" transform="matrix(1.00, 0.00, -0.00, -1.00, 254.7, 710.0)">|</text><text xml:space="preserve" font-family="Avenir-Light" font-size="25.0" fill="#FEFFFF" transform="matrix(1.00, 0.00, -0.00, -1.00, 260.2, 710.0)"> </text><text xml:space="preserve" font-family="Avenir-Black" font-weight="bold" font-size="25.0" fill="#FEFFFF" transform="matrix(1.00, 0.00, -0.00, -1.00, 266.7, 710.0)">V</text><text xml:space="preserve" font-family="Avenir-Black" font-weight="bold" font-size="25.0" fill="#FEFFFF" transform="matrix(1.00, 0.00, -0.00, -1.00, 282.9, 710.0)">a</text><text xml:space="preserve" font-family="Avenir-Black" font-weight="bold" font-size="25.0" fill="#FEFFFF" transform="matrix(1.00, 0.00, -0.00, -1.00, 296.4, 710.0)">l</text><text xml:space="preserve" font-family="Avenir-Black" font-weight="bold" font-size="25.0" fill="#FEFFFF" transform="matrix(1.00, 0.00, -0.00, -1.00, 302.9, 710.0)">i</text><text xml:space="preserve" font-family="Avenir-Black" font-weight="bold" font-size="25.0" fill="#FEFFFF" transform="matrix(1.00, 0.00, -0.00, -1.00, 309.4, 710.0)">d</text><text xml:space="preserve" font-family="Avenir-Black" font-weight="bold" font-size="25.0" fill="#FEFFFF" transform="matrix(1.00, 0.00, -0.00, -1.00, 325.1, 710.0)">a</text><text xml:space="preserve" font-family="Avenir-Black" font-weight="bold" font-size="25.0" fill="#FEFFFF" transform="matrix(1.00, 0.00, -0.00, -1.00, 338.6, 710.0)">t</text><text xml:space="preserve" font-family="Avenir-Black" font-weight="bold" font-size="25.0" fill="#FEFFFF" transform="matrix(1.00, 0.00, -0.00, -1.00, 348.7, 710.0)">i</text><text xml:space="preserve" font-family="Avenir-Black" font-weight="bold" font-size="25.0" fill="#FEFFFF" transform="matrix(1.00, 0.00, -0.00, -1.00, 355.2, 710.0)">o</text><text xml:space="preserve" font-family="Avenir-Black" font-weight="bold" font-size="25.0" fill="#FEFFFF" transform="matrix(1.00, 0.00, -0.00, -1.00, 370.5, 710.0)">n</text><text xml:space="preserve" font-family="Helvetica-Light" font-size="18.0" fill="#FEFFFF" transform="matrix(1.00, 0.00, -0.00, -1.00, 501.0, 17.0)">1</text><text xml:space="preserve" font-family="Helvetica-Light" font-size="18.0" fill="#FEFFFF" transform="matrix(1.00, 0.00, -0.00, -1.00, 511.0, 17.0)">0</text><g><clipPath id="clip-2820"><path d="M 57.0 649.0 L 614.0 649.0 L 614.0 298.0 L 57.0 298.0 Z M 57.1 649.4 "></path></clipPath><g clip-path="url(#clip-2820)"><image xlink:href="../../B46A0917-095F-4A5D-80DB-BF619AD0E4BC/assets/AA94E3244737AB9E800BB50FF84207A1.png" width="558.00" height="379.00" transform="matrix(1.00, 0.00, -0.00, -1.00, 57.0, 676.0)"></image></g></g><image xlink:href="../../B46A0917-095F-4A5D-80DB-BF619AD0E4BC/assets/819D6615C4C851CDE11D095B49159781.png" width="558.00" height="348.00" transform="matrix(1.00, 0.00, -0.00, -1.00, 410.0, 426.0)"></image></g></svg>