<?xml version="1.0" encoding="UTF-8" standalone="no"?><svg xmlns="http://www.w3.org/2000/svg" xmlns:xlink="http://www.w3.org/1999/xlink" clip-rule="evenodd" stroke-miterlimit="10" viewBox="0 0 1024 768"><desc>SVG generated by Keynote</desc><defs></defs><g transform="matrix(1.00, 0.00, -0.00, -1.00, 0.0, 768.0)"><path d="M 0.0 768.0 L 1024.0 768.0 L 1024.0 0.0 L 0.0 0.0 Z M 0.0 768.0 " fill="#000000"></path><text xml:space="preserve" font-family="SourceSansPro-Light,Source Sans Pro" font-size="28.5" fill="#FEFFFF" transform="matrix(1.00, 0.00, -0.00, -1.00, 79.0, 306.3)">•</text><text xml:space="preserve" font-family="SourceSansPro-Light,Source Sans Pro" font-size="38.0" fill="#FEFFFF" transform="matrix(1.00, 0.00, -0.00, -1.00, 114.0, 303.4)">O</text><text xml:space="preserve" font-family="SourceSansPro-Light,Source Sans Pro" font-size="38.0" fill="#FEFFFF" transform="matrix(1.00, 0.00, -0.00, -1.00, 138.5, 303.4)">n</text><text xml:space="preserve" font-family="SourceSansPro-Light,Source Sans Pro" font-size="38.0" fill="#FEFFFF" transform="matrix(1.00, 0.00, -0.00, -1.00, 158.7, 303.4)">b</text><text xml:space="preserve" font-family="SourceSansPro-Light,Source Sans Pro" font-size="38.0" fill="#FEFFFF" transform="matrix(1.00, 0.00, -0.00, -1.00, 179.4, 303.4)">o</text><text xml:space="preserve" font-family="SourceSansPro-Light,Source Sans Pro" font-size="38.0" fill="#FEFFFF" transform="matrix(1.00, 0.00, -0.00, -1.00, 199.2, 303.4)">a</text><text xml:space="preserve" font-family="SourceSansPro-Light,Source Sans Pro" font-size="38.0" fill="#FEFFFF" transform="matrix(1.00, 0.00, -0.00, -1.00, 218.1, 303.4)">r</text><text xml:space="preserve" font-family="SourceSansPro-Light,Source Sans Pro" font-size="38.0" fill="#FEFFFF" transform="matrix(1.00, 0.00, -0.00, -1.00, 229.8, 303.4)">d</text><text xml:space="preserve" font-family="SourceSansPro-Light,Source Sans Pro" font-size="38.0" fill="#FEFFFF" transform="matrix(1.00, 0.00, -0.00, -1.00, 250.5, 303.4)">i</text><text xml:space="preserve" font-family="SourceSansPro-Light,Source Sans Pro" font-size="38.0" fill="#FEFFFF" transform="matrix(1.00, 0.00, -0.00, -1.00, 259.2, 303.4)">n</text><text xml:space="preserve" font-family="SourceSansPro-Light,Source Sans Pro" font-size="38.0" fill="#FEFFFF" transform="matrix(1.00, 0.00, -0.00, -1.00, 279.4, 303.4)">g</text><text xml:space="preserve" font-family="SourceSansPro-Light,Source Sans Pro" font-size="38.0" fill="#FEFFFF" transform="matrix(1.00, 0.00, -0.00, -1.00, 297.9, 303.4)"> </text><text xml:space="preserve" font-family="SourceSansPro-Light,Source Sans Pro" font-size="38.0" fill="#FEFFFF" transform="matrix(1.00, 0.00, -0.00, -1.00, 305.4, 303.4)">e</text><text xml:space="preserve" font-family="SourceSansPro-Light,Source Sans Pro" font-size="38.0" fill="#FEFFFF" transform="matrix(1.00, 0.00, -0.00, -1.00, 323.8, 303.4)">x</text><text xml:space="preserve" font-family="SourceSansPro-Light,Source Sans Pro" font-size="38.0" fill="#FEFFFF" transform="matrix(1.00, 0.00, -0.00, -1.00, 339.3, 303.4)">p</text><text xml:space="preserve" font-family="SourceSansPro-Light,Source Sans Pro" font-size="38.0" fill="#FEFFFF" transform="matrix(1.00, 0.00, -0.00, -1.00, 359.9, 303.4)">l</text><text xml:space="preserve" font-family="SourceSansPro-Light,Source Sans Pro" font-size="38.0" fill="#FEFFFF" transform="matrix(1.00, 0.00, -0.00, -1.00, 368.9, 303.4)">o</text><text xml:space="preserve" font-family="SourceSansPro-Light,Source Sans Pro" font-size="38.0" fill="#FEFFFF" transform="matrix(1.00, 0.00, -0.00, -1.00, 389.3, 303.4)">r</text><text xml:space="preserve" font-family="SourceSansPro-Light,Source Sans Pro" font-size="38.0" fill="#FEFFFF" transform="matrix(1.00, 0.00, -0.00, -1.00, 400.4, 303.4)">a</text><text xml:space="preserve" font-family="SourceSansPro-Light,Source Sans Pro" font-size="38.0" fill="#FEFFFF" transform="matrix(1.00, 0.00, -0.00, -1.00, 419.4, 303.4)">t</text><text xml:space="preserve" font-family="SourceSansPro-Light,Source Sans Pro" font-size="38.0" fill="#FEFFFF" transform="matrix(1.00, 0.00, -0.00, -1.00, 431.3, 303.4)">i</text><text xml:space="preserve" font-family="SourceSansPro-Light,Source Sans Pro" font-size="38.0" fill="#FEFFFF" transform="matrix(1.00, 0.00, -0.00, -1.00, 440.0, 303.4)">o</text><text xml:space="preserve" font-family="SourceSansPro-Light,Source Sans Pro" font-size="38.0" fill="#FEFFFF" transform="matrix(1.00, 0.00, -0.00, -1.00, 460.3, 303.4)">n</text><text xml:space="preserve" font-family="SourceSansPro-Light,Source Sans Pro" font-size="38.0" fill="#FEFFFF" transform="matrix(1.00, 0.00, -0.00, -1.00, 480.5, 303.4)">s</text><text xml:space="preserve" font-family="Helvetica-Light,Helvetica" font-size="18.0" fill="#FEFFFF" transform="matrix(1.00, 0.00, -0.00, -1.00, 506.5, 17.1)">3</text></g></svg>