<?xml version="1.0" encoding="UTF-8" standalone="no"?><svg xmlns="http://www.w3.org/2000/svg" xmlns:xlink="http://www.w3.org/1999/xlink" clip-rule="evenodd" stroke-miterlimit="4.00" viewBox="0 0 1024 768"><desc>SVG generated by Keynote</desc><defs></defs><g transform="matrix(1.00, 0.00, -0.00, -1.00, 0.0, 768.0)"><path d="M 0.0 768.0 L 1024.0 768.0 L 1024.0 0.0 L 0.0 0.0 Z M 0.0 768.0 " fill="#000000"></path><image xlink:href="8F40C6E8DA1A1D08E91CCA4BF981F78B.png" width="881.00" height="540.00" transform="matrix(1.35, 0.00, -0.00, -1.35, -65.0, 729.0)"></image><text xml:space="preserve" font-family="Helvetica-Light" font-size="18.0" fill="#FEFFFF" transform="matrix(1.00, 0.00, -0.00, -1.00, 501.0, 17.0)">1</text><text xml:space="preserve" font-family="Helvetica-Light" font-size="18.0" fill="#FEFFFF" transform="matrix(1.00, 0.00, -0.00, -1.00, 511.0, 17.0)">6</text><text xml:space="preserve" font-family="Avenir-Light" font-size="25.0" fill="#FEFFFF" transform="matrix(1.00, 0.00, -0.00, -1.00, 36.0, 710.0)">O</text><text xml:space="preserve" font-family="Avenir-Light" font-size="25.0" fill="#FEFFFF" transform="matrix(1.00, 0.00, -0.00, -1.00, 56.9, 710.0)">t</text><text xml:space="preserve" font-family="Avenir-Light" font-size="25.0" fill="#FEFFFF" transform="matrix(1.00, 0.00, -0.00, -1.00, 65.2, 710.0)">h</text><text xml:space="preserve" font-family="Avenir-Light" font-size="25.0" fill="#FEFFFF" transform="matrix(1.00, 0.00, -0.00, -1.00, 79.1, 710.0)">e</text><text xml:space="preserve" font-family="Avenir-Light" font-size="25.0" fill="#FEFFFF" transform="matrix(1.00, 0.00, -0.00, -1.00, 93.0, 710.0)">r</text><text xml:space="preserve" font-family="Avenir-Light" font-size="25.0" fill="#FEFFFF" transform="matrix(1.00, 0.00, -0.00, -1.00, 101.3, 710.0)"> </text><text xml:space="preserve" font-family="Avenir-Light" font-size="25.0" fill="#FEFFFF" transform="matrix(1.00, 0.00, -0.00, -1.00, 107.8, 710.0)">w</text><text xml:space="preserve" font-family="Avenir-Light" font-size="25.0" fill="#FEFFFF" transform="matrix(1.00, 0.00, -0.00, -1.00, 125.4, 710.0)">o</text><text xml:space="preserve" font-family="Avenir-Light" font-size="25.0" fill="#FEFFFF" transform="matrix(1.00, 0.00, -0.00, -1.00, 140.3, 710.0)">r</text><text xml:space="preserve" font-family="Avenir-Light" font-size="25.0" fill="#FEFFFF" transform="matrix(1.00, 0.00, -0.00, -1.00, 148.6, 710.0)">k</text><text xml:space="preserve" font-family="Avenir-Light" font-size="25.0" fill="#FEFFFF" transform="matrix(1.00, 0.00, -0.00, -1.00, 160.6, 710.0)">s</text><text xml:space="preserve" font-family="Avenir-Light" font-size="25.0" fill="#FEFFFF" transform="matrix(1.00, 0.00, -0.00, -1.00, 171.3, 710.0)"> </text><text xml:space="preserve" font-family="Avenir-Light" font-size="25.0" fill="#FEFFFF" transform="matrix(1.00, 0.00, -0.00, -1.00, 177.8, 710.0)">|</text><text xml:space="preserve" font-family="Avenir-Light" font-size="25.0" fill="#FEFFFF" transform="matrix(1.00, 0.00, -0.00, -1.00, 183.3, 710.0)"> </text><text xml:space="preserve" font-family="Avenir-Black" font-weight="bold" font-size="25.0" fill="#FEFFFF" transform="matrix(1.00, 0.00, -0.00, -1.00, 189.8, 710.0)">G</text><text xml:space="preserve" font-family="Avenir-Black" font-weight="bold" font-size="25.0" fill="#FEFFFF" transform="matrix(1.00, 0.00, -0.00, -1.00, 209.3, 710.0)">r</text><text xml:space="preserve" font-family="Avenir-Black" font-weight="bold" font-size="25.0" fill="#FEFFFF" transform="matrix(1.00, 0.00, -0.00, -1.00, 219.5, 710.0)">a</text><text xml:space="preserve" font-family="Avenir-Black" font-weight="bold" font-size="25.0" fill="#FEFFFF" transform="matrix(1.00, 0.00, -0.00, -1.00, 232.9, 710.0)">p</text><text xml:space="preserve" font-family="Avenir-Black" font-weight="bold" font-size="25.0" fill="#FEFFFF" transform="matrix(1.00, 0.00, -0.00, -1.00, 248.6, 710.0)">h</text><text xml:space="preserve" font-family="Avenir-Black" font-weight="bold" font-size="25.0" fill="#FEFFFF" transform="matrix(1.00, 0.00, -0.00, -1.00, 263.0, 710.0)">i</text><text xml:space="preserve" font-family="Avenir-Black" font-weight="bold" font-size="25.0" fill="#FEFFFF" transform="matrix(1.00, 0.00, -0.00, -1.00, 269.5, 710.0)">c</text><text xml:space="preserve" font-family="Avenir-Black" font-weight="bold" font-size="25.0" fill="#FEFFFF" transform="matrix(1.00, 0.00, -0.00, -1.00, 281.5, 710.0)"> </text><text xml:space="preserve" font-family="Avenir-Black" font-weight="bold" font-size="25.0" fill="#FEFFFF" transform="matrix(1.00, 0.00, -0.00, -1.00, 288.9, 710.0)">c</text><text xml:space="preserve" font-family="Avenir-Black" font-weight="bold" font-size="25.0" fill="#FEFFFF" transform="matrix(1.00, 0.00, -0.00, -1.00, 301.0, 710.0)">r</text><text xml:space="preserve" font-family="Avenir-Black" font-weight="bold" font-size="25.0" fill="#FEFFFF" transform="matrix(1.00, 0.00, -0.00, -1.00, 310.7, 710.0)">e</text><text xml:space="preserve" font-family="Avenir-Black" font-weight="bold" font-size="25.0" fill="#FEFFFF" transform="matrix(1.00, 0.00, -0.00, -1.00, 325.1, 710.0)">a</text><text xml:space="preserve" font-family="Avenir-Black" font-weight="bold" font-size="25.0" fill="#FEFFFF" transform="matrix(1.00, 0.00, -0.00, -1.00, 338.5, 710.0)">t</text><text xml:space="preserve" font-family="Avenir-Black" font-weight="bold" font-size="25.0" fill="#FEFFFF" transform="matrix(1.00, 0.00, -0.00, -1.00, 348.7, 710.0)">i</text><text xml:space="preserve" font-family="Avenir-Black" font-weight="bold" font-size="25.0" fill="#FEFFFF" transform="matrix(1.00, 0.00, -0.00, -1.00, 355.2, 710.0)">o</text><text xml:space="preserve" font-family="Avenir-Black" font-weight="bold" font-size="25.0" fill="#FEFFFF" transform="matrix(1.00, 0.00, -0.00, -1.00, 370.4, 710.0)">n</text></g></svg>