<?xml version="1.0" encoding="UTF-8" standalone="no"?><svg xmlns="http://www.w3.org/2000/svg" xmlns:xlink="http://www.w3.org/1999/xlink" clip-rule="evenodd" stroke-miterlimit="10" viewBox="0 0 402 72"><desc>SVG generated by Keynote</desc><defs></defs><g transform="matrix(1.00, 0.00, -0.00, -1.00, 0.0, 72.0)"><text xml:space="preserve" font-family="SourceSansPro-Light,Source Sans Pro" font-size="75.0" fill="#54A3EA" transform="matrix(1.00, 0.00, -0.00, -1.00, -1.6, 19.1)">J</text><text xml:space="preserve" font-family="SourceSansPro-Light,Source Sans Pro" font-size="75.0" fill="#54A3EA" transform="matrix(1.00, 0.00, -0.00, -1.00, 32.5, 19.1)">e</text><text xml:space="preserve" font-family="SourceSansPro-Light,Source Sans Pro" font-size="75.0" fill="#54A3EA" transform="matrix(1.00, 0.00, -0.00, -1.00, 68.8, 19.1)">s</text><text xml:space="preserve" font-family="SourceSansPro-Light,Source Sans Pro" font-size="75.0" fill="#54A3EA" transform="matrix(1.00, 0.00, -0.00, -1.00, 99.1, 19.1)">s</text><text xml:space="preserve" font-family="SourceSansPro-Light,Source Sans Pro" font-size="75.0" fill="#54A3EA" transform="matrix(1.00, 0.00, -0.00, -1.00, 129.5, 19.1)">i</text><text xml:space="preserve" font-family="SourceSansPro-Light,Source Sans Pro" font-size="75.0" fill="#54A3EA" transform="matrix(1.00, 0.00, -0.00, -1.00, 146.7, 19.1)">c</text><text xml:space="preserve" font-family="SourceSansPro-Light,Source Sans Pro" font-size="75.0" fill="#54A3EA" transform="matrix(1.00, 0.00, -0.00, -1.00, 179.6, 19.1)">a</text><text xml:space="preserve" font-family="SourceSansPro-Light,Source Sans Pro" font-size="75.0" fill="#FEFFFF" transform="matrix(1.00, 0.00, -0.00, -1.00, 217.0, 19.1)"> </text><text xml:space="preserve" font-family="SourceSansPro-Light,Source Sans Pro" font-size="75.0" fill="#FEFFFF" transform="matrix(1.00, 0.00, -0.00, -1.00, 232.0, 19.1)">W</text><text xml:space="preserve" font-family="SourceSansPro-Light,Source Sans Pro" font-size="75.0" fill="#FEFFFF" transform="matrix(1.00, 0.00, -0.00, -1.00, 287.8, 19.1)">a</text><text xml:space="preserve" font-family="SourceSansPro-Light,Source Sans Pro" font-size="75.0" fill="#FEFFFF" transform="matrix(1.00, 0.00, -0.00, -1.00, 325.2, 19.1)">n</text><text xml:space="preserve" font-family="SourceSansPro-Light,Source Sans Pro" font-size="75.0" fill="#FEFFFF" transform="matrix(1.00, 0.00, -0.00, -1.00, 365.1, 19.1)">g</text></g></svg>