<?xml version="1.0" encoding="UTF-8" standalone="no"?><svg xmlns="http://www.w3.org/2000/svg" xmlns:xlink="http://www.w3.org/1999/xlink" clip-rule="evenodd" stroke-miterlimit="4.00" viewBox="0 0 1024 768"><desc>SVG generated by Keynote</desc><defs></defs><g transform="matrix(1.00, 0.00, -0.00, -1.00, 0.0, 768.0)"><path d="M 0.0 768.0 L 1024.0 768.0 L 1024.0 0.0 L 0.0 0.0 Z M 0.0 768.0 " fill="#000000"></path><g><clipPath id="clip-1675"><path d="M 663.0 699.0 L 1038.0 699.0 L 1038.0 581.0 L 663.0 581.0 Z M 663.5 698.6 "></path></clipPath><g clip-path="url(#clip-1675)"><image xlink:href="../../A7AFFEE3-F833-4F77-9F01-1049FF055917/assets/6CE51A18BD56398DBA120CDD26696DC5.png" width="563.00" height="133.00" transform="matrix(1.00, 0.00, -0.00, -1.00, 663.0, 717.0)"></image></g></g><text xml:space="preserve" font-family="Helvetica-Light" font-size="18.0" fill="#FEFFFF" transform="matrix(1.00, 0.00, -0.00, -1.00, 506.0, 17.0)">8</text><text xml:space="preserve" font-family="Avenir-Light" font-size="25.0" fill="#FEFFFF" transform="matrix(1.00, 0.00, -0.00, -1.00, 36.0, 710.0)">T</text><text xml:space="preserve" font-family="Avenir-Light" font-size="25.0" fill="#FEFFFF" transform="matrix(1.00, 0.00, -0.00, -1.00, 48.0, 710.0)">r</text><text xml:space="preserve" font-family="Avenir-Light" font-size="25.0" fill="#FEFFFF" transform="matrix(1.00, 0.00, -0.00, -1.00, 56.4, 710.0)">a</text><text xml:space="preserve" font-family="Avenir-Light" font-size="25.0" fill="#FEFFFF" transform="matrix(1.00, 0.00, -0.00, -1.00, 69.3, 710.0)">i</text><text xml:space="preserve" font-family="Avenir-Light" font-size="25.0" fill="#FEFFFF" transform="matrix(1.00, 0.00, -0.00, -1.00, 75.3, 710.0)">n</text><text xml:space="preserve" font-family="Avenir-Light" font-size="25.0" fill="#FEFFFF" transform="matrix(1.00, 0.00, -0.00, -1.00, 89.2, 710.0)">e</text><text xml:space="preserve" font-family="Avenir-Light" font-size="25.0" fill="#FEFFFF" transform="matrix(1.00, 0.00, -0.00, -1.00, 103.2, 710.0)">r</text><text xml:space="preserve" font-family="Avenir-Light" font-size="25.0" fill="#FEFFFF" transform="matrix(1.00, 0.00, -0.00, -1.00, 111.5, 710.0)"> </text><text xml:space="preserve" font-family="Avenir-Light" font-size="25.0" fill="#FEFFFF" transform="matrix(1.00, 0.00, -0.00, -1.00, 118.0, 710.0)">o</text><text xml:space="preserve" font-family="Avenir-Light" font-size="25.0" fill="#FEFFFF" transform="matrix(1.00, 0.00, -0.00, -1.00, 132.8, 710.0)">n</text><text xml:space="preserve" font-family="Avenir-Light" font-size="25.0" fill="#FEFFFF" transform="matrix(1.00, 0.00, -0.00, -1.00, 146.7, 710.0)">b</text><text xml:space="preserve" font-family="Avenir-Light" font-size="25.0" fill="#FEFFFF" transform="matrix(1.00, 0.00, -0.00, -1.00, 162.0, 710.0)">o</text><text xml:space="preserve" font-family="Avenir-Light" font-size="25.0" fill="#FEFFFF" transform="matrix(1.00, 0.00, -0.00, -1.00, 176.9, 710.0)">a</text><text xml:space="preserve" font-family="Avenir-Light" font-size="25.0" fill="#FEFFFF" transform="matrix(1.00, 0.00, -0.00, -1.00, 189.8, 710.0)">r</text><text xml:space="preserve" font-family="Avenir-Light" font-size="25.0" fill="#FEFFFF" transform="matrix(1.00, 0.00, -0.00, -1.00, 197.7, 710.0)">d</text><text xml:space="preserve" font-family="Avenir-Light" font-size="25.0" fill="#FEFFFF" transform="matrix(1.00, 0.00, -0.00, -1.00, 213.0, 710.0)">i</text><text xml:space="preserve" font-family="Avenir-Light" font-size="25.0" fill="#FEFFFF" transform="matrix(1.00, 0.00, -0.00, -1.00, 219.0, 710.0)">n</text><text xml:space="preserve" font-family="Avenir-Light" font-size="25.0" fill="#FEFFFF" transform="matrix(1.00, 0.00, -0.00, -1.00, 232.9, 710.0)">g</text><text xml:space="preserve" font-family="Avenir-Light" font-size="25.0" fill="#FEFFFF" transform="matrix(1.00, 0.00, -0.00, -1.00, 248.2, 710.0)"> </text><text xml:space="preserve" font-family="Avenir-Light" font-size="25.0" fill="#FEFFFF" transform="matrix(1.00, 0.00, -0.00, -1.00, 254.7, 710.0)">|</text><text xml:space="preserve" font-family="Avenir-Light" font-size="25.0" fill="#FEFFFF" transform="matrix(1.00, 0.00, -0.00, -1.00, 260.2, 710.0)"> </text><text xml:space="preserve" font-family="Avenir-Black" font-weight="bold" font-size="25.0" fill="#FEFFFF" transform="matrix(1.00, 0.00, -0.00, -1.00, 266.7, 710.0)">D</text><text xml:space="preserve" font-family="Avenir-Black" font-weight="bold" font-size="25.0" fill="#FEFFFF" transform="matrix(1.00, 0.00, -0.00, -1.00, 285.7, 710.0)">e</text><text xml:space="preserve" font-family="Avenir-Black" font-weight="bold" font-size="25.0" fill="#FEFFFF" transform="matrix(1.00, 0.00, -0.00, -1.00, 300.1, 710.0)">s</text><text xml:space="preserve" font-family="Avenir-Black" font-weight="bold" font-size="25.0" fill="#FEFFFF" transform="matrix(1.00, 0.00, -0.00, -1.00, 311.6, 710.0)">i</text><text xml:space="preserve" font-family="Avenir-Black" font-weight="bold" font-size="25.0" fill="#FEFFFF" transform="matrix(1.00, 0.00, -0.00, -1.00, 318.1, 710.0)">g</text><text xml:space="preserve" font-family="Avenir-Black" font-weight="bold" font-size="25.0" fill="#FEFFFF" transform="matrix(1.00, 0.00, -0.00, -1.00, 333.9, 710.0)">n</text><text xml:space="preserve" font-family="Avenir-Black" font-weight="bold" font-size="25.0" fill="#FEFFFF" transform="matrix(1.00, 0.00, -0.00, -1.00, 348.2, 710.0)"> </text><text xml:space="preserve" font-family="Avenir-Black" font-weight="bold" font-size="25.0" fill="#FEFFFF" transform="matrix(1.00, 0.00, -0.00, -1.00, 355.6, 710.0)">p</text><text xml:space="preserve" font-family="Avenir-Black" font-weight="bold" font-size="25.0" fill="#FEFFFF" transform="matrix(1.00, 0.00, -0.00, -1.00, 371.4, 710.0)">h</text><text xml:space="preserve" font-family="Avenir-Black" font-weight="bold" font-size="25.0" fill="#FEFFFF" transform="matrix(1.00, 0.00, -0.00, -1.00, 385.7, 710.0)">a</text><text xml:space="preserve" font-family="Avenir-Black" font-weight="bold" font-size="25.0" fill="#FEFFFF" transform="matrix(1.00, 0.00, -0.00, -1.00, 399.2, 710.0)">s</text><text xml:space="preserve" font-family="Avenir-Black" font-weight="bold" font-size="25.0" fill="#FEFFFF" transform="matrix(1.00, 0.00, -0.00, -1.00, 410.7, 710.0)">e</text><text xml:space="preserve" font-family="Avenir-Black" font-weight="bold" font-size="25.0" fill="#FEFFFF" transform="matrix(1.00, 0.00, -0.00, -1.00, 425.1, 710.0)"> </text><text xml:space="preserve" font-family="Avenir-Black" font-weight="bold" font-size="25.0" fill="#FEFFFF" transform="matrix(1.00, 0.00, -0.00, -1.00, 432.5, 710.0)">1</text><text xml:space="preserve" font-family="Avenir-Black" font-weight="bold" font-size="25.0" fill="#FEFFFF" transform="matrix(1.00, 0.00, -0.00, -1.00, 447.3, 710.0)">:</text><text xml:space="preserve" font-family="Avenir-Black" font-weight="bold" font-size="25.0" fill="#FEFFFF" transform="matrix(1.00, 0.00, -0.00, -1.00, 454.7, 710.0)"> </text><text xml:space="preserve" font-family="Avenir-Black" font-weight="bold" font-size="25.0" fill="#FEFFFF" transform="matrix(1.00, 0.00, -0.00, -1.00, 462.1, 710.0)">e</text><text xml:space="preserve" font-family="Avenir-Black" font-weight="bold" font-size="25.0" fill="#FEFFFF" transform="matrix(1.00, 0.00, -0.00, -1.00, 476.4, 710.0)">x</text><text xml:space="preserve" font-family="Avenir-Black" font-weight="bold" font-size="25.0" fill="#FEFFFF" transform="matrix(1.00, 0.00, -0.00, -1.00, 490.3, 710.0)">p</text><text xml:space="preserve" font-family="Avenir-Black" font-weight="bold" font-size="25.0" fill="#FEFFFF" transform="matrix(1.00, 0.00, -0.00, -1.00, 506.1, 710.0)">l</text><text xml:space="preserve" font-family="Avenir-Black" font-weight="bold" font-size="25.0" fill="#FEFFFF" transform="matrix(1.00, 0.00, -0.00, -1.00, 512.6, 710.0)">o</text><text xml:space="preserve" font-family="Avenir-Black" font-weight="bold" font-size="25.0" fill="#FEFFFF" transform="matrix(1.00, 0.00, -0.00, -1.00, 527.8, 710.0)">r</text><text xml:space="preserve" font-family="Avenir-Black" font-weight="bold" font-size="25.0" fill="#FEFFFF" transform="matrix(1.00, 0.00, -0.00, -1.00, 538.0, 710.0)">a</text><text xml:space="preserve" font-family="Avenir-Black" font-weight="bold" font-size="25.0" fill="#FEFFFF" transform="matrix(1.00, 0.00, -0.00, -1.00, 551.4, 710.0)">t</text><text xml:space="preserve" font-family="Avenir-Black" font-weight="bold" font-size="25.0" fill="#FEFFFF" transform="matrix(1.00, 0.00, -0.00, -1.00, 561.6, 710.0)">i</text><text xml:space="preserve" font-family="Avenir-Black" font-weight="bold" font-size="25.0" fill="#FEFFFF" transform="matrix(1.00, 0.00, -0.00, -1.00, 568.1, 710.0)">o</text><text xml:space="preserve" font-family="Avenir-Black" font-weight="bold" font-size="25.0" fill="#FEFFFF" transform="matrix(1.00, 0.00, -0.00, -1.00, 583.3, 710.0)">n</text><text xml:space="preserve" font-family="Avenir-Black" font-weight="bold" font-size="25.0" fill="#FEFFFF" transform="matrix(1.00, 0.00, -0.00, -1.00, 597.7, 710.0)">s</text><image xlink:href="../../A7AFFEE3-F833-4F77-9F01-1049FF055917/assets/50E05A4EA11F0E72D4D0D57EF6BCA4AC.png" width="287.00" height="191.00" transform="matrix(1.00, 0.00, -0.00, -1.00, 538.0, 608.0)"></image><g><clipPath id="clip-1676"><path d="M 187.0 423.0 L 449.0 423.0 L 449.0 266.0 L 187.0 266.0 Z M 187.3 423.2 "></path></clipPath><g clip-path="url(#clip-1676)"><image xlink:href="../../A7AFFEE3-F833-4F77-9F01-1049FF055917/assets/A9D5EA2D4754488597EE2BB5FB9F7B8A.png" width="262.00" height="188.00" transform="matrix(1.00, 0.00, -0.00, -1.00, 187.0, 454.0)"></image></g></g><g><clipPath id="clip-1677"><path d="M 478.0 423.0 L 739.0 423.0 L 739.0 266.0 L 478.0 266.0 Z M 478.2 423.2 "></path></clipPath><g clip-path="url(#clip-1677)"><image xlink:href="../../A7AFFEE3-F833-4F77-9F01-1049FF055917/assets/3EA1E674F7E1A0D602704D4856E928B1.png" width="262.00" height="188.00" transform="matrix(1.00, 0.00, -0.00, -1.00, 478.0, 454.0)"></image></g></g><g><clipPath id="clip-1678"><path d="M 23.7 -44.3 L 502.7 -44.3 L 502.7 239.4 L 23.7 239.4 Z M 23.7 -44.3 "></path></clipPath><g clip-path="url(#clip-1678)"><image xlink:href="../../A7AFFEE3-F833-4F77-9F01-1049FF055917/assets/AB0C04B613ECACC935B43DAC125CEF54.png" width="480.00" height="284.00" transform="matrix(1.00, 0.00, -0.00, -1.00, 24.0, 239.0)"></image></g></g><g><clipPath id="clip-1679"><path d="M 549.0 -44.3 L 1028.0 -44.3 L 1028.0 239.4 L 549.0 239.4 Z M 549.0 -44.3 "></path></clipPath><g clip-path="url(#clip-1679)"><image xlink:href="../../A7AFFEE3-F833-4F77-9F01-1049FF055917/assets/7B2E7BF21CE6873B5C85685CA0076842.png" width="480.00" height="284.00" transform="matrix(1.00, 0.00, -0.00, -1.00, 549.0, 239.0)"></image></g></g><g><clipPath id="clip-1680"><path d="M 800.0 582.0 L 1044.0 582.0 L 1044.0 443.0 L 800.0 443.0 Z M 800.3 581.6 "></path></clipPath><g clip-path="url(#clip-1680)"><image xlink:href="../../A7AFFEE3-F833-4F77-9F01-1049FF055917/assets/8D1029BB613FCFB5DB5BF1E6592A3B5B.png" width="624.00" height="438.00" transform="matrix(1.00, 0.00, -0.00, -1.00, 421.0, 726.0)"></image></g></g><g><clipPath id="clip-1681"><path d="M 769.0 423.0 L 1029.0 423.0 L 1029.0 266.0 L 769.0 266.0 Z M 768.9 423.2 "></path></clipPath><g clip-path="url(#clip-1681)"><image xlink:href="../../A7AFFEE3-F833-4F77-9F01-1049FF055917/assets/E673F5ED31A03010BBF0209CA548B687.png" width="261.00" height="188.00" transform="matrix(1.00, 0.00, -0.00, -1.00, 769.0, 454.0)"></image></g></g></g></svg>