<?xml version="1.0" encoding="UTF-8" standalone="no"?><svg xmlns="http://www.w3.org/2000/svg" xmlns:xlink="http://www.w3.org/1999/xlink" clip-rule="evenodd" stroke-miterlimit="10" viewBox="0 0 1024 768"><desc>SVG generated by Keynote</desc><defs></defs><g transform="matrix(1.00, 0.00, -0.00, -1.00, 0.0, 768.0)"><path d="M 0.0 768.0 L 1024.0 768.0 L 1024.0 0.0 L 0.0 0.0 Z M 0.0 768.0 " fill="#000000"></path><image xlink:href="../../F88F96C7-C66F-4CD5-9CBD-A79549AD22BC/assets/4AE404D260D139AC3E7E0319AD955011.png" width="1440.00" height="863.00" transform="matrix(0.49, 0.00, -0.00, -0.49, 1.0, 768.0)"></image><image xlink:href="../../F88F96C7-C66F-4CD5-9CBD-A79549AD22BC/assets/F60D8F7EB04E721A5BA972FD213B8DD5.png" width="1440.00" height="861.00" transform="matrix(0.28, 0.00, -0.00, -0.28, 395.0, 395.0)"></image><image xlink:href="../../F88F96C7-C66F-4CD5-9CBD-A79549AD22BC/assets/FC8C8FF81BFC6FA3895114EDC56EE7DE.png" width="1440.00" height="861.00" transform="matrix(0.28, 0.00, -0.00, -0.28, 681.0, 595.0)"></image><image xlink:href="../../F88F96C7-C66F-4CD5-9CBD-A79549AD22BC/assets/01280C0FFC462CD587598E0949606C9C.png" width="1440.00" height="863.00" transform="matrix(0.29, 0.00, -0.00, -0.29, 91.0, 229.0)"></image><text xml:space="preserve" font-family="Helvetica-Light,Helvetica" font-size="18.0" fill="#FEFFFF" transform="matrix(1.00, 0.00, -0.00, -1.00, 501.5, 17.1)">1</text><text xml:space="preserve" font-family="Helvetica-Light,Helvetica" font-size="18.0" fill="#FEFFFF" transform="matrix(1.00, 0.00, -0.00, -1.00, 511.5, 17.1)">1</text></g></svg>