<?xml version="1.0" encoding="UTF-8" standalone="no"?><svg xmlns="http://www.w3.org/2000/svg" xmlns:xlink="http://www.w3.org/1999/xlink" clip-rule="evenodd" stroke-miterlimit="4.00" viewBox="0 0 1024 768"><desc>SVG generated by Keynote</desc><defs></defs><g transform="matrix(1.00, 0.00, -0.00, -1.00, 0.0, 768.0)"><path d="M 0.0 768.0 L 1024.0 768.0 L 1024.0 0.0 L 0.0 0.0 Z M 0.0 768.0 " fill="#000000"></path><text xml:space="preserve" font-family="SourceSansPro-Light" font-size="40.0" fill="#FEFFFF" transform="matrix(1.00, 0.00, -0.00, -1.00, 238.0, 369.0)">S</text><text xml:space="preserve" font-family="SourceSansPro-Light" font-size="40.0" fill="#FEFFFF" transform="matrix(1.00, 0.00, -0.00, -1.00, 258.6, 369.0)">o</text><text xml:space="preserve" font-family="SourceSansPro-Light" font-size="40.0" fill="#FEFFFF" transform="matrix(1.00, 0.00, -0.00, -1.00, 280.0, 369.0)">m</text><text xml:space="preserve" font-family="SourceSansPro-Light" font-size="40.0" fill="#FEFFFF" transform="matrix(1.00, 0.00, -0.00, -1.00, 312.4, 369.0)">e</text><text xml:space="preserve" font-family="SourceSansPro-Light" font-size="40.0" fill="#FEFFFF" transform="matrix(1.00, 0.00, -0.00, -1.00, 331.8, 369.0)"> </text><text xml:space="preserve" font-family="SourceSansPro-Light" font-size="40.0" fill="#FEFFFF" transform="matrix(1.00, 0.00, -0.00, -1.00, 339.7, 369.0)">o</text><text xml:space="preserve" font-family="SourceSansPro-Light" font-size="40.0" fill="#FEFFFF" transform="matrix(1.00, 0.00, -0.00, -1.00, 361.1, 369.0)">t</text><text xml:space="preserve" font-family="SourceSansPro-Light" font-size="40.0" fill="#FEFFFF" transform="matrix(1.00, 0.00, -0.00, -1.00, 373.6, 369.0)">h</text><text xml:space="preserve" font-family="SourceSansPro-Light" font-size="40.0" fill="#FEFFFF" transform="matrix(1.00, 0.00, -0.00, -1.00, 394.7, 369.0)">e</text><text xml:space="preserve" font-family="SourceSansPro-Light" font-size="40.0" fill="#FEFFFF" transform="matrix(1.00, 0.00, -0.00, -1.00, 414.0, 369.0)">r</text><text xml:space="preserve" font-family="SourceSansPro-Light" font-size="40.0" fill="#FEFFFF" transform="matrix(1.00, 0.00, -0.00, -1.00, 426.7, 369.0)"> </text><text xml:space="preserve" font-family="SourceSansPro-Light" font-size="40.0" fill="#FEFFFF" transform="matrix(1.00, 0.00, -0.00, -1.00, 434.7, 369.0)">w</text><text xml:space="preserve" font-family="SourceSansPro-Light" font-size="40.0" fill="#FEFFFF" transform="matrix(1.00, 0.00, -0.00, -1.00, 462.1, 369.0)">o</text><text xml:space="preserve" font-family="SourceSansPro-Light" font-size="40.0" fill="#FEFFFF" transform="matrix(1.00, 0.00, -0.00, -1.00, 483.5, 369.0)">r</text><text xml:space="preserve" font-family="SourceSansPro-Light" font-size="40.0" fill="#FEFFFF" transform="matrix(1.00, 0.00, -0.00, -1.00, 496.2, 369.0)">k</text><text xml:space="preserve" font-family="SourceSansPro-Light" font-size="40.0" fill="#FEFFFF" transform="matrix(1.00, 0.00, -0.00, -1.00, 514.7, 369.0)"> </text><text xml:space="preserve" font-family="SourceSansPro-Light" font-size="40.0" fill="#FEFFFF" transform="matrix(1.00, 0.00, -0.00, -1.00, 522.7, 369.0)">f</text><text xml:space="preserve" font-family="SourceSansPro-Light" font-size="40.0" fill="#FEFFFF" transform="matrix(1.00, 0.00, -0.00, -1.00, 532.8, 369.0)">o</text><text xml:space="preserve" font-family="SourceSansPro-Light" font-size="40.0" fill="#FEFFFF" transform="matrix(1.00, 0.00, -0.00, -1.00, 554.2, 369.0)">r</text><text xml:space="preserve" font-family="SourceSansPro-Light" font-size="40.0" fill="#FEFFFF" transform="matrix(1.00, 0.00, -0.00, -1.00, 566.9, 369.0)"> </text><text xml:space="preserve" font-family="SourceSansPro-Light" font-size="40.0" fill="#FEFFFF" transform="matrix(1.00, 0.00, -0.00, -1.00, 574.8, 369.0)">G</text><text xml:space="preserve" font-family="SourceSansPro-Light" font-size="40.0" fill="#FEFFFF" transform="matrix(1.00, 0.00, -0.00, -1.00, 598.7, 369.0)">o</text><text xml:space="preserve" font-family="SourceSansPro-Light" font-size="40.0" fill="#FEFFFF" transform="matrix(1.00, 0.00, -0.00, -1.00, 617.9, 369.0)">T</text><text xml:space="preserve" font-family="SourceSansPro-Light" font-size="40.0" fill="#FEFFFF" transform="matrix(1.00, 0.00, -0.00, -1.00, 636.2, 369.0)">o</text><text xml:space="preserve" font-family="SourceSansPro-Light" font-size="40.0" fill="#FEFFFF" transform="matrix(1.00, 0.00, -0.00, -1.00, 655.3, 369.0)">T</text><text xml:space="preserve" font-family="SourceSansPro-Light" font-size="40.0" fill="#FEFFFF" transform="matrix(1.00, 0.00, -0.00, -1.00, 674.0, 369.0)">r</text><text xml:space="preserve" font-family="SourceSansPro-Light" font-size="40.0" fill="#FEFFFF" transform="matrix(1.00, 0.00, -0.00, -1.00, 685.8, 369.0)">a</text><text xml:space="preserve" font-family="SourceSansPro-Light" font-size="40.0" fill="#FEFFFF" transform="matrix(1.00, 0.00, -0.00, -1.00, 705.8, 369.0)">i</text><text xml:space="preserve" font-family="SourceSansPro-Light" font-size="40.0" fill="#FEFFFF" transform="matrix(1.00, 0.00, -0.00, -1.00, 714.9, 369.0)">n</text><text xml:space="preserve" font-family="SourceSansPro-Light" font-size="40.0" fill="#FEFFFF" transform="matrix(1.00, 0.00, -0.00, -1.00, 736.2, 369.0)">i</text><text xml:space="preserve" font-family="SourceSansPro-Light" font-size="40.0" fill="#FEFFFF" transform="matrix(1.00, 0.00, -0.00, -1.00, 745.4, 369.0)">n</text><text xml:space="preserve" font-family="SourceSansPro-Light" font-size="40.0" fill="#FEFFFF" transform="matrix(1.00, 0.00, -0.00, -1.00, 766.6, 369.0)">g</text><text xml:space="preserve" font-family="Helvetica-Light" font-size="18.0" fill="#FEFFFF" transform="matrix(1.00, 0.00, -0.00, -1.00, 501.0, 17.0)">1</text><text xml:space="preserve" font-family="Helvetica-Light" font-size="18.0" fill="#FEFFFF" transform="matrix(1.00, 0.00, -0.00, -1.00, 511.0, 17.0)">4</text></g></svg>