<?xml version="1.0" encoding="UTF-8" standalone="no"?><svg xmlns="http://www.w3.org/2000/svg" xmlns:xlink="http://www.w3.org/1999/xlink" clip-rule="evenodd" stroke-miterlimit="4.00" viewBox="0 0 1024 768"><desc>SVG generated by Keynote</desc><defs></defs><g transform="matrix(1.00, 0.00, -0.00, -1.00, 0.0, 768.0)"><path d="M 0.0 768.0 L 1024.0 768.0 L 1024.0 0.0 L 0.0 0.0 Z M 0.0 768.0 " fill="#000000"></path><g><clipPath id="clip-1804"><path d="M 0.0 -7.0 L 1024.0 -7.0 L 1024.0 321.0 L 0.0 321.0 Z M 0.0 -7.0 "></path></clipPath><g clip-path="url(#clip-1804)"><image xlink:href="D49ED86DA7B4D4D91C403CE8049CFC99.png" width="11560.00" height="3711.00" transform="matrix(0.09, 0.00, -0.00, -0.09, 0.0, 320.9)"></image></g></g><image xlink:href="091ED97681C549E5770B6595D533850A.png" width="882.00" height="392.00" transform="matrix(1.00, 0.00, -0.00, -1.00, 71.0, 720.0)"></image><text xml:space="preserve" font-family="Helvetica-Light" font-size="18.0" fill="#FEFFFF" transform="matrix(1.00, 0.00, -0.00, -1.00, 501.0, 17.0)">1</text><text xml:space="preserve" font-family="Helvetica-Light" font-size="18.0" fill="#FEFFFF" transform="matrix(1.00, 0.00, -0.00, -1.00, 511.0, 17.0)">9</text><text xml:space="preserve" font-family="Avenir-Light" font-size="25.0" fill="#FEFFFF" transform="matrix(1.00, 0.00, -0.00, -1.00, 36.0, 710.0)">O</text><text xml:space="preserve" font-family="Avenir-Light" font-size="25.0" fill="#FEFFFF" transform="matrix(1.00, 0.00, -0.00, -1.00, 56.9, 710.0)">t</text><text xml:space="preserve" font-family="Avenir-Light" font-size="25.0" fill="#FEFFFF" transform="matrix(1.00, 0.00, -0.00, -1.00, 65.2, 710.0)">h</text><text xml:space="preserve" font-family="Avenir-Light" font-size="25.0" fill="#FEFFFF" transform="matrix(1.00, 0.00, -0.00, -1.00, 79.1, 710.0)">e</text><text xml:space="preserve" font-family="Avenir-Light" font-size="25.0" fill="#FEFFFF" transform="matrix(1.00, 0.00, -0.00, -1.00, 93.0, 710.0)">r</text><text xml:space="preserve" font-family="Avenir-Light" font-size="25.0" fill="#FEFFFF" transform="matrix(1.00, 0.00, -0.00, -1.00, 101.3, 710.0)"> </text><text xml:space="preserve" font-family="Avenir-Light" font-size="25.0" fill="#FEFFFF" transform="matrix(1.00, 0.00, -0.00, -1.00, 107.8, 710.0)">w</text><text xml:space="preserve" font-family="Avenir-Light" font-size="25.0" fill="#FEFFFF" transform="matrix(1.00, 0.00, -0.00, -1.00, 125.4, 710.0)">o</text><text xml:space="preserve" font-family="Avenir-Light" font-size="25.0" fill="#FEFFFF" transform="matrix(1.00, 0.00, -0.00, -1.00, 140.3, 710.0)">r</text><text xml:space="preserve" font-family="Avenir-Light" font-size="25.0" fill="#FEFFFF" transform="matrix(1.00, 0.00, -0.00, -1.00, 148.6, 710.0)">k</text><text xml:space="preserve" font-family="Avenir-Light" font-size="25.0" fill="#FEFFFF" transform="matrix(1.00, 0.00, -0.00, -1.00, 160.6, 710.0)">s</text><text xml:space="preserve" font-family="Avenir-Light" font-size="25.0" fill="#FEFFFF" transform="matrix(1.00, 0.00, -0.00, -1.00, 171.3, 710.0)"> </text><text xml:space="preserve" font-family="Avenir-Light" font-size="25.0" fill="#FEFFFF" transform="matrix(1.00, 0.00, -0.00, -1.00, 177.8, 710.0)">|</text><text xml:space="preserve" font-family="Avenir-Light" font-size="25.0" fill="#FEFFFF" transform="matrix(1.00, 0.00, -0.00, -1.00, 183.3, 710.0)"> </text><text xml:space="preserve" font-family="Avenir-Black" font-weight="bold" font-size="25.0" fill="#FEFFFF" transform="matrix(1.00, 0.00, -0.00, -1.00, 189.8, 710.0)">F</text><text xml:space="preserve" font-family="Avenir-Black" font-weight="bold" font-size="25.0" fill="#FEFFFF" transform="matrix(1.00, 0.00, -0.00, -1.00, 204.7, 710.0)">l</text><text xml:space="preserve" font-family="Avenir-Black" font-weight="bold" font-size="25.0" fill="#FEFFFF" transform="matrix(1.00, 0.00, -0.00, -1.00, 211.2, 710.0)">o</text><text xml:space="preserve" font-family="Avenir-Black" font-weight="bold" font-size="25.0" fill="#FEFFFF" transform="matrix(1.00, 0.00, -0.00, -1.00, 226.4, 710.0)">w</text><text xml:space="preserve" font-family="Avenir-Black" font-weight="bold" font-size="25.0" fill="#FEFFFF" transform="matrix(1.00, 0.00, -0.00, -1.00, 247.2, 710.0)">s</text><text xml:space="preserve" font-family="Avenir-Black" font-weight="bold" font-size="25.0" fill="#FEFFFF" transform="matrix(1.00, 0.00, -0.00, -1.00, 258.8, 710.0)"> </text><text xml:space="preserve" font-family="Avenir-Black" font-weight="bold" font-size="25.0" fill="#FEFFFF" transform="matrix(1.00, 0.00, -0.00, -1.00, 266.2, 710.0)">w</text><text xml:space="preserve" font-family="Avenir-Black" font-weight="bold" font-size="25.0" fill="#FEFFFF" transform="matrix(1.00, 0.00, -0.00, -1.00, 287.0, 710.0)">i</text><text xml:space="preserve" font-family="Avenir-Black" font-weight="bold" font-size="25.0" fill="#FEFFFF" transform="matrix(1.00, 0.00, -0.00, -1.00, 293.5, 710.0)">t</text><text xml:space="preserve" font-family="Avenir-Black" font-weight="bold" font-size="25.0" fill="#FEFFFF" transform="matrix(1.00, 0.00, -0.00, -1.00, 303.7, 710.0)">h</text><text xml:space="preserve" font-family="Avenir-Black" font-weight="bold" font-size="25.0" fill="#FEFFFF" transform="matrix(1.00, 0.00, -0.00, -1.00, 318.1, 710.0)"> </text><text xml:space="preserve" font-family="Avenir-Black" font-weight="bold" font-size="25.0" fill="#FEFFFF" transform="matrix(1.00, 0.00, -0.00, -1.00, 325.5, 710.0)">e</text><text xml:space="preserve" font-family="Avenir-Black" font-weight="bold" font-size="25.0" fill="#FEFFFF" transform="matrix(1.00, 0.00, -0.00, -1.00, 339.8, 710.0)">v</text><text xml:space="preserve" font-family="Avenir-Black" font-weight="bold" font-size="25.0" fill="#FEFFFF" transform="matrix(1.00, 0.00, -0.00, -1.00, 353.7, 710.0)">e</text><text xml:space="preserve" font-family="Avenir-Black" font-weight="bold" font-size="25.0" fill="#FEFFFF" transform="matrix(1.00, 0.00, -0.00, -1.00, 368.1, 710.0)">r</text><text xml:space="preserve" font-family="Avenir-Black" font-weight="bold" font-size="25.0" fill="#FEFFFF" transform="matrix(1.00, 0.00, -0.00, -1.00, 378.2, 710.0)">y</text><text xml:space="preserve" font-family="Avenir-Black" font-weight="bold" font-size="25.0" fill="#FEFFFF" transform="matrix(1.00, 0.00, -0.00, -1.00, 392.1, 710.0)"> </text><text xml:space="preserve" font-family="Avenir-Black" font-weight="bold" font-size="25.0" fill="#FEFFFF" transform="matrix(1.00, 0.00, -0.00, -1.00, 399.5, 710.0)">u</text><text xml:space="preserve" font-family="Avenir-Black" font-weight="bold" font-size="25.0" fill="#FEFFFF" transform="matrix(1.00, 0.00, -0.00, -1.00, 413.9, 710.0)">s</text><text xml:space="preserve" font-family="Avenir-Black" font-weight="bold" font-size="25.0" fill="#FEFFFF" transform="matrix(1.00, 0.00, -0.00, -1.00, 425.5, 710.0)">e</text><text xml:space="preserve" font-family="Avenir-Black" font-weight="bold" font-size="25.0" fill="#FEFFFF" transform="matrix(1.00, 0.00, -0.00, -1.00, 439.8, 710.0)"> </text><text xml:space="preserve" font-family="Avenir-Black" font-weight="bold" font-size="25.0" fill="#FEFFFF" transform="matrix(1.00, 0.00, -0.00, -1.00, 447.2, 710.0)">c</text><text xml:space="preserve" font-family="Avenir-Black" font-weight="bold" font-size="25.0" fill="#FEFFFF" transform="matrix(1.00, 0.00, -0.00, -1.00, 459.3, 710.0)">a</text><text xml:space="preserve" font-family="Avenir-Black" font-weight="bold" font-size="25.0" fill="#FEFFFF" transform="matrix(1.00, 0.00, -0.00, -1.00, 472.7, 710.0)">s</text><text xml:space="preserve" font-family="Avenir-Black" font-weight="bold" font-size="25.0" fill="#FEFFFF" transform="matrix(1.00, 0.00, -0.00, -1.00, 484.3, 710.0)">e</text></g></svg>