<?xml version="1.0" encoding="UTF-8" standalone="no"?><svg xmlns="http://www.w3.org/2000/svg" xmlns:xlink="http://www.w3.org/1999/xlink" clip-rule="evenodd" stroke-miterlimit="4.00" viewBox="0 0 1024 768"><desc>SVG generated by Keynote</desc><defs></defs><g transform="matrix(1.00, 0.00, -0.00, -1.00, 0.0, 768.0)"><path d="M 0.0 768.0 L 1024.0 768.0 L 1024.0 0.0 L 0.0 0.0 Z M 0.0 768.0 " fill="#000000"></path><text xml:space="preserve" font-family="Helvetica-Light" font-size="18.0" fill="#FEFFFF" transform="matrix(1.00, 0.00, -0.00, -1.00, 501.0, 17.0)">2</text><text xml:space="preserve" font-family="Helvetica-Light" font-size="18.0" fill="#FEFFFF" transform="matrix(1.00, 0.00, -0.00, -1.00, 511.0, 17.0)">2</text><text xml:space="preserve" font-family="SourceSansPro-Light" font-size="40.0" fill="#FEFFFF" transform="matrix(1.00, 0.00, -0.00, -1.00, 194.0, 403.0)">I</text><text xml:space="preserve" font-family="SourceSansPro-Light" font-size="40.0" fill="#FEFFFF" transform="matrix(1.00, 0.00, -0.00, -1.00, 203.3, 403.0)">n</text><text xml:space="preserve" font-family="SourceSansPro-Light" font-size="40.0" fill="#FEFFFF" transform="matrix(1.00, 0.00, -0.00, -1.00, 224.6, 403.0)">-</text><text xml:space="preserve" font-family="SourceSansPro-Light" font-size="40.0" fill="#FEFFFF" transform="matrix(1.00, 0.00, -0.00, -1.00, 236.6, 403.0)">s</text><text xml:space="preserve" font-family="SourceSansPro-Light" font-size="40.0" fill="#FEFFFF" transform="matrix(1.00, 0.00, -0.00, -1.00, 252.8, 403.0)">e</text><text xml:space="preserve" font-family="SourceSansPro-Light" font-size="40.0" fill="#FEFFFF" transform="matrix(1.00, 0.00, -0.00, -1.00, 272.1, 403.0)">s</text><text xml:space="preserve" font-family="SourceSansPro-Light" font-size="40.0" fill="#FEFFFF" transform="matrix(1.00, 0.00, -0.00, -1.00, 288.3, 403.0)">s</text><text xml:space="preserve" font-family="SourceSansPro-Light" font-size="40.0" fill="#FEFFFF" transform="matrix(1.00, 0.00, -0.00, -1.00, 304.5, 403.0)">i</text><text xml:space="preserve" font-family="SourceSansPro-Light" font-size="40.0" fill="#FEFFFF" transform="matrix(1.00, 0.00, -0.00, -1.00, 313.6, 403.0)">o</text><text xml:space="preserve" font-family="SourceSansPro-Light" font-size="40.0" fill="#FEFFFF" transform="matrix(1.00, 0.00, -0.00, -1.00, 335.0, 403.0)">n</text><text xml:space="preserve" font-family="SourceSansPro-Light" font-size="40.0" fill="#FEFFFF" transform="matrix(1.00, 0.00, -0.00, -1.00, 356.3, 403.0)"> </text><text xml:space="preserve" font-family="SourceSansPro-Light" font-size="40.0" fill="#FEFFFF" transform="matrix(1.00, 0.00, -0.00, -1.00, 364.3, 403.0)">s</text><text xml:space="preserve" font-family="SourceSansPro-Light" font-size="40.0" fill="#FEFFFF" transform="matrix(1.00, 0.00, -0.00, -1.00, 380.5, 403.0)">i</text><text xml:space="preserve" font-family="SourceSansPro-Light" font-size="40.0" fill="#FEFFFF" transform="matrix(1.00, 0.00, -0.00, -1.00, 389.6, 403.0)">d</text><text xml:space="preserve" font-family="SourceSansPro-Light" font-size="40.0" fill="#FEFFFF" transform="matrix(1.00, 0.00, -0.00, -1.00, 411.4, 403.0)">e</text><text xml:space="preserve" font-family="SourceSansPro-Light" font-size="40.0" fill="#FEFFFF" transform="matrix(1.00, 0.00, -0.00, -1.00, 430.7, 403.0)"> </text><text xml:space="preserve" font-family="SourceSansPro-Light" font-size="40.0" fill="#FEFFFF" transform="matrix(1.00, 0.00, -0.00, -1.00, 438.7, 403.0)">g</text><text xml:space="preserve" font-family="SourceSansPro-Light" font-size="40.0" fill="#FEFFFF" transform="matrix(1.00, 0.00, -0.00, -1.00, 458.2, 403.0)">r</text><text xml:space="preserve" font-family="SourceSansPro-Light" font-size="40.0" fill="#FEFFFF" transform="matrix(1.00, 0.00, -0.00, -1.00, 470.4, 403.0)">e</text><text xml:space="preserve" font-family="SourceSansPro-Light" font-size="40.0" fill="#FEFFFF" transform="matrix(1.00, 0.00, -0.00, -1.00, 490.2, 403.0)">w</text><text xml:space="preserve" font-family="SourceSansPro-Light" font-size="40.0" fill="#FEFFFF" transform="matrix(1.00, 0.00, -0.00, -1.00, 517.6, 403.0)"> </text><text xml:space="preserve" font-family="SourceSansPro-Light" font-size="40.0" fill="#FEFFFF" transform="matrix(1.00, 0.00, -0.00, -1.00, 525.6, 403.0)">t</text><text xml:space="preserve" font-family="SourceSansPro-Light" font-size="40.0" fill="#FEFFFF" transform="matrix(1.00, 0.00, -0.00, -1.00, 537.7, 403.0)">o</text><text xml:space="preserve" font-family="SourceSansPro-Light" font-size="40.0" fill="#FEFFFF" transform="matrix(1.00, 0.00, -0.00, -1.00, 559.1, 403.0)"> </text><text xml:space="preserve" font-family="SourceSansPro-Light" font-size="40.0" fill="#FEFFFF" transform="matrix(1.00, 0.00, -0.00, -1.00, 567.0, 403.0)">b</text><text xml:space="preserve" font-family="SourceSansPro-Light" font-size="40.0" fill="#FEFFFF" transform="matrix(1.00, 0.00, -0.00, -1.00, 588.8, 403.0)">e</text><text xml:space="preserve" font-family="SourceSansPro-Light" font-size="40.0" fill="#FEFFFF" transform="matrix(1.00, 0.00, -0.00, -1.00, 608.1, 403.0)">c</text><text xml:space="preserve" font-family="SourceSansPro-Light" font-size="40.0" fill="#FEFFFF" transform="matrix(1.00, 0.00, -0.00, -1.00, 625.4, 403.0)">o</text><text xml:space="preserve" font-family="SourceSansPro-Light" font-size="40.0" fill="#FEFFFF" transform="matrix(1.00, 0.00, -0.00, -1.00, 646.8, 403.0)">m</text><text xml:space="preserve" font-family="SourceSansPro-Light" font-size="40.0" fill="#FEFFFF" transform="matrix(1.00, 0.00, -0.00, -1.00, 679.3, 403.0)">e</text><text xml:space="preserve" font-family="SourceSansPro-Light" font-size="40.0" fill="#FEFFFF" transform="matrix(1.00, 0.00, -0.00, -1.00, 698.6, 403.0)"> </text><text xml:space="preserve" font-family="SourceSansPro-Light" font-size="40.0" fill="#FEFFFF" transform="matrix(1.00, 0.00, -0.00, -1.00, 706.6, 403.0)">t</text><text xml:space="preserve" font-family="SourceSansPro-Light" font-size="40.0" fill="#FEFFFF" transform="matrix(1.00, 0.00, -0.00, -1.00, 719.0, 403.0)">h</text><text xml:space="preserve" font-family="SourceSansPro-Light" font-size="40.0" fill="#FEFFFF" transform="matrix(1.00, 0.00, -0.00, -1.00, 740.2, 403.0)">e</text><text xml:space="preserve" font-family="SourceSansPro-Light" font-size="40.0" fill="#FEFFFF" transform="matrix(1.00, 0.00, -0.00, -1.00, 759.5, 403.0)"> </text><text xml:space="preserve" font-family="SourceSansPro-Light" font-size="40.0" fill="#FEFFFF" transform="matrix(1.00, 0.00, -0.00, -1.00, 767.4, 403.0)">o</text><text xml:space="preserve" font-family="SourceSansPro-Light" font-size="40.0" fill="#FEFFFF" transform="matrix(1.00, 0.00, -0.00, -1.00, 788.8, 403.0)">n</text><text xml:space="preserve" font-family="SourceSansPro-Light" font-size="40.0" fill="#FEFFFF" transform="matrix(1.00, 0.00, -0.00, -1.00, 810.1, 403.0)">e</text><text xml:space="preserve" font-family="SourceSansPro-Light" font-size="40.0" fill="#FEFFFF" transform="matrix(1.00, 0.00, -0.00, -1.00, 829.4, 403.0)"> </text><text xml:space="preserve" font-family="SourceSansPro-Light" font-size="40.0" fill="#FEFFFF" transform="matrix(1.00, 0.00, -0.00, -1.00, 143.0, 353.0)">p</text><text xml:space="preserve" font-family="SourceSansPro-Light" font-size="40.0" fill="#FEFFFF" transform="matrix(1.00, 0.00, -0.00, -1.00, 164.8, 353.0)">r</text><text xml:space="preserve" font-family="SourceSansPro-Light" font-size="40.0" fill="#FEFFFF" transform="matrix(1.00, 0.00, -0.00, -1.00, 177.0, 353.0)">o</text><text xml:space="preserve" font-family="SourceSansPro-Light" font-size="40.0" fill="#FEFFFF" transform="matrix(1.00, 0.00, -0.00, -1.00, 198.4, 353.0)">d</text><text xml:space="preserve" font-family="SourceSansPro-Light" font-size="40.0" fill="#FEFFFF" transform="matrix(1.00, 0.00, -0.00, -1.00, 220.2, 353.0)">u</text><text xml:space="preserve" font-family="SourceSansPro-Light" font-size="40.0" fill="#FEFFFF" transform="matrix(1.00, 0.00, -0.00, -1.00, 241.4, 353.0)">c</text><text xml:space="preserve" font-family="SourceSansPro-Light" font-size="40.0" fill="#FEFFFF" transform="matrix(1.00, 0.00, -0.00, -1.00, 259.3, 353.0)">t</text><text xml:space="preserve" font-family="SourceSansPro-Light" font-size="40.0" fill="#FEFFFF" transform="matrix(1.00, 0.00, -0.00, -1.00, 271.8, 353.0)"> </text><text xml:space="preserve" font-family="SourceSansPro-Light" font-size="40.0" fill="#FEFFFF" transform="matrix(1.00, 0.00, -0.00, -1.00, 279.8, 353.0)">t</text><text xml:space="preserve" font-family="SourceSansPro-Light" font-size="40.0" fill="#FEFFFF" transform="matrix(1.00, 0.00, -0.00, -1.00, 292.2, 353.0)">h</text><text xml:space="preserve" font-family="SourceSansPro-Light" font-size="40.0" fill="#FEFFFF" transform="matrix(1.00, 0.00, -0.00, -1.00, 313.4, 353.0)">a</text><text xml:space="preserve" font-family="SourceSansPro-Light" font-size="40.0" fill="#FEFFFF" transform="matrix(1.00, 0.00, -0.00, -1.00, 333.3, 353.0)">t</text><text xml:space="preserve" font-family="SourceSansPro-Light" font-size="40.0" fill="#FEFFFF" transform="matrix(1.00, 0.00, -0.00, -1.00, 345.8, 353.0)"> </text><text xml:space="preserve" font-family="SourceSansPro-Light" font-size="40.0" fill="#FEFFFF" transform="matrix(1.00, 0.00, -0.00, -1.00, 353.8, 353.0)">h</text><text xml:space="preserve" font-family="SourceSansPro-Light" font-size="40.0" fill="#FEFFFF" transform="matrix(1.00, 0.00, -0.00, -1.00, 374.9, 353.0)">a</text><text xml:space="preserve" font-family="SourceSansPro-Light" font-size="40.0" fill="#FEFFFF" transform="matrix(1.00, 0.00, -0.00, -1.00, 394.8, 353.0)">s</text><text xml:space="preserve" font-family="SourceSansPro-Light" font-size="40.0" fill="#FEFFFF" transform="matrix(1.00, 0.00, -0.00, -1.00, 411.0, 353.0)"> </text><text xml:space="preserve" font-family="SourceSansPro-Light" font-size="40.0" fill="#FEFFFF" transform="matrix(1.00, 0.00, -0.00, -1.00, 419.0, 353.0)">t</text><text xml:space="preserve" font-family="SourceSansPro-Light" font-size="40.0" fill="#FEFFFF" transform="matrix(1.00, 0.00, -0.00, -1.00, 431.5, 353.0)">h</text><text xml:space="preserve" font-family="SourceSansPro-Light" font-size="40.0" fill="#FEFFFF" transform="matrix(1.00, 0.00, -0.00, -1.00, 452.6, 353.0)">e</text><text xml:space="preserve" font-family="SourceSansPro-Light" font-size="40.0" fill="#FEFFFF" transform="matrix(1.00, 0.00, -0.00, -1.00, 471.9, 353.0)"> </text><text xml:space="preserve" font-family="SourceSansPro-Light" font-size="40.0" fill="#FEFFFF" transform="matrix(1.00, 0.00, -0.00, -1.00, 479.9, 353.0)">h</text><text xml:space="preserve" font-family="SourceSansPro-Light" font-size="40.0" fill="#FEFFFF" transform="matrix(1.00, 0.00, -0.00, -1.00, 501.0, 353.0)">i</text><text xml:space="preserve" font-family="SourceSansPro-Light" font-size="40.0" fill="#FEFFFF" transform="matrix(1.00, 0.00, -0.00, -1.00, 510.2, 353.0)">g</text><text xml:space="preserve" font-family="SourceSansPro-Light" font-size="40.0" fill="#FEFFFF" transform="matrix(1.00, 0.00, -0.00, -1.00, 529.6, 353.0)">h</text><text xml:space="preserve" font-family="SourceSansPro-Light" font-size="40.0" fill="#FEFFFF" transform="matrix(1.00, 0.00, -0.00, -1.00, 550.8, 353.0)">e</text><text xml:space="preserve" font-family="SourceSansPro-Light" font-size="40.0" fill="#FEFFFF" transform="matrix(1.00, 0.00, -0.00, -1.00, 570.1, 353.0)">s</text><text xml:space="preserve" font-family="SourceSansPro-Light" font-size="40.0" fill="#FEFFFF" transform="matrix(1.00, 0.00, -0.00, -1.00, 586.3, 353.0)">t</text><text xml:space="preserve" font-family="SourceSansPro-Light" font-size="40.0" fill="#FEFFFF" transform="matrix(1.00, 0.00, -0.00, -1.00, 598.8, 353.0)"> </text><text xml:space="preserve" font-family="SourceSansPro-Light" font-size="40.0" fill="#FEFFFF" transform="matrix(1.00, 0.00, -0.00, -1.00, 606.7, 353.0)">N</text><text xml:space="preserve" font-family="SourceSansPro-Light" font-size="40.0" fill="#FEFFFF" transform="matrix(1.00, 0.00, -0.00, -1.00, 631.9, 353.0)">P</text><text xml:space="preserve" font-family="SourceSansPro-Light" font-size="40.0" fill="#FEFFFF" transform="matrix(1.00, 0.00, -0.00, -1.00, 653.5, 353.0)">S</text><text xml:space="preserve" font-family="SourceSansPro-Light" font-size="40.0" fill="#FEFFFF" transform="matrix(1.00, 0.00, -0.00, -1.00, 674.1, 353.0)"> </text><text xml:space="preserve" font-family="SourceSansPro-Light" font-size="40.0" fill="#FEFFFF" transform="matrix(1.00, 0.00, -0.00, -1.00, 682.0, 353.0)">s</text><text xml:space="preserve" font-family="SourceSansPro-Light" font-size="40.0" fill="#FEFFFF" transform="matrix(1.00, 0.00, -0.00, -1.00, 698.2, 353.0)">c</text><text xml:space="preserve" font-family="SourceSansPro-Light" font-size="40.0" fill="#FEFFFF" transform="matrix(1.00, 0.00, -0.00, -1.00, 715.5, 353.0)">o</text><text xml:space="preserve" font-family="SourceSansPro-Light" font-size="40.0" fill="#FEFFFF" transform="matrix(1.00, 0.00, -0.00, -1.00, 736.9, 353.0)">r</text><text xml:space="preserve" font-family="SourceSansPro-Light" font-size="40.0" fill="#FEFFFF" transform="matrix(1.00, 0.00, -0.00, -1.00, 749.2, 353.0)">e</text><text xml:space="preserve" font-family="SourceSansPro-Light" font-size="40.0" fill="#FEFFFF" transform="matrix(1.00, 0.00, -0.00, -1.00, 768.5, 353.0)"> </text><text xml:space="preserve" font-family="SourceSansPro-Light" font-size="40.0" fill="#FEFFFF" transform="matrix(1.00, 0.00, -0.00, -1.00, 776.5, 353.0)">a</text><text xml:space="preserve" font-family="SourceSansPro-Light" font-size="40.0" fill="#FEFFFF" transform="matrix(1.00, 0.00, -0.00, -1.00, 796.4, 353.0)">c</text><text xml:space="preserve" font-family="SourceSansPro-Light" font-size="40.0" fill="#FEFFFF" transform="matrix(1.00, 0.00, -0.00, -1.00, 814.4, 353.0)">r</text><text xml:space="preserve" font-family="SourceSansPro-Light" font-size="40.0" fill="#FEFFFF" transform="matrix(1.00, 0.00, -0.00, -1.00, 826.7, 353.0)">o</text><text xml:space="preserve" font-family="SourceSansPro-Light" font-size="40.0" fill="#FEFFFF" transform="matrix(1.00, 0.00, -0.00, -1.00, 848.1, 353.0)">s</text><text xml:space="preserve" font-family="SourceSansPro-Light" font-size="40.0" fill="#FEFFFF" transform="matrix(1.00, 0.00, -0.00, -1.00, 864.3, 353.0)">s</text><text xml:space="preserve" font-family="SourceSansPro-Light" font-size="40.0" fill="#FEFFFF" transform="matrix(1.00, 0.00, -0.00, -1.00, 880.5, 353.0)"> </text><text xml:space="preserve" font-family="SourceSansPro-Light" font-size="40.0" fill="#FEFFFF" transform="matrix(1.00, 0.00, -0.00, -1.00, 250.0, 303.0)">G</text><text xml:space="preserve" font-family="SourceSansPro-Light" font-size="40.0" fill="#FEFFFF" transform="matrix(1.00, 0.00, -0.00, -1.00, 273.9, 303.0)">o</text><text xml:space="preserve" font-family="SourceSansPro-Light" font-size="40.0" fill="#FEFFFF" transform="matrix(1.00, 0.00, -0.00, -1.00, 293.0, 303.0)">T</text><text xml:space="preserve" font-family="SourceSansPro-Light" font-size="40.0" fill="#FEFFFF" transform="matrix(1.00, 0.00, -0.00, -1.00, 311.3, 303.0)">o</text><text xml:space="preserve" font-family="SourceSansPro-Light" font-size="40.0" fill="#FEFFFF" transform="matrix(1.00, 0.00, -0.00, -1.00, 332.7, 303.0)">M</text><text xml:space="preserve" font-family="SourceSansPro-Light" font-size="40.0" fill="#FEFFFF" transform="matrix(1.00, 0.00, -0.00, -1.00, 360.7, 303.0)">e</text><text xml:space="preserve" font-family="SourceSansPro-Light" font-size="40.0" fill="#FEFFFF" transform="matrix(1.00, 0.00, -0.00, -1.00, 380.0, 303.0)">e</text><text xml:space="preserve" font-family="SourceSansPro-Light" font-size="40.0" fill="#FEFFFF" transform="matrix(1.00, 0.00, -0.00, -1.00, 398.9, 303.0)">t</text><text xml:space="preserve" font-family="SourceSansPro-Light" font-size="40.0" fill="#FEFFFF" transform="matrix(1.00, 0.00, -0.00, -1.00, 411.4, 303.0)">i</text><text xml:space="preserve" font-family="SourceSansPro-Light" font-size="40.0" fill="#FEFFFF" transform="matrix(1.00, 0.00, -0.00, -1.00, 420.5, 303.0)">n</text><text xml:space="preserve" font-family="SourceSansPro-Light" font-size="40.0" fill="#FEFFFF" transform="matrix(1.00, 0.00, -0.00, -1.00, 441.8, 303.0)">g</text><text xml:space="preserve" font-family="SourceSansPro-Light" font-size="40.0" fill="#FEFFFF" transform="matrix(1.00, 0.00, -0.00, -1.00, 461.3, 303.0)">,</text><text xml:space="preserve" font-family="SourceSansPro-Light" font-size="40.0" fill="#FEFFFF" transform="matrix(1.00, 0.00, -0.00, -1.00, 470.0, 303.0)"> </text><text xml:space="preserve" font-family="SourceSansPro-Light" font-size="40.0" fill="#FEFFFF" transform="matrix(1.00, 0.00, -0.00, -1.00, 478.0, 303.0)">G</text><text xml:space="preserve" font-family="SourceSansPro-Light" font-size="40.0" fill="#FEFFFF" transform="matrix(1.00, 0.00, -0.00, -1.00, 501.9, 303.0)">o</text><text xml:space="preserve" font-family="SourceSansPro-Light" font-size="40.0" fill="#FEFFFF" transform="matrix(1.00, 0.00, -0.00, -1.00, 521.0, 303.0)">T</text><text xml:space="preserve" font-family="SourceSansPro-Light" font-size="40.0" fill="#FEFFFF" transform="matrix(1.00, 0.00, -0.00, -1.00, 539.3, 303.0)">o</text><text xml:space="preserve" font-family="SourceSansPro-Light" font-size="40.0" fill="#FEFFFF" transform="matrix(1.00, 0.00, -0.00, -1.00, 560.7, 303.0)">W</text><text xml:space="preserve" font-family="SourceSansPro-Light" font-size="40.0" fill="#FEFFFF" transform="matrix(1.00, 0.00, -0.00, -1.00, 591.2, 303.0)">e</text><text xml:space="preserve" font-family="SourceSansPro-Light" font-size="40.0" fill="#FEFFFF" transform="matrix(1.00, 0.00, -0.00, -1.00, 610.6, 303.0)">b</text><text xml:space="preserve" font-family="SourceSansPro-Light" font-size="40.0" fill="#FEFFFF" transform="matrix(1.00, 0.00, -0.00, -1.00, 632.3, 303.0)">i</text><text xml:space="preserve" font-family="SourceSansPro-Light" font-size="40.0" fill="#FEFFFF" transform="matrix(1.00, 0.00, -0.00, -1.00, 641.5, 303.0)">n</text><text xml:space="preserve" font-family="SourceSansPro-Light" font-size="40.0" fill="#FEFFFF" transform="matrix(1.00, 0.00, -0.00, -1.00, 662.8, 303.0)">a</text><text xml:space="preserve" font-family="SourceSansPro-Light" font-size="40.0" fill="#FEFFFF" transform="matrix(1.00, 0.00, -0.00, -1.00, 682.7, 303.0)">r</text><text xml:space="preserve" font-family="SourceSansPro-Light" font-size="40.0" fill="#FEFFFF" transform="matrix(1.00, 0.00, -0.00, -1.00, 693.8, 303.0)">,</text><text xml:space="preserve" font-family="SourceSansPro-Light" font-size="40.0" fill="#FEFFFF" transform="matrix(1.00, 0.00, -0.00, -1.00, 702.6, 303.0)"> </text><text xml:space="preserve" font-family="SourceSansPro-Light" font-size="40.0" fill="#FEFFFF" transform="matrix(1.00, 0.00, -0.00, -1.00, 710.6, 303.0)">a</text><text xml:space="preserve" font-family="SourceSansPro-Light" font-size="40.0" fill="#FEFFFF" transform="matrix(1.00, 0.00, -0.00, -1.00, 730.5, 303.0)">n</text><text xml:space="preserve" font-family="SourceSansPro-Light" font-size="40.0" fill="#FEFFFF" transform="matrix(1.00, 0.00, -0.00, -1.00, 751.8, 303.0)">d</text><text xml:space="preserve" font-family="SourceSansPro-Light" font-size="40.0" fill="#FEFFFF" transform="matrix(1.00, 0.00, -0.00, -1.00, 773.6, 303.0)"> </text><text xml:space="preserve" font-family="SourceSansPro-Light" font-size="40.0" fill="#FEFFFF" transform="matrix(1.00, 0.00, -0.00, -1.00, 402.0, 253.0)">G</text><text xml:space="preserve" font-family="SourceSansPro-Light" font-size="40.0" fill="#FEFFFF" transform="matrix(1.00, 0.00, -0.00, -1.00, 425.9, 253.0)">o</text><text xml:space="preserve" font-family="SourceSansPro-Light" font-size="40.0" fill="#FEFFFF" transform="matrix(1.00, 0.00, -0.00, -1.00, 445.0, 253.0)">T</text><text xml:space="preserve" font-family="SourceSansPro-Light" font-size="40.0" fill="#FEFFFF" transform="matrix(1.00, 0.00, -0.00, -1.00, 463.3, 253.0)">o</text><text xml:space="preserve" font-family="SourceSansPro-Light" font-size="40.0" fill="#FEFFFF" transform="matrix(1.00, 0.00, -0.00, -1.00, 482.5, 253.0)">T</text><text xml:space="preserve" font-family="SourceSansPro-Light" font-size="40.0" fill="#FEFFFF" transform="matrix(1.00, 0.00, -0.00, -1.00, 501.2, 253.0)">r</text><text xml:space="preserve" font-family="SourceSansPro-Light" font-size="40.0" fill="#FEFFFF" transform="matrix(1.00, 0.00, -0.00, -1.00, 513.0, 253.0)">a</text><text xml:space="preserve" font-family="SourceSansPro-Light" font-size="40.0" fill="#FEFFFF" transform="matrix(1.00, 0.00, -0.00, -1.00, 532.9, 253.0)">i</text><text xml:space="preserve" font-family="SourceSansPro-Light" font-size="40.0" fill="#FEFFFF" transform="matrix(1.00, 0.00, -0.00, -1.00, 542.1, 253.0)">n</text><text xml:space="preserve" font-family="SourceSansPro-Light" font-size="40.0" fill="#FEFFFF" transform="matrix(1.00, 0.00, -0.00, -1.00, 563.4, 253.0)">i</text><text xml:space="preserve" font-family="SourceSansPro-Light" font-size="40.0" fill="#FEFFFF" transform="matrix(1.00, 0.00, -0.00, -1.00, 572.5, 253.0)">n</text><text xml:space="preserve" font-family="SourceSansPro-Light" font-size="40.0" fill="#FEFFFF" transform="matrix(1.00, 0.00, -0.00, -1.00, 593.8, 253.0)">g</text><text xml:space="preserve" font-family="SourceSansPro-Light" font-size="40.0" fill="#FEFFFF" transform="matrix(1.00, 0.00, -0.00, -1.00, 613.3, 253.0)">.</text></g></svg>