<?xml version="1.0" encoding="UTF-8" standalone="no"?><svg xmlns="http://www.w3.org/2000/svg" xmlns:xlink="http://www.w3.org/1999/xlink" clip-rule="evenodd" stroke-miterlimit="4.00" viewBox="0 0 1024 768"><desc>SVG generated by Keynote</desc><defs></defs><g transform="matrix(1.00, 0.00, -0.00, -1.00, 0.0, 768.0)"><path d="M 0.0 768.0 L 1024.0 768.0 L 1024.0 0.0 L 0.0 0.0 Z M 0.0 768.0 " fill="#000000"></path><g><clipPath id="clip-261"><path d="M 0.0 -1.0 L 1024.0 -1.0 L 1024.0 638.6 L 0.0 638.6 Z M 0.0 -1.0 "></path></clipPath><g clip-path="url(#clip-261)"><path d="M 0.0 639.0 L 1024.0 639.0 L 1024.0 -1.0 L 0.0 -1.0 Z M 0.0 639.0 " fill="#EDEDED"></path></g></g><image xlink:href="../../66C76421-D74F-42B3-9772-8D7762DACB56/assets/61AB9A048FF26E4B6511D7B87568C9DD.png" width="781.00" height="542.00" transform="matrix(1.00, 0.00, -0.00, -1.00, 15.0, 591.0)"></image><g><clipPath id="clip-262"><path d="M 7.1 32.4 L 812.1 32.4 L 812.1 599.9 L 7.1 599.9 Z M 7.1 32.4 "></path></clipPath><g clip-path="url(#clip-262)"><image xlink:href="../../66C76421-D74F-42B3-9772-8D7762DACB56/assets/C48E5BBA06693E4194D02E137914E9C7.png" width="986.00" height="680.00" transform="matrix(0.78, 0.00, -0.00, -0.78, -1589.3, 586.4)"></image></g></g><g><clipPath id="clip-263"><path d="M 0.0 -1.0 L 1024.0 -1.0 L 1024.0 638.6 L 0.0 638.6 Z M 0.0 -1.0 "></path></clipPath><g clip-path="url(#clip-263)"><g><g><clipPath id="clip-264"><path d="M 20.6 55.9 L 790.0 55.9 L 790.0 586.4 L 20.6 586.4 Z M 20.6 55.9 "></path></clipPath><g clip-path="url(#clip-264)"><image xlink:href="../../66C76421-D74F-42B3-9772-8D7762DACB56/assets/C48E5BBA06693E4194D02E137914E9C7.png" width="986.00" height="680.00" transform="matrix(0.78, 0.00, -0.00, -0.78, 20.6, 586.4)"></image></g></g><g><clipPath id="clip-265"><path d="M 20.6 55.9 L 790.0 55.9 L 790.0 586.4 L 20.6 586.4 Z M 20.6 55.9 "></path></clipPath><g clip-path="url(#clip-265)"><g><g><clipPath id="clip-266"><path d="M 20.6 55.9 L 790.0 55.9 L 790.0 586.4 L 20.6 586.4 Z M 20.6 55.9 "></path></clipPath><g clip-path="url(#clip-266)"><image xlink:href="../../66C76421-D74F-42B3-9772-8D7762DACB56/assets/C48E5BBA06693E4194D02E137914E9C7.png" width="986.00" height="680.00" transform="matrix(0.78, 0.00, -0.00, -0.78, 20.6, 586.4)"></image></g></g></g></g></g></g></g></g><g><clipPath id="clip-267"><path d="M 0.0 -1.0 L 1024.0 -1.0 L 1024.0 638.6 L 0.0 638.6 Z M 0.0 -1.0 "></path></clipPath><g clip-path="url(#clip-267)"><g><g><clipPath id="clip-268"><path d="M 808.5 480.4 L 1021.9 480.4 L 1021.9 634.0 L 808.5 634.0 Z M 808.5 480.4 "></path></clipPath><g clip-path="url(#clip-268)"><image xlink:href="../../66C76421-D74F-42B3-9772-8D7762DACB56/assets/79FF777693648FAC94DA9B0B75E66EB8.png" width="965.00" height="722.00" transform="matrix(0.22, 0.00, -0.00, -0.21, 808.5, 634.0)"></image></g></g><g><clipPath id="clip-269"><path d="M 808.5 480.4 L 1021.9 480.4 L 1021.9 634.0 L 808.5 634.0 Z M 808.5 480.4 "></path></clipPath><g clip-path="url(#clip-269)"><g><g><clipPath id="clip-270"><path d="M 808.5 480.4 L 1021.9 480.4 L 1021.9 634.0 L 808.5 634.0 Z M 808.5 480.4 "></path></clipPath><g clip-path="url(#clip-270)"><image xlink:href="../../66C76421-D74F-42B3-9772-8D7762DACB56/assets/79FF777693648FAC94DA9B0B75E66EB8.png" width="965.00" height="722.00" transform="matrix(0.22, 0.00, -0.00, -0.21, 808.5, 634.0)"></image></g></g></g></g></g></g></g></g><g><clipPath id="clip-271"><path d="M 0.0 -1.0 L 1024.0 -1.0 L 1024.0 638.6 L 0.0 638.6 Z M 0.0 -1.0 "></path></clipPath><g clip-path="url(#clip-271)"><g><g><clipPath id="clip-272"><path d="M 809.2 321.1 L 1021.2 321.1 L 1021.2 474.7 L 809.2 474.7 Z M 809.2 321.1 "></path></clipPath><g clip-path="url(#clip-272)"><image xlink:href="../../66C76421-D74F-42B3-9772-8D7762DACB56/assets/3CF812F4FD7FD8FA026B2A68A6030710.png" width="959.00" height="723.00" transform="matrix(0.22, 0.00, -0.00, -0.21, 809.2, 474.7)"></image></g></g><g><clipPath id="clip-273"><path d="M 809.2 321.1 L 1021.2 321.1 L 1021.2 474.7 L 809.2 474.7 Z M 809.2 321.1 "></path></clipPath><g clip-path="url(#clip-273)"><g><g><clipPath id="clip-274"><path d="M 809.2 321.1 L 1021.2 321.1 L 1021.2 474.7 L 809.2 474.7 Z M 809.2 321.1 "></path></clipPath><g clip-path="url(#clip-274)"><image xlink:href="../../66C76421-D74F-42B3-9772-8D7762DACB56/assets/3CF812F4FD7FD8FA026B2A68A6030710.png" width="959.00" height="723.00" transform="matrix(0.22, 0.00, -0.00, -0.21, 809.2, 474.7)"></image></g></g></g></g></g></g></g></g><g><clipPath id="clip-275"><path d="M 0.0 -1.0 L 1024.0 -1.0 L 1024.0 638.6 L 0.0 638.6 Z M 0.0 -1.0 "></path></clipPath><g clip-path="url(#clip-275)"><g><g><clipPath id="clip-276"><path d="M 809.2 161.1 L 1022.6 161.1 L 1022.6 315.4 L 809.2 315.4 Z M 809.2 161.1 "></path></clipPath><g clip-path="url(#clip-276)"><image xlink:href="../../66C76421-D74F-42B3-9772-8D7762DACB56/assets/36FAE6B840587BCC356896992D0AECF4.png" width="965.00" height="725.00" transform="matrix(0.22, 0.00, -0.00, -0.21, 809.2, 315.4)"></image></g></g><g><clipPath id="clip-277"><path d="M 809.2 161.1 L 1022.6 161.1 L 1022.6 315.4 L 809.2 315.4 Z M 809.2 161.1 "></path></clipPath><g clip-path="url(#clip-277)"><g><g><clipPath id="clip-278"><path d="M 809.2 161.1 L 1022.6 161.1 L 1022.6 315.4 L 809.2 315.4 Z M 809.2 161.1 "></path></clipPath><g clip-path="url(#clip-278)"><image xlink:href="../../66C76421-D74F-42B3-9772-8D7762DACB56/assets/36FAE6B840587BCC356896992D0AECF4.png" width="965.00" height="725.00" transform="matrix(0.22, 0.00, -0.00, -0.21, 809.2, 315.4)"></image></g></g></g></g></g></g></g></g><g><clipPath id="clip-279"><path d="M 0.0 -1.0 L 1024.0 -1.0 L 1024.0 638.6 L 0.0 638.6 Z M 0.0 -1.0 "></path></clipPath><g clip-path="url(#clip-279)"><g><g><clipPath id="clip-280"><path d="M 807.8 1.8 L 1019.7 1.8 L 1019.7 155.4 L 807.8 155.4 Z M 807.8 1.8 "></path></clipPath><g clip-path="url(#clip-280)"><image xlink:href="../../66C76421-D74F-42B3-9772-8D7762DACB56/assets/CD3C4E1C47DB2E39F1575C16D5272892.png" width="959.00" height="722.00" transform="matrix(0.22, 0.00, -0.00, -0.21, 807.8, 155.4)"></image></g></g><g><clipPath id="clip-281"><path d="M 807.8 1.8 L 1019.7 1.8 L 1019.7 155.4 L 807.8 155.4 Z M 807.8 1.8 "></path></clipPath><g clip-path="url(#clip-281)"><g><g><clipPath id="clip-282"><path d="M 807.8 1.8 L 1019.7 1.8 L 1019.7 155.4 L 807.8 155.4 Z M 807.8 1.8 "></path></clipPath><g clip-path="url(#clip-282)"><image xlink:href="../../66C76421-D74F-42B3-9772-8D7762DACB56/assets/CD3C4E1C47DB2E39F1575C16D5272892.png" width="959.00" height="722.00" transform="matrix(0.22, 0.00, -0.00, -0.21, 807.8, 155.4)"></image></g></g></g></g></g></g></g></g><g><clipPath id="clip-283"><path d="M 845.4 690.8 L 1003.2 690.8 L 1003.2 744.4 L 845.4 744.4 Z M 845.4 690.8 "></path></clipPath><g clip-path="url(#clip-283)"><text xml:space="preserve" font-family="SourceSansPro-Regular" font-size="28.0" fill="#1497FC" transform="matrix(1.00, 0.00, -0.00, -1.00, 854.0, 707.0)">C</text><text xml:space="preserve" font-family="SourceSansPro-Regular" font-size="28.0" fill="#1497FC" transform="matrix(1.00, 0.00, -0.00, -1.00, 869.8, 707.0)">h</text><text xml:space="preserve" font-family="SourceSansPro-Regular" font-size="28.0" fill="#1497FC" transform="matrix(1.00, 0.00, -0.00, -1.00, 885.1, 707.0)">e</text><text xml:space="preserve" font-family="SourceSansPro-Regular" font-size="28.0" fill="#1497FC" transform="matrix(1.00, 0.00, -0.00, -1.00, 899.0, 707.0)">c</text><text xml:space="preserve" font-family="SourceSansPro-Regular" font-size="28.0" fill="#1497FC" transform="matrix(1.00, 0.00, -0.00, -1.00, 911.7, 707.0)">k</text><text xml:space="preserve" font-family="SourceSansPro-Regular" font-size="28.0" fill="#1497FC" transform="matrix(1.00, 0.00, -0.00, -1.00, 925.6, 707.0)"> </text><text xml:space="preserve" font-family="SourceSansPro-Regular" font-size="28.0" fill="#1497FC" transform="matrix(1.00, 0.00, -0.00, -1.00, 931.3, 707.0)">i</text><text xml:space="preserve" font-family="SourceSansPro-Regular" font-size="28.0" fill="#1497FC" transform="matrix(1.00, 0.00, -0.00, -1.00, 938.1, 707.0)">t</text><text xml:space="preserve" font-family="SourceSansPro-Regular" font-size="28.0" fill="#1497FC" transform="matrix(1.00, 0.00, -0.00, -1.00, 947.6, 707.0)"> </text><text xml:space="preserve" font-family="SourceSansPro-Regular" font-size="28.0" fill="#1497FC" transform="matrix(1.00, 0.00, -0.00, -1.00, 953.3, 707.0)">o</text><text xml:space="preserve" font-family="SourceSansPro-Regular" font-size="28.0" fill="#1497FC" transform="matrix(1.00, 0.00, -0.00, -1.00, 968.4, 707.0)">u</text><text xml:space="preserve" font-family="SourceSansPro-Regular" font-size="28.0" fill="#1497FC" transform="matrix(1.00, 0.00, -0.00, -1.00, 983.7, 707.0)">t</text><path d="M 4.0 36.2 L 143.1 36.2 " fill="none" stroke="#1497FC" stroke-width="1.90" stroke-miterlimit="0.00" transform="matrix(1.00, 0.00, 0.00, -1.00, 850.2, 739.6)"></path></g></g><text xml:space="preserve" font-family="SourceSansPro-Light" font-size="28.0" fill="#FEFFFF" transform="matrix(1.00, 0.00, -0.00, -1.00, 36.0, 707.0)">S</text><text xml:space="preserve" font-family="SourceSansPro-Light" font-size="28.0" fill="#FEFFFF" transform="matrix(1.00, 0.00, -0.00, -1.00, 50.4, 707.0)">o</text><text xml:space="preserve" font-family="SourceSansPro-Light" font-size="28.0" fill="#FEFFFF" transform="matrix(1.00, 0.00, -0.00, -1.00, 65.4, 707.0)">m</text><text xml:space="preserve" font-family="SourceSansPro-Light" font-size="28.0" fill="#FEFFFF" transform="matrix(1.00, 0.00, -0.00, -1.00, 88.1, 707.0)">e</text><text xml:space="preserve" font-family="SourceSansPro-Light" font-size="28.0" fill="#FEFFFF" transform="matrix(1.00, 0.00, -0.00, -1.00, 101.6, 707.0)"> </text><text xml:space="preserve" font-family="SourceSansPro-Light" font-size="28.0" fill="#FEFFFF" transform="matrix(1.00, 0.00, -0.00, -1.00, 107.2, 707.0)">o</text><text xml:space="preserve" font-family="SourceSansPro-Light" font-size="28.0" fill="#FEFFFF" transform="matrix(1.00, 0.00, -0.00, -1.00, 122.2, 707.0)">t</text><text xml:space="preserve" font-family="SourceSansPro-Light" font-size="28.0" fill="#FEFFFF" transform="matrix(1.00, 0.00, -0.00, -1.00, 130.9, 707.0)">h</text><text xml:space="preserve" font-family="SourceSansPro-Light" font-size="28.0" fill="#FEFFFF" transform="matrix(1.00, 0.00, -0.00, -1.00, 145.7, 707.0)">e</text><text xml:space="preserve" font-family="SourceSansPro-Light" font-size="28.0" fill="#FEFFFF" transform="matrix(1.00, 0.00, -0.00, -1.00, 159.2, 707.0)">r</text><text xml:space="preserve" font-family="SourceSansPro-Light" font-size="28.0" fill="#FEFFFF" transform="matrix(1.00, 0.00, -0.00, -1.00, 168.1, 707.0)"> </text><text xml:space="preserve" font-family="SourceSansPro-Light" font-size="28.0" fill="#FEFFFF" transform="matrix(1.00, 0.00, -0.00, -1.00, 173.7, 707.0)">w</text><text xml:space="preserve" font-family="SourceSansPro-Light" font-size="28.0" fill="#FEFFFF" transform="matrix(1.00, 0.00, -0.00, -1.00, 192.9, 707.0)">o</text><text xml:space="preserve" font-family="SourceSansPro-Light" font-size="28.0" fill="#FEFFFF" transform="matrix(1.00, 0.00, -0.00, -1.00, 207.8, 707.0)">r</text><text xml:space="preserve" font-family="SourceSansPro-Light" font-size="28.0" fill="#FEFFFF" transform="matrix(1.00, 0.00, -0.00, -1.00, 216.7, 707.0)">k</text><text xml:space="preserve" font-family="SourceSansPro-Light" font-size="28.0" fill="#FEFFFF" transform="matrix(1.00, 0.00, -0.00, -1.00, 229.7, 707.0)">s</text><text xml:space="preserve" font-family="SourceSansPro-Light" font-size="28.0" fill="#FEFFFF" transform="matrix(1.00, 0.00, -0.00, -1.00, 241.0, 707.0)"> </text><text xml:space="preserve" font-family="SourceSansPro-Light" font-size="28.0" fill="#FEFFFF" transform="matrix(1.00, 0.00, -0.00, -1.00, 246.6, 707.0)">|</text><text xml:space="preserve" font-family="SourceSansPro-Light" font-size="28.0" fill="#FEFFFF" transform="matrix(1.00, 0.00, -0.00, -1.00, 252.9, 707.0)"> </text><text xml:space="preserve" font-family="SourceSansPro-Bold" font-weight="bold" font-size="28.0" fill="#FEFFFF" transform="matrix(1.00, 0.00, -0.00, -1.00, 258.5, 707.0)">O</text><text xml:space="preserve" font-family="SourceSansPro-Bold" font-weight="bold" font-size="28.0" fill="#FEFFFF" transform="matrix(1.00, 0.00, -0.00, -1.00, 277.6, 707.0)">n</text><text xml:space="preserve" font-family="SourceSansPro-Bold" font-weight="bold" font-size="28.0" fill="#FEFFFF" transform="matrix(1.00, 0.00, -0.00, -1.00, 293.7, 707.0)">b</text><text xml:space="preserve" font-family="SourceSansPro-Bold" font-weight="bold" font-size="28.0" fill="#FEFFFF" transform="matrix(1.00, 0.00, -0.00, -1.00, 309.7, 707.0)">o</text><text xml:space="preserve" font-family="SourceSansPro-Bold" font-weight="bold" font-size="28.0" fill="#FEFFFF" transform="matrix(1.00, 0.00, -0.00, -1.00, 324.9, 707.0)">a</text><text xml:space="preserve" font-family="SourceSansPro-Bold" font-weight="bold" font-size="28.0" fill="#FEFFFF" transform="matrix(1.00, 0.00, -0.00, -1.00, 339.9, 707.0)">r</text><text xml:space="preserve" font-family="SourceSansPro-Bold" font-weight="bold" font-size="28.0" fill="#FEFFFF" transform="matrix(1.00, 0.00, -0.00, -1.00, 350.7, 707.0)">d</text><text xml:space="preserve" font-family="SourceSansPro-Bold" font-weight="bold" font-size="28.0" fill="#FEFFFF" transform="matrix(1.00, 0.00, -0.00, -1.00, 366.8, 707.0)">i</text><text xml:space="preserve" font-family="SourceSansPro-Bold" font-weight="bold" font-size="28.0" fill="#FEFFFF" transform="matrix(1.00, 0.00, -0.00, -1.00, 374.5, 707.0)">n</text><text xml:space="preserve" font-family="SourceSansPro-Bold" font-weight="bold" font-size="28.0" fill="#FEFFFF" transform="matrix(1.00, 0.00, -0.00, -1.00, 390.5, 707.0)">g</text><text xml:space="preserve" font-family="SourceSansPro-Bold" font-weight="bold" font-size="28.0" fill="#FEFFFF" transform="matrix(1.00, 0.00, -0.00, -1.00, 405.5, 707.0)"> </text><text xml:space="preserve" font-family="SourceSansPro-Bold" font-weight="bold" font-size="28.0" fill="#FEFFFF" transform="matrix(1.00, 0.00, -0.00, -1.00, 411.3, 707.0)">f</text><text xml:space="preserve" font-family="SourceSansPro-Bold" font-weight="bold" font-size="28.0" fill="#FEFFFF" transform="matrix(1.00, 0.00, -0.00, -1.00, 420.6, 707.0)">o</text><text xml:space="preserve" font-family="SourceSansPro-Bold" font-weight="bold" font-size="28.0" fill="#FEFFFF" transform="matrix(1.00, 0.00, -0.00, -1.00, 436.1, 707.0)">r</text><text xml:space="preserve" font-family="SourceSansPro-Bold" font-weight="bold" font-size="28.0" fill="#FEFFFF" transform="matrix(1.00, 0.00, -0.00, -1.00, 447.3, 707.0)"> </text><text xml:space="preserve" font-family="SourceSansPro-Bold" font-weight="bold" font-size="28.0" fill="#FEFFFF" transform="matrix(1.00, 0.00, -0.00, -1.00, 453.1, 707.0)">G</text><text xml:space="preserve" font-family="SourceSansPro-Bold" font-weight="bold" font-size="28.0" fill="#FEFFFF" transform="matrix(1.00, 0.00, -0.00, -1.00, 470.9, 707.0)">o</text><text xml:space="preserve" font-family="SourceSansPro-Bold" font-weight="bold" font-size="28.0" fill="#FEFFFF" transform="matrix(1.00, 0.00, -0.00, -1.00, 486.4, 707.0)">o</text><text xml:space="preserve" font-family="SourceSansPro-Bold" font-weight="bold" font-size="28.0" fill="#FEFFFF" transform="matrix(1.00, 0.00, -0.00, -1.00, 502.0, 707.0)">g</text><text xml:space="preserve" font-family="SourceSansPro-Bold" font-weight="bold" font-size="28.0" fill="#FEFFFF" transform="matrix(1.00, 0.00, -0.00, -1.00, 516.9, 707.0)">l</text><text xml:space="preserve" font-family="SourceSansPro-Bold" font-weight="bold" font-size="28.0" fill="#FEFFFF" transform="matrix(1.00, 0.00, -0.00, -1.00, 524.9, 707.0)">e</text><text xml:space="preserve" font-family="SourceSansPro-Bold" font-weight="bold" font-size="28.0" fill="#FEFFFF" transform="matrix(1.00, 0.00, -0.00, -1.00, 539.4, 707.0)"> </text><text xml:space="preserve" font-family="SourceSansPro-Bold" font-weight="bold" font-size="28.0" fill="#FEFFFF" transform="matrix(1.00, 0.00, -0.00, -1.00, 545.3, 707.0)">D</text><text xml:space="preserve" font-family="SourceSansPro-Bold" font-weight="bold" font-size="28.0" fill="#FEFFFF" transform="matrix(1.00, 0.00, -0.00, -1.00, 563.0, 707.0)">o</text><text xml:space="preserve" font-family="SourceSansPro-Bold" font-weight="bold" font-size="28.0" fill="#FEFFFF" transform="matrix(1.00, 0.00, -0.00, -1.00, 578.6, 707.0)">c</text><text xml:space="preserve" font-family="SourceSansPro-Bold" font-weight="bold" font-size="28.0" fill="#FEFFFF" transform="matrix(1.00, 0.00, -0.00, -1.00, 591.6, 707.0)">s</text><text xml:space="preserve" font-family="SourceSansPro-Bold" font-weight="bold" font-size="28.0" fill="#FEFFFF" transform="matrix(1.00, 0.00, -0.00, -1.00, 604.0, 707.0)"> </text><text xml:space="preserve" font-family="SourceSansPro-Bold" font-weight="bold" font-size="28.0" fill="#FEFFFF" transform="matrix(1.00, 0.00, -0.00, -1.00, 609.9, 707.0)">i</text><text xml:space="preserve" font-family="SourceSansPro-Bold" font-weight="bold" font-size="28.0" fill="#FEFFFF" transform="matrix(1.00, 0.00, -0.00, -1.00, 617.6, 707.0)">n</text><text xml:space="preserve" font-family="SourceSansPro-Bold" font-weight="bold" font-size="28.0" fill="#FEFFFF" transform="matrix(1.00, 0.00, -0.00, -1.00, 633.6, 707.0)">t</text><text xml:space="preserve" font-family="SourceSansPro-Bold" font-weight="bold" font-size="28.0" fill="#FEFFFF" transform="matrix(1.00, 0.00, -0.00, -1.00, 644.0, 707.0)">e</text><text xml:space="preserve" font-family="SourceSansPro-Bold" font-weight="bold" font-size="28.0" fill="#FEFFFF" transform="matrix(1.00, 0.00, -0.00, -1.00, 658.3, 707.0)">g</text><text xml:space="preserve" font-family="SourceSansPro-Bold" font-weight="bold" font-size="28.0" fill="#FEFFFF" transform="matrix(1.00, 0.00, -0.00, -1.00, 673.2, 707.0)">r</text><text xml:space="preserve" font-family="SourceSansPro-Bold" font-weight="bold" font-size="28.0" fill="#FEFFFF" transform="matrix(1.00, 0.00, -0.00, -1.00, 683.6, 707.0)">a</text><text xml:space="preserve" font-family="SourceSansPro-Bold" font-weight="bold" font-size="28.0" fill="#FEFFFF" transform="matrix(1.00, 0.00, -0.00, -1.00, 698.5, 707.0)">t</text><text xml:space="preserve" font-family="SourceSansPro-Bold" font-weight="bold" font-size="28.0" fill="#FEFFFF" transform="matrix(1.00, 0.00, -0.00, -1.00, 709.2, 707.0)">i</text><text xml:space="preserve" font-family="SourceSansPro-Bold" font-weight="bold" font-size="28.0" fill="#FEFFFF" transform="matrix(1.00, 0.00, -0.00, -1.00, 717.0, 707.0)">o</text><text xml:space="preserve" font-family="SourceSansPro-Bold" font-weight="bold" font-size="28.0" fill="#FEFFFF" transform="matrix(1.00, 0.00, -0.00, -1.00, 732.5, 707.0)">n</text><text xml:space="preserve" font-family="Helvetica-Light" font-size="18.0" fill="#FEFFFF" transform="matrix(1.00, 0.00, -0.00, -1.00, 501.0, 17.0)">1</text><text xml:space="preserve" font-family="Helvetica-Light" font-size="18.0" fill="#FEFFFF" transform="matrix(1.00, 0.00, -0.00, -1.00, 511.0, 17.0)">8</text></g></svg>