<?xml version="1.0" encoding="UTF-8" standalone="no"?><svg xmlns="http://www.w3.org/2000/svg" xmlns:xlink="http://www.w3.org/1999/xlink" clip-rule="evenodd" stroke-miterlimit="4.00" viewBox="0 0 1025 743"><desc>SVG generated by Keynote</desc><defs></defs><g transform="matrix(1.00, 0.00, -0.00, -1.00, 0.0, 743.0)"><g><clipPath id="clip-238"><path d="M 0.0 1.0 L 1024.0 1.0 L 1024.0 640.6 L 0.0 640.6 Z M 0.0 1.0 "></path></clipPath><g clip-path="url(#clip-238)"><path d="M 0.0 641.0 L 1024.0 641.0 L 1024.0 1.0 L 0.0 1.0 Z M 0.0 641.0 " fill="#EDEDED"></path></g></g><image xlink:href="61AB9A048FF26E4B6511D7B87568C9DD.png" width="781.00" height="542.00" transform="matrix(1.00, 0.00, -0.00, -1.00, 15.0, 593.0)"></image><g><clipPath id="clip-239"><path d="M 7.1 34.4 L 812.1 34.4 L 812.1 601.9 L 7.1 601.9 Z M 7.1 34.4 "></path></clipPath><g clip-path="url(#clip-239)"><image xlink:href="C48E5BBA06693E4194D02E137914E9C7.png" width="986.00" height="680.00" transform="matrix(0.78, 0.00, -0.00, -0.78, -1589.3, 588.4)"></image></g></g><g><clipPath id="clip-240"><path d="M 0.0 1.0 L 1024.0 1.0 L 1024.0 640.6 L 0.0 640.6 Z M 0.0 1.0 "></path></clipPath><g clip-path="url(#clip-240)"><g><g><clipPath id="clip-241"><path d="M 20.6 57.9 L 790.0 57.9 L 790.0 588.4 L 20.6 588.4 Z M 20.6 57.9 "></path></clipPath><g clip-path="url(#clip-241)"><image xlink:href="../../66C76421-D74F-42B3-9772-8D7762DACB56/assets/C48E5BBA06693E4194D02E137914E9C7.png" width="986.00" height="680.00" transform="matrix(0.78, 0.00, -0.00, -0.78, 20.6, 588.4)"></image></g></g><g><clipPath id="clip-242"><path d="M 20.6 57.9 L 790.0 57.9 L 790.0 588.4 L 20.6 588.4 Z M 20.6 57.9 "></path></clipPath><g clip-path="url(#clip-242)"><g><g><clipPath id="clip-243"><path d="M 20.6 57.9 L 790.0 57.9 L 790.0 588.4 L 20.6 588.4 Z M 20.6 57.9 "></path></clipPath><g clip-path="url(#clip-243)"><image xlink:href="../../66C76421-D74F-42B3-9772-8D7762DACB56/assets/C48E5BBA06693E4194D02E137914E9C7.png" width="986.00" height="680.00" transform="matrix(0.78, 0.00, -0.00, -0.78, 20.6, 588.4)"></image></g></g></g></g></g></g></g></g><g><clipPath id="clip-244"><path d="M 0.0 1.0 L 1024.0 1.0 L 1024.0 640.6 L 0.0 640.6 Z M 0.0 1.0 "></path></clipPath><g clip-path="url(#clip-244)"><g><g><clipPath id="clip-245"><path d="M 808.5 482.4 L 1021.9 482.4 L 1021.9 636.0 L 808.5 636.0 Z M 808.5 482.4 "></path></clipPath><g clip-path="url(#clip-245)"><image xlink:href="79FF777693648FAC94DA9B0B75E66EB8.png" width="965.00" height="722.00" transform="matrix(0.22, 0.00, -0.00, -0.21, 808.5, 636.0)"></image></g></g><g><clipPath id="clip-246"><path d="M 808.5 482.4 L 1021.9 482.4 L 1021.9 636.0 L 808.5 636.0 Z M 808.5 482.4 "></path></clipPath><g clip-path="url(#clip-246)"><g><g><clipPath id="clip-247"><path d="M 808.5 482.4 L 1021.9 482.4 L 1021.9 636.0 L 808.5 636.0 Z M 808.5 482.4 "></path></clipPath><g clip-path="url(#clip-247)"><image xlink:href="../../66C76421-D74F-42B3-9772-8D7762DACB56/assets/79FF777693648FAC94DA9B0B75E66EB8.png" width="965.00" height="722.00" transform="matrix(0.22, 0.00, -0.00, -0.21, 808.5, 636.0)"></image></g></g></g></g></g></g></g></g><g><clipPath id="clip-248"><path d="M 0.0 1.0 L 1024.0 1.0 L 1024.0 640.6 L 0.0 640.6 Z M 0.0 1.0 "></path></clipPath><g clip-path="url(#clip-248)"><g><g><clipPath id="clip-249"><path d="M 809.2 323.1 L 1021.2 323.1 L 1021.2 476.7 L 809.2 476.7 Z M 809.2 323.1 "></path></clipPath><g clip-path="url(#clip-249)"><image xlink:href="3CF812F4FD7FD8FA026B2A68A6030710.png" width="959.00" height="723.00" transform="matrix(0.22, 0.00, -0.00, -0.21, 809.2, 476.7)"></image></g></g><g><clipPath id="clip-250"><path d="M 809.2 323.1 L 1021.2 323.1 L 1021.2 476.7 L 809.2 476.7 Z M 809.2 323.1 "></path></clipPath><g clip-path="url(#clip-250)"><g><g><clipPath id="clip-251"><path d="M 809.2 323.1 L 1021.2 323.1 L 1021.2 476.7 L 809.2 476.7 Z M 809.2 323.1 "></path></clipPath><g clip-path="url(#clip-251)"><image xlink:href="../../66C76421-D74F-42B3-9772-8D7762DACB56/assets/3CF812F4FD7FD8FA026B2A68A6030710.png" width="959.00" height="723.00" transform="matrix(0.22, 0.00, -0.00, -0.21, 809.2, 476.7)"></image></g></g></g></g></g></g></g></g><g><clipPath id="clip-252"><path d="M 0.0 1.0 L 1024.0 1.0 L 1024.0 640.6 L 0.0 640.6 Z M 0.0 1.0 "></path></clipPath><g clip-path="url(#clip-252)"><g><g><clipPath id="clip-253"><path d="M 809.2 163.1 L 1022.6 163.1 L 1022.6 317.4 L 809.2 317.4 Z M 809.2 163.1 "></path></clipPath><g clip-path="url(#clip-253)"><image xlink:href="36FAE6B840587BCC356896992D0AECF4.png" width="965.00" height="725.00" transform="matrix(0.22, 0.00, -0.00, -0.21, 809.2, 317.4)"></image></g></g><g><clipPath id="clip-254"><path d="M 809.2 163.1 L 1022.6 163.1 L 1022.6 317.4 L 809.2 317.4 Z M 809.2 163.1 "></path></clipPath><g clip-path="url(#clip-254)"><g><g><clipPath id="clip-255"><path d="M 809.2 163.1 L 1022.6 163.1 L 1022.6 317.4 L 809.2 317.4 Z M 809.2 163.1 "></path></clipPath><g clip-path="url(#clip-255)"><image xlink:href="../../66C76421-D74F-42B3-9772-8D7762DACB56/assets/36FAE6B840587BCC356896992D0AECF4.png" width="965.00" height="725.00" transform="matrix(0.22, 0.00, -0.00, -0.21, 809.2, 317.4)"></image></g></g></g></g></g></g></g></g><g><clipPath id="clip-256"><path d="M 0.0 1.0 L 1024.0 1.0 L 1024.0 640.6 L 0.0 640.6 Z M 0.0 1.0 "></path></clipPath><g clip-path="url(#clip-256)"><g><g><clipPath id="clip-257"><path d="M 807.8 3.8 L 1019.7 3.8 L 1019.7 157.4 L 807.8 157.4 Z M 807.8 3.8 "></path></clipPath><g clip-path="url(#clip-257)"><image xlink:href="CD3C4E1C47DB2E39F1575C16D5272892.png" width="959.00" height="722.00" transform="matrix(0.22, 0.00, -0.00, -0.21, 807.8, 157.4)"></image></g></g><g><clipPath id="clip-258"><path d="M 807.8 3.8 L 1019.7 3.8 L 1019.7 157.4 L 807.8 157.4 Z M 807.8 3.8 "></path></clipPath><g clip-path="url(#clip-258)"><g><g><clipPath id="clip-259"><path d="M 807.8 3.8 L 1019.7 3.8 L 1019.7 157.4 L 807.8 157.4 Z M 807.8 3.8 "></path></clipPath><g clip-path="url(#clip-259)"><image xlink:href="../../66C76421-D74F-42B3-9772-8D7762DACB56/assets/CD3C4E1C47DB2E39F1575C16D5272892.png" width="959.00" height="722.00" transform="matrix(0.22, 0.00, -0.00, -0.21, 807.8, 157.4)"></image></g></g></g></g></g></g></g></g><g><clipPath id="clip-260"><path d="M 845.4 692.8 L 1003.2 692.8 L 1003.2 746.4 L 845.4 746.4 Z M 845.4 692.8 "></path></clipPath><g clip-path="url(#clip-260)"><text xml:space="preserve" font-family="SourceSansPro-Regular" font-size="28.0" fill="#1497FC" transform="matrix(1.00, 0.00, -0.00, -1.00, 854.0, 709.0)">C</text><text xml:space="preserve" font-family="SourceSansPro-Regular" font-size="28.0" fill="#1497FC" transform="matrix(1.00, 0.00, -0.00, -1.00, 869.8, 709.0)">h</text><text xml:space="preserve" font-family="SourceSansPro-Regular" font-size="28.0" fill="#1497FC" transform="matrix(1.00, 0.00, -0.00, -1.00, 885.1, 709.0)">e</text><text xml:space="preserve" font-family="SourceSansPro-Regular" font-size="28.0" fill="#1497FC" transform="matrix(1.00, 0.00, -0.00, -1.00, 899.0, 709.0)">c</text><text xml:space="preserve" font-family="SourceSansPro-Regular" font-size="28.0" fill="#1497FC" transform="matrix(1.00, 0.00, -0.00, -1.00, 911.7, 709.0)">k</text><text xml:space="preserve" font-family="SourceSansPro-Regular" font-size="28.0" fill="#1497FC" transform="matrix(1.00, 0.00, -0.00, -1.00, 925.6, 709.0)"> </text><text xml:space="preserve" font-family="SourceSansPro-Regular" font-size="28.0" fill="#1497FC" transform="matrix(1.00, 0.00, -0.00, -1.00, 931.3, 709.0)">i</text><text xml:space="preserve" font-family="SourceSansPro-Regular" font-size="28.0" fill="#1497FC" transform="matrix(1.00, 0.00, -0.00, -1.00, 938.1, 709.0)">t</text><text xml:space="preserve" font-family="SourceSansPro-Regular" font-size="28.0" fill="#1497FC" transform="matrix(1.00, 0.00, -0.00, -1.00, 947.6, 709.0)"> </text><text xml:space="preserve" font-family="SourceSansPro-Regular" font-size="28.0" fill="#1497FC" transform="matrix(1.00, 0.00, -0.00, -1.00, 953.3, 709.0)">o</text><text xml:space="preserve" font-family="SourceSansPro-Regular" font-size="28.0" fill="#1497FC" transform="matrix(1.00, 0.00, -0.00, -1.00, 968.4, 709.0)">u</text><text xml:space="preserve" font-family="SourceSansPro-Regular" font-size="28.0" fill="#1497FC" transform="matrix(1.00, 0.00, -0.00, -1.00, 983.7, 709.0)">t</text><path d="M 4.0 36.2 L 143.1 36.2 " fill="none" stroke="#1497FC" stroke-width="1.90" stroke-miterlimit="0.00" transform="matrix(1.00, 0.00, 0.00, -1.00, 850.2, 741.6)"></path></g></g></g></svg>