<?xml version="1.0" encoding="UTF-8" standalone="no"?><svg xmlns="http://www.w3.org/2000/svg" xmlns:xlink="http://www.w3.org/1999/xlink" clip-rule="evenodd" stroke-miterlimit="4.00" viewBox="0 0 1024 768"><desc>SVG generated by Keynote</desc><defs></defs><g transform="matrix(1.00, 0.00, -0.00, -1.00, 0.0, 768.0)"><path d="M 0.0 768.0 L 1024.0 768.0 L 1024.0 0.0 L 0.0 0.0 Z M 0.0 768.0 " fill="#000000"></path><text xml:space="preserve" font-family="Avenir-Light" font-size="28.0" fill="#FEFFFF" transform="matrix(1.00, 0.00, -0.00, -1.00, 101.0, 554.0)">M</text><text xml:space="preserve" font-family="Avenir-Light" font-size="28.0" fill="#FEFFFF" transform="matrix(1.00, 0.00, -0.00, -1.00, 125.9, 554.0)">y</text><text xml:space="preserve" font-family="Avenir-Light" font-size="28.0" fill="#FEFFFF" transform="matrix(1.00, 0.00, -0.00, -1.00, 138.9, 554.0)"> </text><text xml:space="preserve" font-family="Avenir-Light" font-size="28.0" fill="#FEFFFF" transform="matrix(1.00, 0.00, -0.00, -1.00, 146.1, 554.0)">r</text><text xml:space="preserve" font-family="Avenir-Light" font-size="28.0" fill="#FEFFFF" transform="matrix(1.00, 0.00, -0.00, -1.00, 155.0, 554.0)">o</text><text xml:space="preserve" font-family="Avenir-Light" font-size="28.0" fill="#FEFFFF" transform="matrix(1.00, 0.00, -0.00, -1.00, 171.6, 554.0)">l</text><text xml:space="preserve" font-family="Avenir-Light" font-size="28.0" fill="#FEFFFF" transform="matrix(1.00, 0.00, -0.00, -1.00, 178.3, 554.0)">e</text><text xml:space="preserve" font-family="Avenir-Light" font-size="28.0" fill="#FEFFFF" transform="matrix(1.00, 0.00, -0.00, -1.00, 193.9, 554.0)">:</text><text xml:space="preserve" font-family="Avenir-Light" font-size="28.0" fill="#FEFFFF" transform="matrix(1.00, 0.00, -0.00, -1.00, 201.2, 554.0)"> </text><text xml:space="preserve" font-family="Avenir-Light" font-size="21.0" fill="#FEFFFF" transform="matrix(1.00, 0.00, -0.00, -1.00, 171.2, 476.1)">•</text><text xml:space="preserve" font-family="Avenir-Light" font-size="28.0" fill="#FEFFFF" transform="matrix(1.00, 0.00, -0.00, -1.00, 194.0, 474.0)">a</text><text xml:space="preserve" font-family="Avenir-Light" font-size="28.0" fill="#FEFFFF" transform="matrix(1.00, 0.00, -0.00, -1.00, 208.5, 474.0)">m</text><text xml:space="preserve" font-family="Avenir-Light" font-size="28.0" fill="#FEFFFF" transform="matrix(1.00, 0.00, -0.00, -1.00, 232.4, 474.0)">a</text><text xml:space="preserve" font-family="Avenir-Light" font-size="28.0" fill="#FEFFFF" transform="matrix(1.00, 0.00, -0.00, -1.00, 246.9, 474.0)">z</text><text xml:space="preserve" font-family="Avenir-Light" font-size="28.0" fill="#FEFFFF" transform="matrix(1.00, 0.00, -0.00, -1.00, 258.8, 474.0)">o</text><text xml:space="preserve" font-family="Avenir-Light" font-size="28.0" fill="#FEFFFF" transform="matrix(1.00, 0.00, -0.00, -1.00, 275.5, 474.0)">n</text><text xml:space="preserve" font-family="Avenir-Light" font-size="28.0" fill="#FEFFFF" transform="matrix(1.00, 0.00, -0.00, -1.00, 291.0, 474.0)">.</text><text xml:space="preserve" font-family="Avenir-Light" font-size="28.0" fill="#FEFFFF" transform="matrix(1.00, 0.00, -0.00, -1.00, 298.3, 474.0)">j</text><text xml:space="preserve" font-family="Avenir-Light" font-size="28.0" fill="#FEFFFF" transform="matrix(1.00, 0.00, -0.00, -1.00, 305.0, 474.0)">o</text><text xml:space="preserve" font-family="Avenir-Light" font-size="28.0" fill="#FEFFFF" transform="matrix(1.00, 0.00, -0.00, -1.00, 321.7, 474.0)">b</text><text xml:space="preserve" font-family="Avenir-Light" font-size="28.0" fill="#FEFFFF" transform="matrix(1.00, 0.00, -0.00, -1.00, 338.8, 474.0)">s</text><text xml:space="preserve" font-family="Avenir-Light" font-size="28.0" fill="#FEFFFF" transform="matrix(1.00, 0.00, -0.00, -1.00, 350.7, 474.0)"> </text><text xml:space="preserve" font-family="Avenir-Light" font-size="28.0" fill="#FEFFFF" transform="matrix(1.00, 0.00, -0.00, -1.00, 358.0, 474.0)">a</text><text xml:space="preserve" font-family="Avenir-Light" font-size="28.0" fill="#FEFFFF" transform="matrix(1.00, 0.00, -0.00, -1.00, 372.5, 474.0)">n</text><text xml:space="preserve" font-family="Avenir-Light" font-size="28.0" fill="#FEFFFF" transform="matrix(1.00, 0.00, -0.00, -1.00, 388.1, 474.0)">d</text><text xml:space="preserve" font-family="Avenir-Light" font-size="28.0" fill="#FEFFFF" transform="matrix(1.00, 0.00, -0.00, -1.00, 405.2, 474.0)"> </text><text xml:space="preserve" font-family="Avenir-Light" font-size="28.0" fill="#FEFFFF" transform="matrix(1.00, 0.00, -0.00, -1.00, 412.5, 474.0)">A</text><text xml:space="preserve" font-family="Avenir-Light" font-size="28.0" fill="#FEFFFF" transform="matrix(1.00, 0.00, -0.00, -1.00, 431.7, 474.0)">m</text><text xml:space="preserve" font-family="Avenir-Light" font-size="28.0" fill="#FEFFFF" transform="matrix(1.00, 0.00, -0.00, -1.00, 455.5, 474.0)">a</text><text xml:space="preserve" font-family="Avenir-Light" font-size="28.0" fill="#FEFFFF" transform="matrix(1.00, 0.00, -0.00, -1.00, 470.1, 474.0)">z</text><text xml:space="preserve" font-family="Avenir-Light" font-size="28.0" fill="#FEFFFF" transform="matrix(1.00, 0.00, -0.00, -1.00, 482.0, 474.0)">o</text><text xml:space="preserve" font-family="Avenir-Light" font-size="28.0" fill="#FEFFFF" transform="matrix(1.00, 0.00, -0.00, -1.00, 498.6, 474.0)">n</text><text xml:space="preserve" font-family="Avenir-Light" font-size="28.0" fill="#FEFFFF" transform="matrix(1.00, 0.00, -0.00, -1.00, 514.2, 474.0)"> </text><text xml:space="preserve" font-family="Avenir-Light" font-size="28.0" fill="#FEFFFF" transform="matrix(1.00, 0.00, -0.00, -1.00, 521.5, 474.0)">H</text><text xml:space="preserve" font-family="Avenir-Light" font-size="28.0" fill="#FEFFFF" transform="matrix(1.00, 0.00, -0.00, -1.00, 541.7, 474.0)">i</text><text xml:space="preserve" font-family="Avenir-Light" font-size="28.0" fill="#FEFFFF" transform="matrix(1.00, 0.00, -0.00, -1.00, 548.4, 474.0)">r</text><text xml:space="preserve" font-family="Avenir-Light" font-size="28.0" fill="#FEFFFF" transform="matrix(1.00, 0.00, -0.00, -1.00, 557.2, 474.0)">e</text><text xml:space="preserve" font-family="Avenir-Light" font-size="28.0" fill="#FEFFFF" transform="matrix(1.00, 0.00, -0.00, -1.00, 572.8, 474.0)"> </text><text xml:space="preserve" font-family="Avenir-Light" font-size="21.0" fill="#FEFFFF" transform="matrix(1.00, 0.00, -0.00, -1.00, 171.2, 396.1)">•</text><text xml:space="preserve" font-family="Avenir-Light" font-size="28.0" fill="#FEFFFF" transform="matrix(1.00, 0.00, -0.00, -1.00, 194.0, 394.0)">I</text><text xml:space="preserve" font-family="Avenir-Light" font-size="28.0" fill="#FEFFFF" transform="matrix(1.00, 0.00, -0.00, -1.00, 201.3, 394.0)">A</text><text xml:space="preserve" font-family="Avenir-Light" font-size="28.0" fill="#FEFFFF" transform="matrix(1.00, 0.00, -0.00, -1.00, 220.5, 394.0)">,</text><text xml:space="preserve" font-family="Avenir-Light" font-size="28.0" fill="#FEFFFF" transform="matrix(1.00, 0.00, -0.00, -1.00, 227.7, 394.0)"> </text><text xml:space="preserve" font-family="Avenir-Light" font-size="28.0" fill="#FEFFFF" transform="matrix(1.00, 0.00, -0.00, -1.00, 235.0, 394.0)">w</text><text xml:space="preserve" font-family="Avenir-Light" font-size="28.0" fill="#FEFFFF" transform="matrix(1.00, 0.00, -0.00, -1.00, 254.7, 394.0)">i</text><text xml:space="preserve" font-family="Avenir-Light" font-size="28.0" fill="#FEFFFF" transform="matrix(1.00, 0.00, -0.00, -1.00, 261.5, 394.0)">r</text><text xml:space="preserve" font-family="Avenir-Light" font-size="28.0" fill="#FEFFFF" transform="matrix(1.00, 0.00, -0.00, -1.00, 270.3, 394.0)">e</text><text xml:space="preserve" font-family="Avenir-Light" font-size="28.0" fill="#FEFFFF" transform="matrix(1.00, 0.00, -0.00, -1.00, 285.8, 394.0)">f</text><text xml:space="preserve" font-family="Avenir-Light" font-size="28.0" fill="#FEFFFF" transform="matrix(1.00, 0.00, -0.00, -1.00, 294.1, 394.0)">r</text><text xml:space="preserve" font-family="Avenir-Light" font-size="28.0" fill="#FEFFFF" transform="matrix(1.00, 0.00, -0.00, -1.00, 303.5, 394.0)">a</text><text xml:space="preserve" font-family="Avenir-Light" font-size="28.0" fill="#FEFFFF" transform="matrix(1.00, 0.00, -0.00, -1.00, 318.0, 394.0)">m</text><text xml:space="preserve" font-family="Avenir-Light" font-size="28.0" fill="#FEFFFF" transform="matrix(1.00, 0.00, -0.00, -1.00, 341.8, 394.0)">i</text><text xml:space="preserve" font-family="Avenir-Light" font-size="28.0" fill="#FEFFFF" transform="matrix(1.00, 0.00, -0.00, -1.00, 348.6, 394.0)">n</text><text xml:space="preserve" font-family="Avenir-Light" font-size="28.0" fill="#FEFFFF" transform="matrix(1.00, 0.00, -0.00, -1.00, 364.1, 394.0)">g</text><text xml:space="preserve" font-family="Avenir-Light" font-size="28.0" fill="#FEFFFF" transform="matrix(1.00, 0.00, -0.00, -1.00, 381.2, 394.0)">,</text><text xml:space="preserve" font-family="Avenir-Light" font-size="28.0" fill="#FEFFFF" transform="matrix(1.00, 0.00, -0.00, -1.00, 388.5, 394.0)"> </text><text xml:space="preserve" font-family="Avenir-Light" font-size="28.0" fill="#FEFFFF" transform="matrix(1.00, 0.00, -0.00, -1.00, 395.8, 394.0)">v</text><text xml:space="preserve" font-family="Avenir-Light" font-size="28.0" fill="#FEFFFF" transform="matrix(1.00, 0.00, -0.00, -1.00, 408.8, 394.0)">i</text><text xml:space="preserve" font-family="Avenir-Light" font-size="28.0" fill="#FEFFFF" transform="matrix(1.00, 0.00, -0.00, -1.00, 415.5, 394.0)">s</text><text xml:space="preserve" font-family="Avenir-Light" font-size="28.0" fill="#FEFFFF" transform="matrix(1.00, 0.00, -0.00, -1.00, 427.4, 394.0)">u</text><text xml:space="preserve" font-family="Avenir-Light" font-size="28.0" fill="#FEFFFF" transform="matrix(1.00, 0.00, -0.00, -1.00, 443.0, 394.0)">a</text><text xml:space="preserve" font-family="Avenir-Light" font-size="28.0" fill="#FEFFFF" transform="matrix(1.00, 0.00, -0.00, -1.00, 457.5, 394.0)">l</text><text xml:space="preserve" font-family="Avenir-Light" font-size="28.0" fill="#FEFFFF" transform="matrix(1.00, 0.00, -0.00, -1.00, 464.2, 394.0)"> </text><text xml:space="preserve" font-family="Avenir-Light" font-size="28.0" fill="#FEFFFF" transform="matrix(1.00, 0.00, -0.00, -1.00, 471.5, 394.0)">&amp;</text><text xml:space="preserve" font-family="Avenir-Light" font-size="28.0" fill="#FEFFFF" transform="matrix(1.00, 0.00, -0.00, -1.00, 491.2, 394.0)"> </text><text xml:space="preserve" font-family="Avenir-Light" font-size="28.0" fill="#FEFFFF" transform="matrix(1.00, 0.00, -0.00, -1.00, 498.5, 394.0)">i</text><text xml:space="preserve" font-family="Avenir-Light" font-size="28.0" fill="#FEFFFF" transform="matrix(1.00, 0.00, -0.00, -1.00, 505.2, 394.0)">n</text><text xml:space="preserve" font-family="Avenir-Light" font-size="28.0" fill="#FEFFFF" transform="matrix(1.00, 0.00, -0.00, -1.00, 520.8, 394.0)">t</text><text xml:space="preserve" font-family="Avenir-Light" font-size="28.0" fill="#FEFFFF" transform="matrix(1.00, 0.00, -0.00, -1.00, 530.1, 394.0)">e</text><text xml:space="preserve" font-family="Avenir-Light" font-size="28.0" fill="#FEFFFF" transform="matrix(1.00, 0.00, -0.00, -1.00, 545.7, 394.0)">r</text><text xml:space="preserve" font-family="Avenir-Light" font-size="28.0" fill="#FEFFFF" transform="matrix(1.00, 0.00, -0.00, -1.00, 555.0, 394.0)">a</text><text xml:space="preserve" font-family="Avenir-Light" font-size="28.0" fill="#FEFFFF" transform="matrix(1.00, 0.00, -0.00, -1.00, 569.5, 394.0)">c</text><text xml:space="preserve" font-family="Avenir-Light" font-size="28.0" fill="#FEFFFF" transform="matrix(1.00, 0.00, -0.00, -1.00, 583.0, 394.0)">t</text><text xml:space="preserve" font-family="Avenir-Light" font-size="28.0" fill="#FEFFFF" transform="matrix(1.00, 0.00, -0.00, -1.00, 592.4, 394.0)">i</text><text xml:space="preserve" font-family="Avenir-Light" font-size="28.0" fill="#FEFFFF" transform="matrix(1.00, 0.00, -0.00, -1.00, 599.1, 394.0)">o</text><text xml:space="preserve" font-family="Avenir-Light" font-size="28.0" fill="#FEFFFF" transform="matrix(1.00, 0.00, -0.00, -1.00, 615.7, 394.0)">n</text><text xml:space="preserve" font-family="Avenir-Light" font-size="28.0" fill="#FEFFFF" transform="matrix(1.00, 0.00, -0.00, -1.00, 631.3, 394.0)"> </text><text xml:space="preserve" font-family="Avenir-Light" font-size="28.0" fill="#FEFFFF" transform="matrix(1.00, 0.00, -0.00, -1.00, 638.6, 394.0)">d</text><text xml:space="preserve" font-family="Avenir-Light" font-size="28.0" fill="#FEFFFF" transform="matrix(1.00, 0.00, -0.00, -1.00, 655.7, 394.0)">e</text><text xml:space="preserve" font-family="Avenir-Light" font-size="28.0" fill="#FEFFFF" transform="matrix(1.00, 0.00, -0.00, -1.00, 671.2, 394.0)">s</text><text xml:space="preserve" font-family="Avenir-Light" font-size="28.0" fill="#FEFFFF" transform="matrix(1.00, 0.00, -0.00, -1.00, 683.2, 394.0)">i</text><text xml:space="preserve" font-family="Avenir-Light" font-size="28.0" fill="#FEFFFF" transform="matrix(1.00, 0.00, -0.00, -1.00, 689.9, 394.0)">g</text><text xml:space="preserve" font-family="Avenir-Light" font-size="28.0" fill="#FEFFFF" transform="matrix(1.00, 0.00, -0.00, -1.00, 707.0, 394.0)">n</text><text xml:space="preserve" font-family="Avenir-Light" font-size="28.0" fill="#FEFFFF" transform="matrix(1.00, 0.00, -0.00, -1.00, 722.6, 394.0)">,</text><text xml:space="preserve" font-family="Avenir-Light" font-size="28.0" fill="#FEFFFF" transform="matrix(1.00, 0.00, -0.00, -1.00, 729.8, 394.0)"> </text><text xml:space="preserve" font-family="Avenir-Light" font-size="28.0" fill="#FEFFFF" transform="matrix(1.00, 0.00, -0.00, -1.00, 737.1, 394.0)">d</text><text xml:space="preserve" font-family="Avenir-Light" font-size="28.0" fill="#FEFFFF" transform="matrix(1.00, 0.00, -0.00, -1.00, 754.2, 394.0)">e</text><text xml:space="preserve" font-family="Avenir-Light" font-size="28.0" fill="#FEFFFF" transform="matrix(1.00, 0.00, -0.00, -1.00, 769.8, 394.0)">s</text><text xml:space="preserve" font-family="Avenir-Light" font-size="28.0" fill="#FEFFFF" transform="matrix(1.00, 0.00, -0.00, -1.00, 781.7, 394.0)">i</text><text xml:space="preserve" font-family="Avenir-Light" font-size="28.0" fill="#FEFFFF" transform="matrix(1.00, 0.00, -0.00, -1.00, 788.4, 394.0)">g</text><text xml:space="preserve" font-family="Avenir-Light" font-size="28.0" fill="#FEFFFF" transform="matrix(1.00, 0.00, -0.00, -1.00, 805.5, 394.0)">n</text><text xml:space="preserve" font-family="Avenir-Light" font-size="28.0" fill="#FEFFFF" transform="matrix(1.00, 0.00, -0.00, -1.00, 821.1, 394.0)"> </text><text xml:space="preserve" font-family="Avenir-Light" font-size="28.0" fill="#FEFFFF" transform="matrix(1.00, 0.00, -0.00, -1.00, 828.4, 394.0)">r</text><text xml:space="preserve" font-family="Avenir-Light" font-size="28.0" fill="#FEFFFF" transform="matrix(1.00, 0.00, -0.00, -1.00, 837.2, 394.0)">e</text><text xml:space="preserve" font-family="Avenir-Light" font-size="28.0" fill="#FEFFFF" transform="matrix(1.00, 0.00, -0.00, -1.00, 852.8, 394.0)">v</text><text xml:space="preserve" font-family="Avenir-Light" font-size="28.0" fill="#FEFFFF" transform="matrix(1.00, 0.00, -0.00, -1.00, 865.7, 394.0)">i</text><text xml:space="preserve" font-family="Avenir-Light" font-size="28.0" fill="#FEFFFF" transform="matrix(1.00, 0.00, -0.00, -1.00, 872.5, 394.0)">e</text><text xml:space="preserve" font-family="Avenir-Light" font-size="28.0" fill="#FEFFFF" transform="matrix(1.00, 0.00, -0.00, -1.00, 888.0, 394.0)">w</text><text xml:space="preserve" font-family="Avenir-Light" font-size="28.0" fill="#FEFFFF" transform="matrix(1.00, 0.00, -0.00, -1.00, 906.2, 394.0)">,</text><text xml:space="preserve" font-family="Avenir-Light" font-size="28.0" fill="#FEFFFF" transform="matrix(1.00, 0.00, -0.00, -1.00, 913.5, 394.0)"> </text><text xml:space="preserve" font-family="Avenir-Light" font-size="28.0" fill="#FEFFFF" transform="matrix(1.00, 0.00, -0.00, -1.00, 194.0, 356.0)">u</text><text xml:space="preserve" font-family="Avenir-Light" font-size="28.0" fill="#FEFFFF" transform="matrix(1.00, 0.00, -0.00, -1.00, 209.6, 356.0)">s</text><text xml:space="preserve" font-family="Avenir-Light" font-size="28.0" fill="#FEFFFF" transform="matrix(1.00, 0.00, -0.00, -1.00, 221.5, 356.0)">a</text><text xml:space="preserve" font-family="Avenir-Light" font-size="28.0" fill="#FEFFFF" transform="matrix(1.00, 0.00, -0.00, -1.00, 236.0, 356.0)">b</text><text xml:space="preserve" font-family="Avenir-Light" font-size="28.0" fill="#FEFFFF" transform="matrix(1.00, 0.00, -0.00, -1.00, 253.1, 356.0)">i</text><text xml:space="preserve" font-family="Avenir-Light" font-size="28.0" fill="#FEFFFF" transform="matrix(1.00, 0.00, -0.00, -1.00, 259.9, 356.0)">l</text><text xml:space="preserve" font-family="Avenir-Light" font-size="28.0" fill="#FEFFFF" transform="matrix(1.00, 0.00, -0.00, -1.00, 266.6, 356.0)">i</text><text xml:space="preserve" font-family="Avenir-Light" font-size="28.0" fill="#FEFFFF" transform="matrix(1.00, 0.00, -0.00, -1.00, 273.3, 356.0)">t</text><text xml:space="preserve" font-family="Avenir-Light" font-size="28.0" fill="#FEFFFF" transform="matrix(1.00, 0.00, -0.00, -1.00, 282.6, 356.0)">y</text><text xml:space="preserve" font-family="Avenir-Light" font-size="28.0" fill="#FEFFFF" transform="matrix(1.00, 0.00, -0.00, -1.00, 295.6, 356.0)"> </text><text xml:space="preserve" font-family="Avenir-Light" font-size="28.0" fill="#FEFFFF" transform="matrix(1.00, 0.00, -0.00, -1.00, 302.9, 356.0)">t</text><text xml:space="preserve" font-family="Avenir-Light" font-size="28.0" fill="#FEFFFF" transform="matrix(1.00, 0.00, -0.00, -1.00, 312.2, 356.0)">e</text><text xml:space="preserve" font-family="Avenir-Light" font-size="28.0" fill="#FEFFFF" transform="matrix(1.00, 0.00, -0.00, -1.00, 327.8, 356.0)">s</text><text xml:space="preserve" font-family="Avenir-Light" font-size="28.0" fill="#FEFFFF" transform="matrix(1.00, 0.00, -0.00, -1.00, 339.7, 356.0)">t</text><text xml:space="preserve" font-family="Avenir-Light" font-size="28.0" fill="#FEFFFF" transform="matrix(1.00, 0.00, -0.00, -1.00, 349.0, 356.0)"> </text><text xml:space="preserve" font-family="Avenir-Light" font-size="21.0" fill="#FEFFFF" transform="matrix(1.00, 0.00, -0.00, -1.00, 171.2, 278.1)">•</text><text xml:space="preserve" font-family="Avenir-Light" font-size="28.0" fill="#FEFFFF" transform="matrix(1.00, 0.00, -0.00, -1.00, 194.0, 276.0)">C</text><text xml:space="preserve" font-family="Avenir-Light" font-size="28.0" fill="#FEFFFF" transform="matrix(1.00, 0.00, -0.00, -1.00, 213.7, 276.0)">o</text><text xml:space="preserve" font-family="Avenir-Light" font-size="28.0" fill="#FEFFFF" transform="matrix(1.00, 0.00, -0.00, -1.00, 230.3, 276.0)">l</text><text xml:space="preserve" font-family="Avenir-Light" font-size="28.0" fill="#FEFFFF" transform="matrix(1.00, 0.00, -0.00, -1.00, 237.1, 276.0)">l</text><text xml:space="preserve" font-family="Avenir-Light" font-size="28.0" fill="#FEFFFF" transform="matrix(1.00, 0.00, -0.00, -1.00, 243.8, 276.0)">a</text><text xml:space="preserve" font-family="Avenir-Light" font-size="28.0" fill="#FEFFFF" transform="matrix(1.00, 0.00, -0.00, -1.00, 258.3, 276.0)">b</text><text xml:space="preserve" font-family="Avenir-Light" font-size="28.0" fill="#FEFFFF" transform="matrix(1.00, 0.00, -0.00, -1.00, 275.5, 276.0)">o</text><text xml:space="preserve" font-family="Avenir-Light" font-size="28.0" fill="#FEFFFF" transform="matrix(1.00, 0.00, -0.00, -1.00, 292.1, 276.0)">r</text><text xml:space="preserve" font-family="Avenir-Light" font-size="28.0" fill="#FEFFFF" transform="matrix(1.00, 0.00, -0.00, -1.00, 301.4, 276.0)">a</text><text xml:space="preserve" font-family="Avenir-Light" font-size="28.0" fill="#FEFFFF" transform="matrix(1.00, 0.00, -0.00, -1.00, 315.9, 276.0)">t</text><text xml:space="preserve" font-family="Avenir-Light" font-size="28.0" fill="#FEFFFF" transform="matrix(1.00, 0.00, -0.00, -1.00, 325.3, 276.0)">e</text><text xml:space="preserve" font-family="Avenir-Light" font-size="28.0" fill="#FEFFFF" transform="matrix(1.00, 0.00, -0.00, -1.00, 340.8, 276.0)"> </text><text xml:space="preserve" font-family="Avenir-Light" font-size="28.0" fill="#FEFFFF" transform="matrix(1.00, 0.00, -0.00, -1.00, 348.1, 276.0)">w</text><text xml:space="preserve" font-family="Avenir-Light" font-size="28.0" fill="#FEFFFF" transform="matrix(1.00, 0.00, -0.00, -1.00, 367.8, 276.0)">i</text><text xml:space="preserve" font-family="Avenir-Light" font-size="28.0" fill="#FEFFFF" transform="matrix(1.00, 0.00, -0.00, -1.00, 374.5, 276.0)">t</text><text xml:space="preserve" font-family="Avenir-Light" font-size="28.0" fill="#FEFFFF" transform="matrix(1.00, 0.00, -0.00, -1.00, 383.9, 276.0)">h</text><text xml:space="preserve" font-family="Avenir-Light" font-size="28.0" fill="#FEFFFF" transform="matrix(1.00, 0.00, -0.00, -1.00, 399.5, 276.0)"> </text><text xml:space="preserve" font-family="Avenir-Light" font-size="28.0" fill="#FEFFFF" transform="matrix(1.00, 0.00, -0.00, -1.00, 406.7, 276.0)">P</text><text xml:space="preserve" font-family="Avenir-Light" font-size="28.0" fill="#FEFFFF" transform="matrix(1.00, 0.00, -0.00, -1.00, 422.8, 276.0)">M</text><text xml:space="preserve" font-family="Avenir-Light" font-size="28.0" fill="#FEFFFF" transform="matrix(1.00, 0.00, -0.00, -1.00, 447.7, 276.0)">,</text><text xml:space="preserve" font-family="Avenir-Light" font-size="28.0" fill="#FEFFFF" transform="matrix(1.00, 0.00, -0.00, -1.00, 455.0, 276.0)"> </text><text xml:space="preserve" font-family="Avenir-Light" font-size="28.0" fill="#FEFFFF" transform="matrix(1.00, 0.00, -0.00, -1.00, 462.3, 276.0)">e</text><text xml:space="preserve" font-family="Avenir-Light" font-size="28.0" fill="#FEFFFF" transform="matrix(1.00, 0.00, -0.00, -1.00, 477.8, 276.0)">n</text><text xml:space="preserve" font-family="Avenir-Light" font-size="28.0" fill="#FEFFFF" transform="matrix(1.00, 0.00, -0.00, -1.00, 493.4, 276.0)">g</text><text xml:space="preserve" font-family="Avenir-Light" font-size="28.0" fill="#FEFFFF" transform="matrix(1.00, 0.00, -0.00, -1.00, 510.5, 276.0)">i</text><text xml:space="preserve" font-family="Avenir-Light" font-size="28.0" fill="#FEFFFF" transform="matrix(1.00, 0.00, -0.00, -1.00, 517.2, 276.0)">n</text><text xml:space="preserve" font-family="Avenir-Light" font-size="28.0" fill="#FEFFFF" transform="matrix(1.00, 0.00, -0.00, -1.00, 532.8, 276.0)">e</text><text xml:space="preserve" font-family="Avenir-Light" font-size="28.0" fill="#FEFFFF" transform="matrix(1.00, 0.00, -0.00, -1.00, 548.4, 276.0)">e</text><text xml:space="preserve" font-family="Avenir-Light" font-size="28.0" fill="#FEFFFF" transform="matrix(1.00, 0.00, -0.00, -1.00, 563.9, 276.0)">r</text><text xml:space="preserve" font-family="Avenir-Light" font-size="28.0" fill="#FEFFFF" transform="matrix(1.00, 0.00, -0.00, -1.00, 573.3, 276.0)">i</text><text xml:space="preserve" font-family="Avenir-Light" font-size="28.0" fill="#FEFFFF" transform="matrix(1.00, 0.00, -0.00, -1.00, 580.0, 276.0)">n</text><text xml:space="preserve" font-family="Avenir-Light" font-size="28.0" fill="#FEFFFF" transform="matrix(1.00, 0.00, -0.00, -1.00, 595.5, 276.0)">g</text><text xml:space="preserve" font-family="Avenir-Light" font-size="28.0" fill="#FEFFFF" transform="matrix(1.00, 0.00, -0.00, -1.00, 612.7, 276.0)">,</text><text xml:space="preserve" font-family="Avenir-Light" font-size="28.0" fill="#FEFFFF" transform="matrix(1.00, 0.00, -0.00, -1.00, 619.9, 276.0)"> </text><text xml:space="preserve" font-family="Avenir-Light" font-size="28.0" fill="#FEFFFF" transform="matrix(1.00, 0.00, -0.00, -1.00, 627.2, 276.0)">(</text><text xml:space="preserve" font-family="Avenir-Light" font-size="28.0" fill="#FEFFFF" transform="matrix(1.00, 0.00, -0.00, -1.00, 634.5, 276.0)">r</text><text xml:space="preserve" font-family="Avenir-Light" font-size="28.0" fill="#FEFFFF" transform="matrix(1.00, 0.00, -0.00, -1.00, 643.3, 276.0)">e</text><text xml:space="preserve" font-family="Avenir-Light" font-size="28.0" fill="#FEFFFF" transform="matrix(1.00, 0.00, -0.00, -1.00, 658.9, 276.0)">s</text><text xml:space="preserve" font-family="Avenir-Light" font-size="28.0" fill="#FEFFFF" transform="matrix(1.00, 0.00, -0.00, -1.00, 670.8, 276.0)">e</text><text xml:space="preserve" font-family="Avenir-Light" font-size="28.0" fill="#FEFFFF" transform="matrix(1.00, 0.00, -0.00, -1.00, 686.4, 276.0)">a</text><text xml:space="preserve" font-family="Avenir-Light" font-size="28.0" fill="#FEFFFF" transform="matrix(1.00, 0.00, -0.00, -1.00, 700.9, 276.0)">r</text><text xml:space="preserve" font-family="Avenir-Light" font-size="28.0" fill="#FEFFFF" transform="matrix(1.00, 0.00, -0.00, -1.00, 709.7, 276.0)">c</text><text xml:space="preserve" font-family="Avenir-Light" font-size="28.0" fill="#FEFFFF" transform="matrix(1.00, 0.00, -0.00, -1.00, 723.2, 276.0)">h</text><text xml:space="preserve" font-family="Avenir-Light" font-size="28.0" fill="#FEFFFF" transform="matrix(1.00, 0.00, -0.00, -1.00, 738.8, 276.0)">e</text><text xml:space="preserve" font-family="Avenir-Light" font-size="28.0" fill="#FEFFFF" transform="matrix(1.00, 0.00, -0.00, -1.00, 754.3, 276.0)">r</text><text xml:space="preserve" font-family="Avenir-Light" font-size="28.0" fill="#FEFFFF" transform="matrix(1.00, 0.00, -0.00, -1.00, 763.7, 276.0)">s</text><text xml:space="preserve" font-family="Avenir-Light" font-size="28.0" fill="#FEFFFF" transform="matrix(1.00, 0.00, -0.00, -1.00, 775.6, 276.0)">,</text><text xml:space="preserve" font-family="Avenir-Light" font-size="28.0" fill="#FEFFFF" transform="matrix(1.00, 0.00, -0.00, -1.00, 782.9, 276.0)"> </text><text xml:space="preserve" font-family="Avenir-Light" font-size="28.0" fill="#FEFFFF" transform="matrix(1.00, 0.00, -0.00, -1.00, 790.1, 276.0)">e</text><text xml:space="preserve" font-family="Avenir-Light" font-size="28.0" fill="#FEFFFF" transform="matrix(1.00, 0.00, -0.00, -1.00, 805.7, 276.0)">d</text><text xml:space="preserve" font-family="Avenir-Light" font-size="28.0" fill="#FEFFFF" transform="matrix(1.00, 0.00, -0.00, -1.00, 822.9, 276.0)">i</text><text xml:space="preserve" font-family="Avenir-Light" font-size="28.0" fill="#FEFFFF" transform="matrix(1.00, 0.00, -0.00, -1.00, 829.6, 276.0)">t</text><text xml:space="preserve" font-family="Avenir-Light" font-size="28.0" fill="#FEFFFF" transform="matrix(1.00, 0.00, -0.00, -1.00, 838.9, 276.0)">o</text><text xml:space="preserve" font-family="Avenir-Light" font-size="28.0" fill="#FEFFFF" transform="matrix(1.00, 0.00, -0.00, -1.00, 855.5, 276.0)">r</text><text xml:space="preserve" font-family="Avenir-Light" font-size="28.0" fill="#FEFFFF" transform="matrix(1.00, 0.00, -0.00, -1.00, 864.9, 276.0)">s</text><text xml:space="preserve" font-family="Avenir-Light" font-size="28.0" fill="#FEFFFF" transform="matrix(1.00, 0.00, -0.00, -1.00, 876.8, 276.0)">)</text><text xml:space="preserve" font-family="Avenir-Light" font-size="28.0" fill="#FEFFFF" transform="matrix(1.00, 0.00, -0.00, -1.00, 884.1, 276.0)"> </text><text xml:space="preserve" font-family="Avenir-Light" font-size="21.0" fill="#FEFFFF" transform="matrix(1.00, 0.00, -0.00, -1.00, 171.2, 198.1)">•</text><text xml:space="preserve" font-family="Avenir-Light" font-size="28.0" fill="#FEFFFF" transform="matrix(1.00, 0.00, -0.00, -1.00, 194.0, 196.0)">H</text><text xml:space="preserve" font-family="Avenir-Light" font-size="28.0" fill="#FEFFFF" transform="matrix(1.00, 0.00, -0.00, -1.00, 214.2, 196.0)">o</text><text xml:space="preserve" font-family="Avenir-Light" font-size="28.0" fill="#FEFFFF" transform="matrix(1.00, 0.00, -0.00, -1.00, 230.8, 196.0)">s</text><text xml:space="preserve" font-family="Avenir-Light" font-size="28.0" fill="#FEFFFF" transform="matrix(1.00, 0.00, -0.00, -1.00, 242.8, 196.0)">t</text><text xml:space="preserve" font-family="Avenir-Light" font-size="28.0" fill="#FEFFFF" transform="matrix(1.00, 0.00, -0.00, -1.00, 252.1, 196.0)"> </text><text xml:space="preserve" font-family="Avenir-Light" font-size="28.0" fill="#FEFFFF" transform="matrix(1.00, 0.00, -0.00, -1.00, 259.4, 196.0)">o</text><text xml:space="preserve" font-family="Avenir-Light" font-size="28.0" fill="#FEFFFF" transform="matrix(1.00, 0.00, -0.00, -1.00, 276.0, 196.0)">f</text><text xml:space="preserve" font-family="Avenir-Light" font-size="28.0" fill="#FEFFFF" transform="matrix(1.00, 0.00, -0.00, -1.00, 283.8, 196.0)">f</text><text xml:space="preserve" font-family="Avenir-Light" font-size="28.0" fill="#FEFFFF" transform="matrix(1.00, 0.00, -0.00, -1.00, 292.1, 196.0)">i</text><text xml:space="preserve" font-family="Avenir-Light" font-size="28.0" fill="#FEFFFF" transform="matrix(1.00, 0.00, -0.00, -1.00, 298.8, 196.0)">c</text><text xml:space="preserve" font-family="Avenir-Light" font-size="28.0" fill="#FEFFFF" transform="matrix(1.00, 0.00, -0.00, -1.00, 312.3, 196.0)">e</text><text xml:space="preserve" font-family="Avenir-Light" font-size="28.0" fill="#FEFFFF" transform="matrix(1.00, 0.00, -0.00, -1.00, 327.8, 196.0)"> </text><text xml:space="preserve" font-family="Avenir-Light" font-size="28.0" fill="#FEFFFF" transform="matrix(1.00, 0.00, -0.00, -1.00, 335.1, 196.0)">h</text><text xml:space="preserve" font-family="Avenir-Light" font-size="28.0" fill="#FEFFFF" transform="matrix(1.00, 0.00, -0.00, -1.00, 350.7, 196.0)">o</text><text xml:space="preserve" font-family="Avenir-Light" font-size="28.0" fill="#FEFFFF" transform="matrix(1.00, 0.00, -0.00, -1.00, 367.3, 196.0)">u</text><text xml:space="preserve" font-family="Avenir-Light" font-size="28.0" fill="#FEFFFF" transform="matrix(1.00, 0.00, -0.00, -1.00, 382.9, 196.0)">r</text><text xml:space="preserve" font-family="Avenir-Light" font-size="28.0" fill="#FEFFFF" transform="matrix(1.00, 0.00, -0.00, -1.00, 392.2, 196.0)">s</text><text xml:space="preserve" font-family="Avenir-Book" font-size="18.0" fill="#FEFFFF" transform="matrix(1.00, 0.00, -0.00, -1.00, 506.0, 17.0)">3</text></g></svg>