<?xml version="1.0" encoding="UTF-8" standalone="no"?><svg xmlns="http://www.w3.org/2000/svg" xmlns:xlink="http://www.w3.org/1999/xlink" clip-rule="evenodd" stroke-miterlimit="4.00" viewBox="0 0 1024 768"><desc>SVG generated by Keynote</desc><defs></defs><g transform="matrix(1.00, 0.00, -0.00, -1.00, 0.0, 768.0)"><path d="M 0.0 768.0 L 1024.0 768.0 L 1024.0 0.0 L 0.0 0.0 Z M 0.0 768.0 " fill="#000000"></path><text xml:space="preserve" font-family="Avenir-Light" font-size="75.0" fill="#54A3EA" transform="matrix(1.00, 0.00, -0.00, -1.00, 288.0, 374.0)">J</text><text xml:space="preserve" font-family="Avenir-Light" font-size="75.0" fill="#54A3EA" transform="matrix(1.00, 0.00, -0.00, -1.00, 324.1, 374.0)">e</text><text xml:space="preserve" font-family="Avenir-Light" font-size="75.0" fill="#54A3EA" transform="matrix(1.00, 0.00, -0.00, -1.00, 365.9, 374.0)">s</text><text xml:space="preserve" font-family="Avenir-Light" font-size="75.0" fill="#54A3EA" transform="matrix(1.00, 0.00, -0.00, -1.00, 397.8, 374.0)">s</text><text xml:space="preserve" font-family="Avenir-Light" font-size="75.0" fill="#54A3EA" transform="matrix(1.00, 0.00, -0.00, -1.00, 429.8, 374.0)">i</text><text xml:space="preserve" font-family="Avenir-Light" font-size="75.0" fill="#54A3EA" transform="matrix(1.00, 0.00, -0.00, -1.00, 447.8, 374.0)">c</text><text xml:space="preserve" font-family="Avenir-Light" font-size="75.0" fill="#54A3EA" transform="matrix(1.00, 0.00, -0.00, -1.00, 483.8, 374.0)">a</text><text xml:space="preserve" font-family="Avenir-Light" font-size="75.0" fill="#FEFFFF" transform="matrix(1.00, 0.00, -0.00, -1.00, 522.8, 374.0)"> </text><text xml:space="preserve" font-family="Avenir-Light" font-size="75.0" fill="#FEFFFF" transform="matrix(1.00, 0.00, -0.00, -1.00, 542.2, 374.0)">W</text><text xml:space="preserve" font-family="Avenir-Light" font-size="75.0" fill="#FEFFFF" transform="matrix(1.00, 0.00, -0.00, -1.00, 610.3, 374.0)">a</text><text xml:space="preserve" font-family="Avenir-Light" font-size="75.0" fill="#FEFFFF" transform="matrix(1.00, 0.00, -0.00, -1.00, 649.2, 374.0)">n</text><text xml:space="preserve" font-family="Avenir-Light" font-size="75.0" fill="#FEFFFF" transform="matrix(1.00, 0.00, -0.00, -1.00, 690.9, 374.0)">g</text><text xml:space="preserve" font-family="Avenir-Light" font-size="33.8" fill="#FEFFFF" transform="matrix(1.00, 0.00, -0.00, -1.00, 640.0, 273.0)">U</text><text xml:space="preserve" font-family="Avenir-Light" font-size="33.8" fill="#FEFFFF" transform="matrix(1.00, 0.00, -0.00, -1.00, 663.1, 273.0)">X</text><text xml:space="preserve" font-family="Avenir-Light" font-size="33.8" fill="#FEFFFF" transform="matrix(1.00, 0.00, -0.00, -1.00, 683.8, 273.0)"> </text><text xml:space="preserve" font-family="Avenir-Light" font-size="33.8" fill="#FEFFFF" transform="matrix(1.00, 0.00, -0.00, -1.00, 692.6, 273.0)">D</text><text xml:space="preserve" font-family="Avenir-Light" font-size="33.8" fill="#FEFFFF" transform="matrix(1.00, 0.00, -0.00, -1.00, 717.6, 273.0)">e</text><text xml:space="preserve" font-family="Avenir-Light" font-size="33.8" fill="#FEFFFF" transform="matrix(1.00, 0.00, -0.00, -1.00, 736.4, 273.0)">s</text><text xml:space="preserve" font-family="Avenir-Light" font-size="33.8" fill="#FEFFFF" transform="matrix(1.00, 0.00, -0.00, -1.00, 750.8, 273.0)">i</text><text xml:space="preserve" font-family="Avenir-Light" font-size="33.8" fill="#FEFFFF" transform="matrix(1.00, 0.00, -0.00, -1.00, 758.9, 273.0)">g</text><text xml:space="preserve" font-family="Avenir-Light" font-size="33.8" fill="#FEFFFF" transform="matrix(1.00, 0.00, -0.00, -1.00, 779.6, 273.0)">n</text><text xml:space="preserve" font-family="Helvetica-Light" font-size="18.0" fill="#FEFFFF" transform="matrix(1.00, 0.00, -0.00, -1.00, 506.0, 17.0)">1</text></g></svg>