<?xml version="1.0" encoding="UTF-8" standalone="no"?><svg xmlns="http://www.w3.org/2000/svg" xmlns:xlink="http://www.w3.org/1999/xlink" clip-rule="evenodd" stroke-miterlimit="4.00" viewBox="0 0 1024 768"><desc>SVG generated by Keynote</desc><defs><linearGradient id="gradSh1.0" x1="512.0" y1="0.0" x2="512.0" y2="1024.0" gradientUnits="userSpaceOnUse" gradientTransform="matrix(0.77, 0.00, 0.00, -0.77, 545.6, 765.0)"><stop offset="0.00000" stop-color="#C25981"></stop><stop offset="0.00587" stop-color="#C25881"></stop><stop offset="0.07845" stop-color="#BC527F"></stop><stop offset="0.08138" stop-color="#BB527F"></stop><stop offset="0.27786" stop-color="#AC3F7C"></stop><stop offset="0.28006" stop-color="#AB3F7C"></stop><stop offset="1.00000" stop-color="#24356D"></stop></linearGradient><linearGradient id="gradSh2.1" x1="356.5" y1="0.0" x2="356.5" y2="772.6" gradientUnits="userSpaceOnUse" gradientTransform="matrix(0.77, 0.00, 0.00, -0.77, 545.6, 765.0)"><stop offset="0.00000" stop-color="#C25981"></stop><stop offset="0.00587" stop-color="#C25881"></stop><stop offset="0.07845" stop-color="#BC527F"></stop><stop offset="0.08138" stop-color="#BB527F"></stop><stop offset="0.27786" stop-color="#AC3F7C"></stop><stop offset="0.28006" stop-color="#AB3F7C"></stop><stop offset="1.00000" stop-color="#24356D"></stop></linearGradient><linearGradient id="gradSh3.2" x1="512.1" y1="-0.3" x2="512.1" y2="1023.4" gradientUnits="userSpaceOnUse" gradientTransform="matrix(0.77, 0.00, 0.00, -0.77, 595.7, 714.8)"><stop offset="0.00000" stop-color="#FFFFFF"></stop><stop offset="0.01979" stop-color="#FEFEFE"></stop><stop offset="1.00000" stop-color="#E5E5E5"></stop></linearGradient><linearGradient id="gradSh4.3" x1="291.8" y1="-0.2" x2="291.8" y2="631.8" gradientUnits="userSpaceOnUse" gradientTransform="matrix(0.77, 0.00, 0.00, -0.77, 595.7, 714.8)"><stop offset="0.00000" stop-color="#FFFFFF"></stop><stop offset="0.01979" stop-color="#FEFEFE"></stop><stop offset="1.00000" stop-color="#E5E5E5"></stop></linearGradient></defs><g transform="matrix(1.00, 0.00, -0.00, -1.00, 0.0, 768.0)"><path d="M 0.0 768.0 L 1024.0 768.0 L 1024.0 0.0 L 0.0 0.0 Z M 0.0 768.0 " fill="#000000"></path><g><clipPath id="clip-1141"><path d="M 0.0 0.0 L 1024.0 0.0 L 1024.0 768.0 L 0.0 768.0 Z M 0.0 0.0 "></path></clipPath><g clip-path="url(#clip-1141)"><g><g><clipPath id="clip-1142"><path d="M 0.0 768.0 L 1024.0 768.0 L 1024.0 0.0 L 0.0 0.0 Z M 0.0 768.0 "></path></clipPath><g clip-path="url(#clip-1142)"><g><clipPath id="clip-1143"><path d="M -4.6 768.0 L 1024.0 768.0 L 1024.0 0.0 L -4.6 0.0 L -4.6 768.0 Z M -4.6 768.0 "></path></clipPath><g clip-path="url(#clip-1143)"><g><clipPath id="clip-1144"><path d="M 0.0 0.0 L 1024.0 0.0 L 1024.0 768.0 L 0.0 768.0 Z M 0.0 0.0 "></path></clipPath><g clip-path="url(#clip-1144)"><g><g><clipPath id="clip-1145"><path d="M 0.0 0.0 L 1024.0 0.0 L 1024.0 768.0 L 0.0 768.0 Z M 0.0 0.0 "></path></clipPath><g clip-path="url(#clip-1145)"><path d="M -8.5 771.9 L 1027.9 771.9 L 1027.9 -3.9 L -8.5 -3.9 Z M -8.5 771.9 " fill="#C762A0"></path></g></g><g><clipPath id="clip-1146"><path d="M 0.0 0.0 L 1024.0 0.0 L 1024.0 768.0 L 0.0 768.0 Z M 0.0 0.0 "></path></clipPath><g clip-path="url(#clip-1146)"><g opacity="0.41"><g><clipPath id="clip-1147"><path d="M 81.1 163.2 L 1024.0 163.2 L 1024.0 765.7 L 81.1 765.7 Z M 81.1 163.2 "></path></clipPath><g clip-path="url(#clip-1147)"><g><g><clipPath id="clip-1148"><path d="M 824.9 163.3 C 772.5 163.3 723.8 190.9 695.1 236.1 C 642.7 238.6 594.0 267.5 567.8 314.0 C 547.8 349.2 541.6 391.9 552.8 432.1 C 555.3 443.4 560.3 453.4 565.3 464.8 C 540.3 512.5 541.6 567.8 567.8 614.2 C 594.0 659.5 642.7 689.6 695.1 692.1 C 723.8 737.3 772.5 765.0 824.9 765.0 C 877.3 765.0 926.0 738.6 954.7 692.1 C 1007.1 689.6 1055.8 660.7 1082.0 614.2 C 1108.2 567.8 1109.5 512.5 1084.5 464.8 C 1089.5 454.7 1094.5 443.4 1097.0 432.1 C 1108.2 391.9 1102.0 350.4 1082.0 314.0 C 1055.8 268.8 1007.1 238.6 954.7 236.1 C 927.2 190.9 878.6 163.3 824.9 163.3 L 824.9 163.3 Z M 824.9 163.3 "></path></clipPath><g clip-path="url(#clip-1148)"><g><clipPath id="clip-1149"><path d="M 81.1 163.2 L 1024.0 163.2 L 1024.0 765.7 L 81.1 765.7 Z M 81.1 163.2 "></path></clipPath><g clip-path="url(#clip-1149)"><path d="M 543.4 768.9 L 1106.4 768.9 L 1106.4 159.4 L 543.4 159.4 Z M 543.4 768.9 " fill="#24346D"></path></g></g></g></g><g><clipPath id="clip-1150"><path d="M 692.5 692.2 C 639.9 690.9 592.3 662.0 566.1 615.6 C 538.5 569.2 539.8 512.7 563.6 466.2 C 558.6 456.2 553.6 444.9 551.1 433.6 C 541.0 393.4 546.0 353.2 566.1 316.8 C 592.3 271.6 639.9 242.8 692.5 240.3 C 720.0 196.3 768.8 167.4 821.4 167.4 C 873.9 167.4 924.0 195.1 950.3 240.3 C 1002.8 242.8 1050.4 271.6 1076.6 316.8 C 1096.7 352.0 1101.7 393.4 1091.7 433.6 C 1089.2 444.9 1084.2 456.2 1079.1 466.2 C 1102.9 511.4 1102.9 567.9 1076.6 615.6 C 1050.4 660.8 1001.6 690.9 950.3 692.2 C 922.7 736.1 873.9 765.0 821.4 765.0 C 768.8 765.0 720.0 736.1 692.5 692.2 L 692.5 692.2 Z M 692.5 692.2 "></path></clipPath><g clip-path="url(#clip-1150)"><g><clipPath id="clip-1151"><path d="M 545.6 167.4 L 1024.0 167.4 L 1024.0 765.0 L 545.6 765.0 Z M 545.6 167.4 "></path></clipPath><g clip-path="url(#clip-1151)"><path d="M 545.6 167.4 L 1024.0 167.4 L 1024.0 765.0 L 545.6 765.0 Z M 545.6 167.4 " fill="url(#gradSh1.0)"></path></g></g></g></g><g><clipPath id="clip-1152"><path d="M 692.5 692.2 C 639.9 690.9 592.3 662.0 566.1 615.6 C 538.5 569.2 539.8 512.7 563.6 466.2 C 558.6 456.2 553.6 444.9 551.1 433.6 C 541.0 393.4 546.0 353.2 566.1 316.8 C 592.3 271.6 639.9 242.8 692.5 240.3 C 720.0 196.3 768.8 167.4 821.4 167.4 C 873.9 167.4 924.0 195.1 950.3 240.3 C 1002.8 242.8 1050.4 271.6 1076.6 316.8 C 1096.7 352.0 1101.7 393.4 1091.7 433.6 C 1089.2 444.9 1084.2 456.2 1079.1 466.2 C 1102.9 511.4 1102.9 567.9 1076.6 615.6 C 1050.4 660.8 1001.6 690.9 950.3 692.2 C 922.7 736.1 873.9 765.0 821.4 765.0 C 768.8 765.0 720.0 736.1 692.5 692.2 L 692.5 692.2 Z M 692.5 692.2 "></path></clipPath><g clip-path="url(#clip-1152)"><g><clipPath id="clip-1153"><path d="M 81.1 163.2 L 1024.0 163.2 L 1024.0 765.7 L 81.1 765.7 Z M 81.1 163.2 "></path></clipPath><g clip-path="url(#clip-1153)"><path d="M 81.1 163.2 L 1024.0 163.2 L 1024.0 765.7 L 81.1 765.7 Z M 81.1 163.2 " fill="url(#gradSh2.1)"></path></g></g></g></g><image xlink:href="1C2F99E30B87FAD95BC0469AC7AC0655.png" width="435.00" height="502.00" transform="matrix(1.00, 0.00, -0.00, -1.00, 589.0, 718.0)"></image><g><clipPath id="clip-1154"><path d="M 577.9 194.2 L 1024.0 194.2 L 1024.0 732.6 L 577.9 732.6 Z M 577.9 194.2 "></path></clipPath><g clip-path="url(#clip-1154)"><path d="M -270.4 639.6 C -279.2 642.1 -287.9 643.4 -296.7 643.4 C -333.0 643.4 -365.6 624.6 -384.4 593.2 C -408.2 553.1 -399.4 501.7 -368.1 470.4 C -380.6 457.9 -389.4 442.8 -394.4 424.0 C -401.9 397.7 -398.1 370.1 -384.4 347.5 C -366.8 316.2 -333.0 297.4 -296.7 297.4 C -287.9 297.4 -279.2 298.7 -270.4 301.2 C -259.1 257.3 -220.3 225.9 -172.7 225.9 C -125.1 225.9 -86.3 258.5 -75.1 301.2 C -66.3 298.7 -57.5 297.4 -48.8 297.4 C -12.4 297.4 21.4 316.2 38.9 347.5 C 52.7 371.4 56.4 397.7 48.9 424.0 C 43.9 441.6 35.1 457.9 22.6 470.4 C 53.9 501.7 62.7 551.9 38.9 593.2 C 21.4 624.6 -12.4 643.4 -48.8 643.4 C -57.5 643.4 -66.3 642.1 -75.1 639.6 C -86.3 683.5 -126.4 714.8 -172.7 714.8 C -219.1 714.8 -259.1 683.5 -270.4 639.6 L -270.4 639.6 Z M -200.3 516.8 C -185.3 525.6 -180.2 545.6 -189.0 560.7 C -191.5 565.7 -196.5 570.7 -201.5 573.2 C -215.3 582.0 -222.8 597.0 -222.8 613.3 C -222.8 639.6 -201.5 662.2 -174.0 662.2 C -147.7 662.2 -125.1 640.9 -125.1 613.3 C -125.1 597.0 -132.7 582.0 -146.4 573.2 C -151.4 569.4 -155.2 565.7 -159.0 560.7 C -167.7 545.6 -162.7 525.6 -146.4 516.8 C -131.4 508.0 -111.4 513.0 -102.6 529.3 C -100.1 534.3 -97.6 540.6 -97.6 546.9 C -96.3 563.2 -87.6 576.9 -73.8 585.7 C -51.3 599.5 -21.2 590.7 -7.4 568.2 C 6.3 544.4 -2.4 515.5 -25.0 501.7 C -38.7 494.2 -56.3 493.0 -70.1 500.5 C -75.1 503.0 -81.3 504.2 -87.6 504.2 C -105.1 504.2 -120.1 489.2 -120.1 471.6 C -120.1 454.1 -105.1 439.1 -87.6 439.1 C -81.3 439.1 -75.1 440.3 -70.1 442.8 C -55.0 450.3 -38.7 449.1 -25.0 441.6 C -2.4 427.8 6.3 398.9 -7.4 375.1 C -21.2 351.3 -50.0 343.8 -73.8 357.6 C -87.6 366.3 -96.3 380.1 -97.6 396.4 C -97.6 402.7 -100.1 407.7 -102.6 414.0 C -111.4 429.0 -131.4 435.3 -146.4 425.3 C -161.5 416.5 -166.5 396.4 -159.0 381.4 C -156.5 376.4 -151.4 371.4 -146.4 368.9 C -132.7 360.1 -125.1 345.0 -125.1 328.7 C -125.1 302.4 -146.4 279.9 -174.0 279.9 C -200.3 279.9 -222.8 301.2 -222.8 328.7 C -222.8 345.0 -215.3 360.1 -201.5 368.9 C -196.5 372.6 -192.8 376.4 -189.0 381.4 C -180.2 396.4 -185.3 416.5 -200.3 425.3 C -215.3 434.0 -235.3 429.0 -244.1 414.0 C -246.6 409.0 -249.1 402.7 -249.1 396.4 C -250.4 380.1 -259.1 366.3 -272.9 357.6 C -295.5 343.8 -325.5 352.6 -339.3 375.1 C -353.1 397.7 -344.3 427.8 -321.7 441.6 C -308.0 449.1 -290.4 450.3 -276.7 442.8 C -271.7 440.3 -265.4 439.1 -259.1 439.1 C -241.6 439.1 -226.6 454.1 -226.6 471.6 C -226.6 489.2 -241.6 504.2 -259.1 504.2 C -265.4 504.2 -270.4 503.0 -276.7 500.5 C -291.7 493.0 -308.0 494.2 -321.7 501.7 C -344.3 515.5 -353.1 544.4 -339.3 568.2 C -325.5 590.7 -296.7 599.5 -272.9 585.7 C -259.1 576.9 -250.4 563.2 -249.1 546.9 C -249.1 540.6 -246.6 535.6 -244.1 529.3 C -237.8 519.3 -226.6 513.0 -216.6 513.0 C -210.3 511.8 -205.3 513.0 -200.3 516.8 L -200.3 516.8 Z M -200.3 516.8 " fill="#919191"></path></g></g><g><clipPath id="clip-1155"><path d="M 723.5 639.6 C 714.7 642.1 705.9 643.4 697.2 643.4 C 660.8 643.4 628.3 624.6 609.5 593.2 C 585.7 553.1 594.5 501.7 625.8 470.4 C 613.3 457.9 604.5 442.8 599.5 424.0 C 592.0 397.7 595.7 370.1 609.5 347.5 C 627.0 316.2 660.8 297.4 697.2 297.4 C 705.9 297.4 714.7 298.7 723.5 301.2 C 734.7 257.3 773.5 225.9 821.1 225.9 C 868.7 225.9 907.5 258.5 918.8 301.2 C 927.6 298.7 936.3 297.4 945.1 297.4 C 981.4 297.4 1015.2 316.2 1032.8 347.5 C 1046.5 371.4 1050.3 397.7 1042.8 424.0 C 1037.8 441.6 1029.0 457.9 1016.5 470.4 C 1047.8 501.7 1056.5 551.9 1032.8 593.2 C 1015.2 624.6 981.4 643.4 945.1 643.4 C 936.3 643.4 927.6 642.1 918.8 639.6 C 907.5 683.5 867.5 714.8 821.1 714.8 C 774.8 714.8 734.7 683.5 723.5 639.6 L 723.5 639.6 Z M 793.6 516.8 C 808.6 525.6 813.6 545.6 804.8 560.7 C 802.3 565.7 797.3 570.7 792.3 573.2 C 778.5 582.0 771.0 597.0 771.0 613.3 C 771.0 639.6 792.3 662.2 819.9 662.2 C 846.2 662.2 868.7 640.9 868.7 613.3 C 868.7 597.0 861.2 582.0 847.4 573.2 C 842.4 569.4 838.7 565.7 834.9 560.7 C 826.1 545.6 831.1 525.6 847.4 516.8 C 862.4 508.0 882.5 513.0 891.3 529.3 C 893.8 534.3 896.3 540.6 896.3 546.9 C 897.5 563.2 906.3 576.9 920.1 585.7 C 942.6 599.5 972.6 590.7 986.4 568.2 C 1000.2 544.4 991.4 515.5 968.9 501.7 C 955.1 494.2 937.6 493.0 923.8 500.5 C 918.8 503.0 912.5 504.2 906.3 504.2 C 888.7 504.2 873.7 489.2 873.7 471.6 C 873.7 454.1 888.7 439.1 906.3 439.1 C 912.5 439.1 918.8 440.3 923.8 442.8 C 938.8 450.3 955.1 449.1 968.9 441.6 C 991.4 427.8 1000.2 398.9 986.4 375.1 C 972.6 351.3 943.8 343.8 920.1 357.6 C 906.3 366.3 897.5 380.1 896.3 396.4 C 896.3 402.7 893.8 407.7 891.3 414.0 C 882.5 429.0 862.4 435.3 847.4 425.3 C 832.4 416.5 827.4 396.4 834.9 381.4 C 837.4 376.4 842.4 371.4 847.4 368.9 C 861.2 360.1 868.7 345.0 868.7 328.7 C 868.7 302.4 847.4 279.9 819.9 279.9 C 793.6 279.9 771.0 301.2 771.0 328.7 C 771.0 345.0 778.5 360.1 792.3 368.9 C 797.3 372.6 801.1 376.4 804.8 381.4 C 813.6 396.4 808.6 416.5 793.6 425.3 C 778.5 434.0 758.5 429.0 749.7 414.0 C 747.2 409.0 744.7 402.7 744.7 396.4 C 743.5 380.1 734.7 366.3 720.9 357.6 C 698.4 343.8 668.4 352.6 654.6 375.1 C 640.8 397.7 649.6 427.8 672.1 441.6 C 685.9 449.1 703.4 450.3 717.2 442.8 C 722.2 440.3 728.5 439.1 734.7 439.1 C 752.3 439.1 767.3 454.1 767.3 471.6 C 767.3 489.2 752.3 504.2 734.7 504.2 C 728.5 504.2 723.5 503.0 717.2 500.5 C 702.2 493.0 685.9 494.2 672.1 501.7 C 649.6 515.5 640.8 544.4 654.6 568.2 C 668.4 590.7 697.2 599.5 720.9 585.7 C 734.7 576.9 743.5 563.2 744.7 546.9 C 744.7 540.6 747.2 535.6 749.7 529.3 C 756.0 519.3 767.3 513.0 777.3 513.0 C 783.6 511.8 788.6 513.0 793.6 516.8 L 793.6 516.8 Z M 793.6 516.8 "></path></clipPath><g clip-path="url(#clip-1155)"><g><clipPath id="clip-1156"><path d="M 595.7 225.9 L 1024.0 225.9 L 1024.0 714.8 L 595.7 714.8 Z M 595.7 225.9 "></path></clipPath><g clip-path="url(#clip-1156)"><path d="M 595.7 225.9 L 1024.0 225.9 L 1024.0 714.8 L 595.7 714.8 Z M 595.7 225.9 " fill="url(#gradSh3.2)"></path></g></g></g></g><g><clipPath id="clip-1157"><path d="M 723.5 639.6 C 714.7 642.1 705.9 643.4 697.2 643.4 C 660.8 643.4 628.3 624.6 609.5 593.2 C 585.7 553.1 594.5 501.7 625.8 470.4 C 613.3 457.9 604.5 442.8 599.5 424.0 C 592.0 397.7 595.7 370.1 609.5 347.5 C 627.0 316.2 660.8 297.4 697.2 297.4 C 705.9 297.4 714.7 298.7 723.5 301.2 C 734.7 257.3 773.5 225.9 821.1 225.9 C 868.7 225.9 907.5 258.5 918.8 301.2 C 927.6 298.7 936.3 297.4 945.1 297.4 C 981.4 297.4 1015.2 316.2 1032.8 347.5 C 1046.5 371.4 1050.3 397.7 1042.8 424.0 C 1037.8 441.6 1029.0 457.9 1016.5 470.4 C 1047.8 501.7 1056.5 551.9 1032.8 593.2 C 1015.2 624.6 981.4 643.4 945.1 643.4 C 936.3 643.4 927.6 642.1 918.8 639.6 C 907.5 683.5 867.5 714.8 821.1 714.8 C 774.8 714.8 734.7 683.5 723.5 639.6 L 723.5 639.6 Z M 793.6 516.8 C 808.6 525.6 813.6 545.6 804.8 560.7 C 802.3 565.7 797.3 570.7 792.3 573.2 C 778.5 582.0 771.0 597.0 771.0 613.3 C 771.0 639.6 792.3 662.2 819.9 662.2 C 846.2 662.2 868.7 640.9 868.7 613.3 C 868.7 597.0 861.2 582.0 847.4 573.2 C 842.4 569.4 838.7 565.7 834.9 560.7 C 826.1 545.6 831.1 525.6 847.4 516.8 C 862.4 508.0 882.5 513.0 891.3 529.3 C 893.8 534.3 896.3 540.6 896.3 546.9 C 897.5 563.2 906.3 576.9 920.1 585.7 C 942.6 599.5 972.6 590.7 986.4 568.2 C 1000.2 544.4 991.4 515.5 968.9 501.7 C 955.1 494.2 937.6 493.0 923.8 500.5 C 918.8 503.0 912.5 504.2 906.3 504.2 C 888.7 504.2 873.7 489.2 873.7 471.6 C 873.7 454.1 888.7 439.1 906.3 439.1 C 912.5 439.1 918.8 440.3 923.8 442.8 C 938.8 450.3 955.1 449.1 968.9 441.6 C 991.4 427.8 1000.2 398.9 986.4 375.1 C 972.6 351.3 943.8 343.8 920.1 357.6 C 906.3 366.3 897.5 380.1 896.3 396.4 C 896.3 402.7 893.8 407.7 891.3 414.0 C 882.5 429.0 862.4 435.3 847.4 425.3 C 832.4 416.5 827.4 396.4 834.9 381.4 C 837.4 376.4 842.4 371.4 847.4 368.9 C 861.2 360.1 868.7 345.0 868.7 328.7 C 868.7 302.4 847.4 279.9 819.9 279.9 C 793.6 279.9 771.0 301.2 771.0 328.7 C 771.0 345.0 778.5 360.1 792.3 368.9 C 797.3 372.6 801.1 376.4 804.8 381.4 C 813.6 396.4 808.6 416.5 793.6 425.3 C 778.5 434.0 758.5 429.0 749.7 414.0 C 747.2 409.0 744.7 402.7 744.7 396.4 C 743.5 380.1 734.7 366.3 720.9 357.6 C 698.4 343.8 668.4 352.6 654.6 375.1 C 640.8 397.7 649.6 427.8 672.1 441.6 C 685.9 449.1 703.4 450.3 717.2 442.8 C 722.2 440.3 728.5 439.1 734.7 439.1 C 752.3 439.1 767.3 454.1 767.3 471.6 C 767.3 489.2 752.3 504.2 734.7 504.2 C 728.5 504.2 723.5 503.0 717.2 500.5 C 702.2 493.0 685.9 494.2 672.1 501.7 C 649.6 515.5 640.8 544.4 654.6 568.2 C 668.4 590.7 697.2 599.5 720.9 585.7 C 734.7 576.9 743.5 563.2 744.7 546.9 C 744.7 540.6 747.2 535.6 749.7 529.3 C 756.0 519.3 767.3 513.0 777.3 513.0 C 783.6 511.8 788.6 513.0 793.6 516.8 L 793.6 516.8 Z M 793.6 516.8 "></path></clipPath><g clip-path="url(#clip-1157)"><g><clipPath id="clip-1158"><path d="M 81.1 163.2 L 1024.0 163.2 L 1024.0 765.7 L 81.1 765.7 Z M 81.1 163.2 "></path></clipPath><g clip-path="url(#clip-1158)"><path d="M 81.1 163.2 L 1024.0 163.2 L 1024.0 765.7 L 81.1 765.7 Z M 81.1 163.2 " fill="url(#gradSh4.3)"></path></g></g></g></g><g><clipPath id="clip-1159"><path d="M 107.0 621.3 C 108.8 621.3 110.4 622.7 110.4 624.7 C 110.4 626.8 109.1 628.2 107.0 628.2 C 104.9 628.2 103.5 626.6 103.5 624.7 C 103.5 622.9 105.1 621.3 107.0 621.3 L 107.0 621.3 Z M 107.0 621.3 "></path></clipPath><g clip-path="url(#clip-1159)"><g><clipPath id="clip-1160"><path d="M 81.1 163.2 L 1024.0 163.2 L 1024.0 765.7 L 81.1 765.7 Z M 81.1 163.2 "></path></clipPath><g clip-path="url(#clip-1160)"><path d="M 99.7 632.1 L 114.3 632.1 L 114.3 617.4 L 99.7 617.4 Z M 99.7 632.1 " fill="#FFFFFF"></path></g></g></g></g><g><clipPath id="clip-1161"><path d="M 104.2 619.9 L 109.8 619.9 L 109.8 600.1 L 104.2 600.1 L 104.2 619.9 Z M 104.2 619.9 "></path></clipPath><g clip-path="url(#clip-1161)"><g><clipPath id="clip-1162"><path d="M 81.1 163.2 L 1024.0 163.2 L 1024.0 765.7 L 81.1 765.7 Z M 81.1 163.2 "></path></clipPath><g clip-path="url(#clip-1162)"><path d="M 100.4 623.8 L 113.6 623.8 L 113.6 596.3 L 100.4 596.3 Z M 100.4 623.8 " fill="#FFFFFF"></path></g></g></g></g><g><clipPath id="clip-1163"><path d="M 150.8 598.7 C 148.9 598.7 147.3 597.1 147.3 595.3 C 147.3 593.5 148.7 591.8 150.8 591.8 C 152.9 591.8 154.2 593.5 154.2 595.3 C 154.0 597.1 152.6 598.7 150.8 598.7 L 150.8 598.7 Z M 150.8 598.7 "></path></clipPath><g clip-path="url(#clip-1163)"><g><clipPath id="clip-1164"><path d="M 81.1 163.2 L 1024.0 163.2 L 1024.0 765.7 L 81.1 765.7 Z M 81.1 163.2 "></path></clipPath><g clip-path="url(#clip-1164)"><path d="M 143.5 602.6 L 158.1 602.6 L 158.1 588.0 L 143.5 588.0 Z M 143.5 602.6 " fill="#FFFFFF"></path></g></g></g></g><g><clipPath id="clip-1165"><path d="M 148.0 619.9 L 153.5 619.9 L 153.5 600.1 L 148.0 600.1 L 148.0 619.9 Z M 148.0 619.9 "></path></clipPath><g clip-path="url(#clip-1165)"><g><clipPath id="clip-1166"><path d="M 81.1 163.2 L 1024.0 163.2 L 1024.0 765.7 L 81.1 765.7 Z M 81.1 163.2 "></path></clipPath><g clip-path="url(#clip-1166)"><path d="M 144.1 623.8 L 157.4 623.8 L 157.4 596.3 L 144.1 596.3 Z M 144.1 623.8 " fill="#FFFFFF"></path></g></g></g></g><g><clipPath id="clip-1167"><path d="M 98.7 607.5 L 98.7 607.5 C 98.0 606.6 97.3 605.9 96.6 605.6 C 95.9 605.4 95.0 605.2 94.3 605.2 C 92.9 605.2 91.8 605.6 90.6 606.6 C 89.7 607.5 89.2 608.6 89.2 610.0 C 89.2 611.6 89.7 612.8 90.6 613.7 C 91.5 614.6 92.7 615.1 94.3 615.1 C 95.2 615.1 95.9 614.8 96.6 614.6 C 97.5 614.2 98.0 613.7 98.7 613.0 L 98.9 612.8 L 101.9 617.4 L 101.7 617.6 C 100.1 619.0 98.5 619.9 96.6 620.4 C 95.7 620.6 94.8 620.6 93.6 620.6 C 90.9 620.6 88.3 619.7 86.5 617.6 C 84.6 615.8 83.7 613.2 83.7 610.2 C 83.7 607.3 84.6 604.7 86.5 602.9 C 88.3 601.0 90.9 599.9 93.6 599.9 C 94.8 599.9 95.7 599.9 96.6 600.1 C 97.5 600.4 99.8 601.0 101.7 603.1 L 101.7 603.3 L 98.7 607.5 L 98.7 607.5 Z M 98.7 607.5 "></path></clipPath><g clip-path="url(#clip-1167)"><g><clipPath id="clip-1168"><path d="M 81.1 163.2 L 1024.0 163.2 L 1024.0 765.7 L 81.1 765.7 Z M 81.1 163.2 "></path></clipPath><g clip-path="url(#clip-1168)"><path d="M 79.8 624.5 L 105.8 624.5 L 105.8 596.0 L 79.8 596.0 Z M 79.8 624.5 " fill="#FFFFFF"></path></g></g></g></g><g><clipPath id="clip-1169"><path d="M 111.8 619.9 L 111.8 615.1 L 117.1 615.1 L 117.1 600.1 L 122.4 600.1 L 122.4 615.1 L 127.7 615.1 L 127.7 619.9 L 111.8 619.9 Z M 111.8 619.9 "></path></clipPath><g clip-path="url(#clip-1169)"><g><clipPath id="clip-1170"><path d="M 81.1 163.2 L 1024.0 163.2 L 1024.0 765.7 L 81.1 765.7 Z M 81.1 163.2 "></path></clipPath><g clip-path="url(#clip-1170)"><path d="M 108.0 623.8 L 131.6 623.8 L 131.6 596.3 L 108.0 596.3 Z M 108.0 623.8 " fill="#FFFFFF"></path></g></g></g></g><g><clipPath id="clip-1171"><path d="M 139.0 613.0 C 139.0 612.3 138.8 611.6 138.3 611.4 C 137.9 610.9 137.2 610.9 136.0 610.9 L 135.3 610.9 L 135.3 615.5 L 136.0 615.5 C 137.2 615.5 137.9 615.3 138.3 615.1 C 139.0 614.4 139.0 613.7 139.0 613.0 L 139.0 613.0 Z M 140.6 607.9 C 142.0 608.4 142.9 608.9 143.6 609.8 C 144.3 610.7 144.8 612.1 144.8 613.5 C 144.8 615.5 144.1 617.1 142.7 618.3 C 141.3 619.2 139.0 619.9 136.0 619.9 L 130.0 619.9 L 130.0 600.1 L 135.6 600.1 L 135.6 607.0 L 139.7 600.1 L 146.2 600.1 L 140.6 607.9 L 140.6 607.9 Z M 140.6 607.9 "></path></clipPath><g clip-path="url(#clip-1171)"><g><clipPath id="clip-1172"><path d="M 81.1 163.2 L 1024.0 163.2 L 1024.0 765.7 L 81.1 765.7 Z M 81.1 163.2 "></path></clipPath><g clip-path="url(#clip-1172)"><path d="M 126.2 623.8 L 150.0 623.8 L 150.0 596.3 L 126.2 596.3 Z M 126.2 623.8 " fill="#FFFFFF"></path></g></g></g></g><g><clipPath id="clip-1173"><path d="M 164.8 606.3 L 168.8 600.1 L 175.2 600.1 L 168.1 610.5 L 174.5 619.9 L 168.1 619.9 L 164.8 614.6 L 161.4 619.9 L 155.2 619.9 L 161.4 610.5 L 154.5 600.1 L 160.7 600.1 L 164.8 606.3 Z M 164.8 606.3 "></path></clipPath><g clip-path="url(#clip-1173)"><g><clipPath id="clip-1174"><path d="M 81.1 163.2 L 1024.0 163.2 L 1024.0 765.7 L 81.1 765.7 Z M 81.1 163.2 "></path></clipPath><g clip-path="url(#clip-1174)"><path d="M 150.6 623.8 L 179.1 623.8 L 179.1 596.3 L 150.6 596.3 Z M 150.6 623.8 " fill="#FFFFFF"></path></g></g></g></g><g><clipPath id="clip-1175"><path d="M 177.5 615.5 C 176.4 615.5 175.4 616.5 175.4 617.6 C 175.4 618.8 176.4 619.7 177.5 619.7 C 178.7 619.7 179.6 618.8 179.6 617.6 C 179.6 616.5 178.7 615.5 177.5 615.5 L 177.5 615.5 Z M 177.5 619.9 C 176.1 619.9 175.2 618.8 175.2 617.6 C 175.2 616.2 176.4 615.3 177.5 615.3 C 178.9 615.3 179.8 616.5 179.8 617.6 C 180.1 618.8 178.9 619.9 177.5 619.9 L 177.5 619.9 Z M 177.5 619.9 "></path></clipPath><g clip-path="url(#clip-1175)"><g><clipPath id="clip-1176"><path d="M 81.1 163.2 L 1024.0 163.2 L 1024.0 765.7 L 81.1 765.7 Z M 81.1 163.2 "></path></clipPath><g clip-path="url(#clip-1176)"><path d="M 171.3 623.8 L 183.7 623.8 L 183.7 611.4 L 171.3 611.4 Z M 171.3 623.8 " fill="#FFFFFF"></path></g></g></g></g><g><clipPath id="clip-1177"><path d="M 178.2 618.1 C 178.2 617.8 178.0 617.6 177.7 617.6 L 177.1 617.6 L 177.1 618.5 L 177.7 618.5 C 178.2 618.5 178.2 618.3 178.2 618.1 L 178.2 618.1 Z M 178.7 618.1 C 178.7 618.8 178.2 618.8 177.7 618.8 L 176.6 618.8 L 176.6 616.0 L 177.1 616.0 L 177.1 617.1 L 177.7 617.1 L 178.4 616.0 L 178.9 616.0 L 178.2 617.1 C 178.7 617.4 178.7 617.8 178.7 618.1 L 178.7 618.1 Z M 178.7 618.1 "></path></clipPath><g clip-path="url(#clip-1177)"><g><clipPath id="clip-1178"><path d="M 81.1 163.2 L 1024.0 163.2 L 1024.0 765.7 L 81.1 765.7 Z M 81.1 163.2 "></path></clipPath><g clip-path="url(#clip-1178)"><path d="M 172.7 622.6 L 182.8 622.6 L 182.8 612.1 L 172.7 612.1 Z M 172.7 622.6 " fill="#FFFFFF"></path></g></g></g></g><g><clipPath id="clip-1179"><path d="M 117.6 541.9 C 115.5 541.2 113.2 540.6 111.1 540.1 C 108.8 539.6 106.5 539.4 104.5 539.4 C 99.6 539.4 95.7 540.3 92.2 541.9 C 89.0 543.8 86.5 546.1 84.9 549.3 C 83.2 552.5 82.3 556.4 82.3 561.0 C 82.3 565.6 83.2 569.5 84.9 573.0 C 86.7 576.4 89.2 579.2 92.5 581.0 C 95.7 582.9 99.6 583.8 104.0 583.8 C 106.1 583.8 108.1 583.6 110.4 583.3 C 112.7 582.9 114.6 582.4 116.4 581.7 L 114.6 576.0 C 110.9 577.4 107.2 577.8 104.0 577.8 C 99.4 577.8 95.7 576.4 93.2 573.2 C 90.6 570.2 89.2 566.1 89.2 560.6 C 89.2 557.6 89.7 554.8 91.1 552.3 C 92.2 550.0 93.9 548.1 96.2 546.8 C 98.2 545.4 101.0 544.9 104.0 544.9 C 106.3 544.9 108.8 545.2 111.1 545.8 L 111.1 557.1 L 102.8 557.1 L 102.8 562.9 L 117.8 562.9 L 117.8 541.9 L 117.6 541.9 Z M 117.6 541.9 "></path></clipPath><g clip-path="url(#clip-1179)"><g><clipPath id="clip-1180"><path d="M 81.1 163.2 L 1024.0 163.2 L 1024.0 765.7 L 81.1 765.7 Z M 81.1 163.2 "></path></clipPath><g clip-path="url(#clip-1180)"><path d="M 78.5 587.7 L 121.7 587.7 L 121.7 535.5 L 78.5 535.5 Z M 78.5 587.7 " fill="#FFFFFF"></path></g></g></g></g><g><clipPath id="clip-1181"><path d="M 138.8 544.7 C 141.6 544.7 143.6 545.8 145.2 547.9 C 146.9 550.0 147.6 553.0 147.6 556.9 C 147.6 560.8 146.9 563.8 145.2 565.9 C 143.9 567.9 141.6 568.8 138.8 568.8 C 136.0 568.8 133.7 567.9 132.3 565.9 C 130.7 563.8 130.0 560.8 130.0 556.9 C 130.0 553.0 130.7 550.2 132.3 547.9 C 134.0 545.8 136.0 544.7 138.8 544.7 L 138.8 544.7 Z M 138.8 539.4 C 134.0 539.4 130.0 541.0 127.3 544.0 C 124.5 547.0 123.1 551.4 123.1 556.9 C 123.1 562.4 124.5 566.5 127.3 569.8 C 130.0 572.8 133.7 574.4 138.6 574.4 C 143.4 574.4 147.3 572.8 149.9 569.8 C 152.6 566.8 154.0 562.4 154.0 556.9 C 154.0 551.4 152.6 547.0 149.9 544.0 C 147.6 541.0 143.6 539.4 138.8 539.4 L 138.8 539.4 Z M 138.8 539.4 "></path></clipPath><g clip-path="url(#clip-1181)"><g><clipPath id="clip-1182"><path d="M 81.1 163.2 L 1024.0 163.2 L 1024.0 765.7 L 81.1 765.7 Z M 81.1 163.2 "></path></clipPath><g clip-path="url(#clip-1182)"><path d="M 119.3 578.2 L 157.9 578.2 L 157.9 535.5 L 119.3 535.5 Z M 119.3 578.2 " fill="#FFFFFF"></path></g></g></g></g><g><clipPath id="clip-1183"><path d="M 169.2 577.6 L 169.2 540.1 L 162.5 540.1 L 162.5 577.6 L 150.3 577.6 L 150.3 583.3 L 181.4 583.3 L 181.4 577.6 L 169.2 577.6 Z M 169.2 577.6 "></path></clipPath><g clip-path="url(#clip-1183)"><g><clipPath id="clip-1184"><path d="M 81.1 163.2 L 1024.0 163.2 L 1024.0 765.7 L 81.1 765.7 Z M 81.1 163.2 "></path></clipPath><g clip-path="url(#clip-1184)"><path d="M 146.5 587.2 L 185.3 587.2 L 185.3 536.2 L 146.5 536.2 Z M 146.5 587.2 " fill="#FFFFFF"></path></g></g></g></g><g><clipPath id="clip-1185"><path d="M 192.7 544.7 C 195.5 544.7 197.6 545.8 199.2 547.9 C 200.8 550.0 201.5 553.0 201.5 556.9 C 201.5 560.8 200.8 563.8 199.2 565.9 C 197.6 567.9 195.5 568.8 192.7 568.8 C 190.0 568.8 187.7 567.9 186.3 565.9 C 184.9 563.8 184.0 560.8 184.0 556.9 C 184.0 553.0 184.7 550.2 186.3 547.9 C 187.9 545.8 190.0 544.7 192.7 544.7 L 192.7 544.7 Z M 192.7 539.4 C 187.9 539.4 184.0 541.0 181.2 544.0 C 178.4 547.0 177.1 551.4 177.1 556.9 C 177.1 562.4 178.4 566.5 181.2 569.8 C 184.0 572.8 187.7 574.4 192.5 574.4 C 197.3 574.4 201.3 572.8 203.8 569.8 C 206.6 566.8 207.9 562.4 207.9 556.9 C 207.9 551.4 206.6 547.0 203.8 544.0 C 201.5 541.0 197.6 539.4 192.7 539.4 L 192.7 539.4 Z M 192.7 539.4 "></path></clipPath><g clip-path="url(#clip-1185)"><g><clipPath id="clip-1186"><path d="M 81.1 163.2 L 1024.0 163.2 L 1024.0 765.7 L 81.1 765.7 Z M 81.1 163.2 "></path></clipPath><g clip-path="url(#clip-1186)"><path d="M 173.2 578.2 L 211.8 578.2 L 211.8 535.5 L 173.2 535.5 Z M 173.2 578.2 " fill="#FFFFFF"></path></g></g></g></g><g><clipPath id="clip-1187"><path d="M 222.0 580.3 L 222.0 540.1 L 219.0 540.1 L 219.0 580.3 L 205.6 580.3 L 205.6 583.3 L 235.4 583.3 L 235.4 580.3 L 222.0 580.3 Z M 222.0 580.3 "></path></clipPath><g clip-path="url(#clip-1187)"><g><clipPath id="clip-1188"><path d="M 81.1 163.2 L 1024.0 163.2 L 1024.0 765.7 L 81.1 765.7 Z M 81.1 163.2 "></path></clipPath><g clip-path="url(#clip-1188)"><path d="M 201.8 587.2 L 239.2 587.2 L 239.2 536.2 L 201.8 536.2 Z M 201.8 587.2 " fill="#FFFFFF"></path></g></g></g></g><g><clipPath id="clip-1189"><path d="M 234.9 573.4 L 237.4 573.4 L 237.9 569.3 C 239.3 571.1 240.7 572.3 241.8 573.0 C 243.2 573.7 244.8 574.1 246.7 574.1 C 247.8 574.1 248.7 574.1 249.4 573.9 L 249.0 570.9 C 248.3 571.1 247.4 571.4 246.0 571.4 C 244.4 571.4 243.0 570.9 241.8 570.2 C 240.7 569.3 239.3 568.2 238.1 566.1 L 238.1 540.3 L 235.1 540.3 L 235.1 573.4 L 234.9 573.4 Z M 234.9 573.4 "></path></clipPath><g clip-path="url(#clip-1189)"><g><clipPath id="clip-1190"><path d="M 81.1 163.2 L 1024.0 163.2 L 1024.0 765.7 L 81.1 765.7 Z M 81.1 163.2 "></path></clipPath><g clip-path="url(#clip-1190)"><path d="M 231.0 578.0 L 253.3 578.0 L 253.3 536.5 L 231.0 536.5 Z M 231.0 578.0 " fill="#FFFFFF"></path></g></g></g></g><g><clipPath id="clip-1191"><path d="M 272.2 556.7 C 267.9 556.4 264.4 556.2 261.9 555.5 C 259.3 554.8 257.3 554.1 256.1 552.7 C 255.0 551.6 254.3 550.0 254.3 547.9 C 254.3 546.1 255.0 544.7 256.1 543.5 C 257.5 542.4 259.1 541.9 261.2 541.9 C 265.1 541.9 268.6 543.1 272.2 545.4 L 272.2 556.7 L 272.2 556.7 Z M 272.9 540.1 L 272.5 543.1 C 268.8 540.8 265.1 539.6 261.2 539.6 C 258.0 539.6 255.4 540.3 253.8 541.9 C 252.0 543.5 251.0 545.6 251.0 548.4 C 251.0 552.1 252.7 554.8 256.1 556.7 C 259.3 558.3 264.9 559.4 272.5 559.4 L 272.5 563.1 C 272.5 565.6 271.8 567.5 270.4 568.8 C 269.0 570.2 266.9 570.9 264.4 570.9 C 261.4 570.9 258.4 570.2 255.4 569.1 L 254.5 571.8 C 257.5 573.0 260.9 573.7 264.6 573.7 C 268.1 573.7 270.6 572.8 272.7 570.9 C 274.5 569.1 275.7 566.5 275.7 563.3 L 275.7 539.9 L 272.9 539.9 L 272.9 540.1 Z M 272.9 540.1 "></path></clipPath><g clip-path="url(#clip-1191)"><g><clipPath id="clip-1192"><path d="M 81.1 163.2 L 1024.0 163.2 L 1024.0 765.7 L 81.1 765.7 Z M 81.1 163.2 "></path></clipPath><g clip-path="url(#clip-1192)"><path d="M 247.2 577.5 L 279.6 577.5 L 279.6 535.8 L 247.2 535.8 Z M 247.2 577.5 " fill="#FFFFFF"></path></g></g></g></g><g><clipPath id="clip-1193"><path d="M 283.5 540.1 L 283.5 573.4 L 286.5 573.4 L 286.5 540.1 L 283.5 540.1 L 283.5 540.1 Z M 282.8 583.6 C 282.8 584.3 283.1 584.7 283.5 585.2 C 284.0 585.6 284.5 585.9 285.1 585.9 C 285.8 585.9 286.3 585.6 286.8 585.2 C 287.2 584.7 287.5 584.3 287.5 583.6 C 287.5 582.9 287.2 582.4 286.8 582.0 C 286.3 581.5 285.8 581.3 285.1 581.3 C 284.5 581.3 284.0 581.5 283.5 582.0 C 283.1 582.4 282.8 582.9 282.8 583.6 L 282.8 583.6 Z M 282.8 583.6 "></path></clipPath><g clip-path="url(#clip-1193)"><g><clipPath id="clip-1194"><path d="M 81.1 163.2 L 1024.0 163.2 L 1024.0 765.7 L 81.1 765.7 Z M 81.1 163.2 "></path></clipPath><g clip-path="url(#clip-1194)"><path d="M 279.0 589.7 L 291.3 589.7 L 291.3 536.2 L 279.0 536.2 Z M 279.0 589.7 " fill="#FFFFFF"></path></g></g></g></g><g><clipPath id="clip-1195"><path d="M 319.7 540.1 L 316.7 540.1 L 316.7 563.1 C 316.7 565.6 316.0 567.7 314.9 569.1 C 313.5 570.5 311.7 571.1 309.3 571.1 C 307.3 571.1 305.4 570.9 303.8 570.5 C 302.2 570.0 300.4 569.1 298.5 567.7 L 298.5 540.1 L 295.5 540.1 L 295.5 573.4 L 298.1 573.4 L 298.7 570.7 C 300.6 571.8 302.4 572.8 304.0 573.2 C 305.7 573.7 307.7 573.9 310.3 573.9 C 313.5 573.9 315.8 573.0 317.6 570.9 C 319.5 569.1 320.4 566.3 320.4 563.1 L 320.4 540.1 L 319.7 540.1 Z M 319.7 540.1 "></path></clipPath><g clip-path="url(#clip-1195)"><g><clipPath id="clip-1196"><path d="M 81.1 163.2 L 1024.0 163.2 L 1024.0 765.7 L 81.1 765.7 Z M 81.1 163.2 "></path></clipPath><g clip-path="url(#clip-1196)"><path d="M 291.7 577.8 L 324.3 577.8 L 324.3 536.2 L 291.7 536.2 Z M 291.7 577.8 " fill="#FFFFFF"></path></g></g></g></g><g><clipPath id="clip-1197"><path d="M 327.8 540.1 L 327.8 573.4 L 330.8 573.4 L 330.8 540.1 L 327.8 540.1 L 327.8 540.1 Z M 327.1 583.6 C 327.1 584.3 327.3 584.7 327.8 585.2 C 328.2 585.6 328.7 585.9 329.4 585.9 C 330.1 585.9 330.6 585.6 331.0 585.2 C 331.5 584.7 331.7 584.3 331.7 583.6 C 331.7 582.9 331.5 582.4 331.0 582.0 C 330.6 581.5 330.1 581.3 329.4 581.3 C 328.7 581.3 328.2 581.5 327.8 582.0 C 327.3 582.4 327.1 582.9 327.1 583.6 L 327.1 583.6 Z M 327.1 583.6 "></path></clipPath><g clip-path="url(#clip-1197)"><g><clipPath id="clip-1198"><path d="M 81.1 163.2 L 1024.0 163.2 L 1024.0 765.7 L 81.1 765.7 Z M 81.1 163.2 "></path></clipPath><g clip-path="url(#clip-1198)"><path d="M 323.2 589.7 L 335.6 589.7 L 335.6 536.2 L 323.2 536.2 Z M 323.2 589.7 " fill="#FFFFFF"></path></g></g></g></g><g><clipPath id="clip-1199"><path d="M 364.0 540.1 L 361.0 540.1 L 361.0 563.1 C 361.0 565.6 360.3 567.7 359.1 569.1 C 358.0 570.5 356.1 571.1 353.6 571.1 C 351.5 571.1 349.7 570.9 348.1 570.5 C 346.5 570.0 344.6 569.1 342.8 567.7 L 342.8 540.1 L 339.8 540.1 L 339.8 573.4 L 342.3 573.4 L 343.0 570.7 C 344.8 571.8 346.7 572.8 348.3 573.2 C 349.9 573.7 352.0 573.9 354.5 573.9 C 357.5 573.9 360.1 573.0 361.9 570.9 C 363.7 569.1 364.7 566.3 364.7 563.1 L 364.7 540.1 L 364.0 540.1 Z M 364.0 540.1 "></path></clipPath><g clip-path="url(#clip-1199)"><g><clipPath id="clip-1200"><path d="M 81.1 163.2 L 1024.0 163.2 L 1024.0 765.7 L 81.1 765.7 Z M 81.1 163.2 "></path></clipPath><g clip-path="url(#clip-1200)"><path d="M 335.9 577.8 L 368.5 577.8 L 368.5 536.2 L 335.9 536.2 Z M 335.9 577.8 " fill="#FFFFFF"></path></g></g></g></g><g><clipPath id="clip-1201"><path d="M 373.9 556.2 C 373.9 551.4 374.8 547.9 376.4 545.6 C 378.0 543.3 380.8 542.2 384.5 542.2 C 387.9 542.2 391.2 543.3 394.2 545.6 L 394.2 569.8 C 391.4 570.5 388.2 570.9 385.2 570.9 C 381.7 570.9 379.2 569.5 377.1 566.8 C 375.0 564.5 373.9 560.8 373.9 556.2 L 373.9 556.2 Z M 394.4 542.6 C 391.2 540.3 387.9 539.4 384.3 539.4 C 379.6 539.4 376.2 540.8 374.1 543.5 C 372.0 546.3 370.9 550.7 370.9 556.2 C 370.9 561.7 372.3 565.9 374.8 569.1 C 377.3 572.3 381.0 573.9 385.4 573.9 C 389.1 573.9 393.0 573.2 397.4 572.1 L 397.4 537.8 C 397.4 534.1 396.2 531.1 393.7 529.1 C 391.2 527.0 387.7 525.8 383.3 525.8 C 380.1 525.8 376.7 526.3 373.0 527.5 L 373.9 530.2 C 376.9 529.1 380.1 528.6 383.3 528.6 C 386.8 528.6 389.6 529.5 391.6 531.1 C 393.5 532.7 394.6 535.3 394.6 538.3 L 394.6 542.6 L 394.4 542.6 Z M 394.4 542.6 "></path></clipPath><g clip-path="url(#clip-1201)"><g><clipPath id="clip-1202"><path d="M 81.1 163.2 L 1024.0 163.2 L 1024.0 765.7 L 81.1 765.7 Z M 81.1 163.2 "></path></clipPath><g clip-path="url(#clip-1202)"><path d="M 367.0 577.8 L 401.3 577.8 L 401.3 522.0 L 367.0 522.0 Z M 367.0 577.8 " fill="#FFFFFF"></path></g></g></g></g></g></g></g></g></g></g></g></g></g></g></g></g></g></g></g></g><text xml:space="preserve" font-family="Helvetica-Light" font-size="18.0" fill="#FEFFFF" transform="matrix(1.00, 0.00, -0.00, -1.00, 506.0, 17.0)">7</text></g></svg>