<?xml version="1.0" encoding="UTF-8" standalone="no"?><svg xmlns="http://www.w3.org/2000/svg" xmlns:xlink="http://www.w3.org/1999/xlink" clip-rule="evenodd" stroke-miterlimit="4.00" viewBox="0 0 1024 768"><desc>SVG generated by Keynote</desc><defs></defs><g transform="matrix(1.00, 0.00, -0.00, -1.00, 0.0, 768.0)"><path d="M 0.0 768.0 L 1024.0 768.0 L 1024.0 0.0 L 0.0 0.0 Z M 0.0 768.0 " fill="#0065C0"></path><text xml:space="preserve" font-family="SourceSansPro-Semibold" font-weight="bold" font-size="57.6" fill="#FEFFFE" transform="matrix(1.00, 0.00, -0.00, -1.00, 619.0, 571.0)">S</text><text xml:space="preserve" font-family="SourceSansPro-Semibold" font-weight="bold" font-size="57.6" fill="#FEFFFE" transform="matrix(1.00, 0.00, -0.00, -1.00, 650.2, 571.0)">i</text><text xml:space="preserve" font-family="SourceSansPro-Semibold" font-weight="bold" font-size="57.6" fill="#FEFFFE" transform="matrix(1.00, 0.00, -0.00, -1.00, 665.3, 571.0)">d</text><text xml:space="preserve" font-family="SourceSansPro-Semibold" font-weight="bold" font-size="57.6" fill="#FEFFFE" transform="matrix(1.00, 0.00, -0.00, -1.00, 697.8, 571.0)">e</text><text xml:space="preserve" font-family="SourceSansPro-Semibold" font-weight="bold" font-size="57.6" fill="#FEFFFE" transform="matrix(1.00, 0.00, -0.00, -1.00, 727.0, 571.0)"> </text><text xml:space="preserve" font-family="SourceSansPro-Semibold" font-weight="bold" font-size="57.6" fill="#FEFFFE" transform="matrix(1.00, 0.00, -0.00, -1.00, 738.8, 571.0)">p</text><text xml:space="preserve" font-family="SourceSansPro-Semibold" font-weight="bold" font-size="57.6" fill="#FEFFFE" transform="matrix(1.00, 0.00, -0.00, -1.00, 771.3, 571.0)">r</text><text xml:space="preserve" font-family="SourceSansPro-Semibold" font-weight="bold" font-size="57.6" fill="#FEFFFE" transform="matrix(1.00, 0.00, -0.00, -1.00, 792.2, 571.0)">o</text><text xml:space="preserve" font-family="SourceSansPro-Semibold" font-weight="bold" font-size="57.6" fill="#FEFFFE" transform="matrix(1.00, 0.00, -0.00, -1.00, 823.8, 571.0)">j</text><text xml:space="preserve" font-family="SourceSansPro-Semibold" font-weight="bold" font-size="57.6" fill="#FEFFFE" transform="matrix(1.00, 0.00, -0.00, -1.00, 839.0, 571.0)">e</text><text xml:space="preserve" font-family="SourceSansPro-Semibold" font-weight="bold" font-size="57.6" fill="#FEFFFE" transform="matrix(1.00, 0.00, -0.00, -1.00, 868.2, 571.0)">c</text><text xml:space="preserve" font-family="SourceSansPro-Semibold" font-weight="bold" font-size="57.6" fill="#FEFFFE" transform="matrix(1.00, 0.00, -0.00, -1.00, 894.8, 571.0)">t</text><text xml:space="preserve" font-family="SourceSansPro-Semibold" font-weight="bold" font-size="57.6" fill="#FEFFFE" transform="matrix(1.00, 0.00, -0.00, -1.00, 915.6, 571.0)">s</text><g opacity="0.19"><g><clipPath id="clip-1867"><path d="M 0.0 0.0 L 1024.0 0.0 L 1024.0 570.0 L 0.0 570.0 Z M 0.0 0.0 "></path></clipPath><g clip-path="url(#clip-1867)"><image xlink:href="FF8E0B06EC38452FFF059CE79A8F79B9.png" width="961.00" height="471.00" transform="matrix(-1.21, 0.00, 0.00, 1.21, 1161.0, 0.0)"></image></g></g></g><text xml:space="preserve" font-family="Helvetica-Light" font-size="18.0" fill="#FEFFFF" transform="matrix(1.00, 0.00, -0.00, -1.00, 501.0, 17.0)">2</text><text xml:space="preserve" font-family="Helvetica-Light" font-size="18.0" fill="#FEFFFF" transform="matrix(1.00, 0.00, -0.00, -1.00, 511.0, 17.0)">4</text></g></svg>