<?xml version="1.0" encoding="UTF-8" standalone="no"?><svg xmlns="http://www.w3.org/2000/svg" xmlns:xlink="http://www.w3.org/1999/xlink" clip-rule="evenodd" stroke-miterlimit="4.00" viewBox="0 0 1024 768"><desc>SVG generated by Keynote</desc><defs></defs><g transform="matrix(1.00, 0.00, -0.00, -1.00, 0.0, 768.0)"><path d="M 0.0 768.0 L 1024.0 768.0 L 1024.0 0.0 L 0.0 0.0 Z M 0.0 768.0 " fill="#000000"></path><text xml:space="preserve" font-family="Helvetica-Light" font-size="18.0" fill="#FEFFFF" transform="matrix(1.00, 0.00, -0.00, -1.00, 501.0, 17.0)">2</text><text xml:space="preserve" font-family="Helvetica-Light" font-size="18.0" fill="#FEFFFF" transform="matrix(1.00, 0.00, -0.00, -1.00, 511.0, 17.0)">0</text><g><clipPath id="clip-270"><path d="M 345.0 644.0 L 445.0 644.0 L 445.0 -374.0 L 345.0 -374.0 Z M 345.5 643.6 "></path></clipPath><g clip-path="url(#clip-270)"><image xlink:href="../../6CE1777A-789D-497A-B6FC-E7EDD48F260C/assets/F245EAE3B327E4859030BCC3F0FF104E.png" width="675.00" height="540.00" transform="matrix(2.81, 0.00, -0.00, -2.81, -1268.0, 941.0)"></image></g></g><text xml:space="preserve" font-family="SourceSansPro-Light" font-size="28.0" fill="#FEFFFF" transform="matrix(1.00, 0.00, -0.00, -1.00, 36.0, 707.0)">O</text><text xml:space="preserve" font-family="SourceSansPro-Light" font-size="28.0" fill="#FEFFFF" transform="matrix(1.00, 0.00, -0.00, -1.00, 54.1, 707.0)">t</text><text xml:space="preserve" font-family="SourceSansPro-Light" font-size="28.0" fill="#FEFFFF" transform="matrix(1.00, 0.00, -0.00, -1.00, 62.8, 707.0)">h</text><text xml:space="preserve" font-family="SourceSansPro-Light" font-size="28.0" fill="#FEFFFF" transform="matrix(1.00, 0.00, -0.00, -1.00, 77.6, 707.0)">e</text><text xml:space="preserve" font-family="SourceSansPro-Light" font-size="28.0" fill="#FEFFFF" transform="matrix(1.00, 0.00, -0.00, -1.00, 91.1, 707.0)">r</text><text xml:space="preserve" font-family="SourceSansPro-Light" font-size="28.0" fill="#FEFFFF" transform="matrix(1.00, 0.00, -0.00, -1.00, 100.0, 707.0)"> </text><text xml:space="preserve" font-family="SourceSansPro-Light" font-size="28.0" fill="#FEFFFF" transform="matrix(1.00, 0.00, -0.00, -1.00, 105.6, 707.0)">w</text><text xml:space="preserve" font-family="SourceSansPro-Light" font-size="28.0" fill="#FEFFFF" transform="matrix(1.00, 0.00, -0.00, -1.00, 124.7, 707.0)">o</text><text xml:space="preserve" font-family="SourceSansPro-Light" font-size="28.0" fill="#FEFFFF" transform="matrix(1.00, 0.00, -0.00, -1.00, 139.7, 707.0)">r</text><text xml:space="preserve" font-family="SourceSansPro-Light" font-size="28.0" fill="#FEFFFF" transform="matrix(1.00, 0.00, -0.00, -1.00, 148.6, 707.0)">k</text><text xml:space="preserve" font-family="SourceSansPro-Light" font-size="28.0" fill="#FEFFFF" transform="matrix(1.00, 0.00, -0.00, -1.00, 161.6, 707.0)">s</text><text xml:space="preserve" font-family="SourceSansPro-Light" font-size="28.0" fill="#FEFFFF" transform="matrix(1.00, 0.00, -0.00, -1.00, 172.9, 707.0)"> </text><text xml:space="preserve" font-family="SourceSansPro-Light" font-size="28.0" fill="#FEFFFF" transform="matrix(1.00, 0.00, -0.00, -1.00, 178.5, 707.0)">|</text><text xml:space="preserve" font-family="SourceSansPro-Light" font-size="28.0" fill="#FEFFFF" transform="matrix(1.00, 0.00, -0.00, -1.00, 184.8, 707.0)"> </text><text xml:space="preserve" font-family="SourceSansPro-Bold" font-weight="bold" font-size="28.0" fill="#FEFFFF" transform="matrix(1.00, 0.00, -0.00, -1.00, 190.4, 707.0)">M</text><text xml:space="preserve" font-family="SourceSansPro-Bold" font-weight="bold" font-size="28.0" fill="#FEFFFF" transform="matrix(1.00, 0.00, -0.00, -1.00, 211.7, 707.0)">i</text><text xml:space="preserve" font-family="SourceSansPro-Bold" font-weight="bold" font-size="28.0" fill="#FEFFFF" transform="matrix(1.00, 0.00, -0.00, -1.00, 219.4, 707.0)">c</text><text xml:space="preserve" font-family="SourceSansPro-Bold" font-weight="bold" font-size="28.0" fill="#FEFFFF" transform="matrix(1.00, 0.00, -0.00, -1.00, 232.5, 707.0)">r</text><text xml:space="preserve" font-family="SourceSansPro-Bold" font-weight="bold" font-size="28.0" fill="#FEFFFF" transform="matrix(1.00, 0.00, -0.00, -1.00, 243.4, 707.0)">o</text><text xml:space="preserve" font-family="SourceSansPro-Bold" font-weight="bold" font-size="28.0" fill="#FEFFFF" transform="matrix(1.00, 0.00, -0.00, -1.00, 258.9, 707.0)">i</text><text xml:space="preserve" font-family="SourceSansPro-Bold" font-weight="bold" font-size="28.0" fill="#FEFFFF" transform="matrix(1.00, 0.00, -0.00, -1.00, 266.6, 707.0)">n</text><text xml:space="preserve" font-family="SourceSansPro-Bold" font-weight="bold" font-size="28.0" fill="#FEFFFF" transform="matrix(1.00, 0.00, -0.00, -1.00, 282.7, 707.0)">t</text><text xml:space="preserve" font-family="SourceSansPro-Bold" font-weight="bold" font-size="28.0" fill="#FEFFFF" transform="matrix(1.00, 0.00, -0.00, -1.00, 293.1, 707.0)">e</text><text xml:space="preserve" font-family="SourceSansPro-Bold" font-weight="bold" font-size="28.0" fill="#FEFFFF" transform="matrix(1.00, 0.00, -0.00, -1.00, 307.6, 707.0)">r</text><text xml:space="preserve" font-family="SourceSansPro-Bold" font-weight="bold" font-size="28.0" fill="#FEFFFF" transform="matrix(1.00, 0.00, -0.00, -1.00, 317.9, 707.0)">a</text><text xml:space="preserve" font-family="SourceSansPro-Bold" font-weight="bold" font-size="28.0" fill="#FEFFFF" transform="matrix(1.00, 0.00, -0.00, -1.00, 332.9, 707.0)">c</text><text xml:space="preserve" font-family="SourceSansPro-Bold" font-weight="bold" font-size="28.0" fill="#FEFFFF" transform="matrix(1.00, 0.00, -0.00, -1.00, 346.0, 707.0)">t</text><text xml:space="preserve" font-family="SourceSansPro-Bold" font-weight="bold" font-size="28.0" fill="#FEFFFF" transform="matrix(1.00, 0.00, -0.00, -1.00, 356.7, 707.0)">i</text><text xml:space="preserve" font-family="SourceSansPro-Bold" font-weight="bold" font-size="28.0" fill="#FEFFFF" transform="matrix(1.00, 0.00, -0.00, -1.00, 364.4, 707.0)">o</text><text xml:space="preserve" font-family="SourceSansPro-Bold" font-weight="bold" font-size="28.0" fill="#FEFFFF" transform="matrix(1.00, 0.00, -0.00, -1.00, 380.0, 707.0)">n</text><text xml:space="preserve" font-family="SourceSansPro-Bold" font-weight="bold" font-size="28.0" fill="#FEFFFF" transform="matrix(1.00, 0.00, -0.00, -1.00, 396.0, 707.0)"> </text><text xml:space="preserve" font-family="SourceSansPro-Bold" font-weight="bold" font-size="28.0" fill="#FEFFFF" transform="matrix(1.00, 0.00, -0.00, -1.00, 401.8, 707.0)">t</text><text xml:space="preserve" font-family="SourceSansPro-Bold" font-weight="bold" font-size="28.0" fill="#FEFFFF" transform="matrix(1.00, 0.00, -0.00, -1.00, 412.5, 707.0)">h</text><text xml:space="preserve" font-family="SourceSansPro-Bold" font-weight="bold" font-size="28.0" fill="#FEFFFF" transform="matrix(1.00, 0.00, -0.00, -1.00, 428.5, 707.0)">a</text><text xml:space="preserve" font-family="SourceSansPro-Bold" font-weight="bold" font-size="28.0" fill="#FEFFFF" transform="matrix(1.00, 0.00, -0.00, -1.00, 443.5, 707.0)">t</text><text xml:space="preserve" font-family="SourceSansPro-Bold" font-weight="bold" font-size="28.0" fill="#FEFFFF" transform="matrix(1.00, 0.00, -0.00, -1.00, 454.2, 707.0)"> </text><text xml:space="preserve" font-family="SourceSansPro-Bold" font-weight="bold" font-size="28.0" fill="#FEFFFF" transform="matrix(1.00, 0.00, -0.00, -1.00, 460.0, 707.0)">w</text><text xml:space="preserve" font-family="SourceSansPro-Bold" font-weight="bold" font-size="28.0" fill="#FEFFFF" transform="matrix(1.00, 0.00, -0.00, -1.00, 481.5, 707.0)">o</text><text xml:space="preserve" font-family="SourceSansPro-Bold" font-weight="bold" font-size="28.0" fill="#FEFFFF" transform="matrix(1.00, 0.00, -0.00, -1.00, 497.0, 707.0)">r</text><text xml:space="preserve" font-family="SourceSansPro-Bold" font-weight="bold" font-size="28.0" fill="#FEFFFF" transform="matrix(1.00, 0.00, -0.00, -1.00, 508.2, 707.0)">k</text><text xml:space="preserve" font-family="SourceSansPro-Bold" font-weight="bold" font-size="28.0" fill="#FEFFFF" transform="matrix(1.00, 0.00, -0.00, -1.00, 523.5, 707.0)">s</text><path d="M 507.8 379.2 L 507.8 369.0 L 527.0 384.0 L 507.8 399.0 L 507.8 388.8 L 497.0 388.8 L 497.0 379.2 Z M 507.8 379.2 " fill="#FEFFFE"></path><image xlink:href="259D470D2AC95F3F5718253C2082FADB.png" width="200.00" height="1272.00" transform="matrix(0.50, 0.00, -0.00, -0.50, 577.5, 643.7)"></image></g></svg>