<?xml version="1.0" encoding="UTF-8" standalone="no"?><svg xmlns="http://www.w3.org/2000/svg" xmlns:xlink="http://www.w3.org/1999/xlink" clip-rule="evenodd" stroke-miterlimit="4.00" viewBox="0 0 926 383"><desc>SVG generated by Keynote</desc><defs></defs><g transform="matrix(1.00, 0.00, -0.00, -1.00, 0.0, 383.0)"><g><clipPath id="clip-230"><path d="M 82.7 0.6 L 446.3 0.6 L 446.3 177.5 L 82.7 177.5 Z M 82.7 0.6 "></path></clipPath><g clip-path="url(#clip-230)"><image xlink:href="E8F801D5DE65D27842FF5442F2E95F7E.png" width="364.00" height="177.00" transform="matrix(1.00, 0.00, -0.00, -1.00, 83.0, 178.0)"></image></g></g><g><clipPath id="clip-231"><path d="M 477.6 108.3 L 925.3 108.3 L 925.3 319.4 L 477.6 319.4 Z M 477.6 108.3 "></path></clipPath><g clip-path="url(#clip-231)"><image xlink:href="318C3E58020E09B2DB4D7B50622573C7.png" width="448.00" height="211.00" transform="matrix(1.00, 0.00, -0.00, -1.00, 478.0, 319.0)"></image></g></g><g><clipPath id="clip-232"><path d="M 0.3 209.5 L 448.1 209.5 L 448.1 382.3 L 0.3 382.3 Z M 0.3 209.5 "></path></clipPath><g clip-path="url(#clip-232)"><image xlink:href="3C95B6BFD73ACBA07915D88BB2FCE6CB.png" width="448.00" height="173.00" transform="matrix(1.00, 0.00, -0.00, -1.00, 0.0, 382.0)"></image></g></g></g></svg>