<?xml version="1.0" encoding="UTF-8" standalone="no"?><svg xmlns="http://www.w3.org/2000/svg" xmlns:xlink="http://www.w3.org/1999/xlink" clip-rule="evenodd" stroke-miterlimit="10" viewBox="0 0 1024 768"><desc>SVG generated by Keynote</desc><defs></defs><g transform="matrix(1.00, 0.00, -0.00, -1.00, 0.0, 768.0)"><path d="M 0.0 768.0 L 1024.0 768.0 L 1024.0 0.0 L 0.0 0.0 Z M 0.0 768.0 " fill="#000000"></path><g><clipPath id="clip0x7fee79086b60"><path d="M -6.0 773.0 L 271.0 773.0 L 271.0 377.0 L -6.0 377.0 Z M -5.8 772.8 "></path></clipPath><g clip-path="url(#clip0x7fee79086b60)"><image xlink:href="../../73BEE7E2-8CE7-4473-8A35-71BF660A58FB/assets/8B00E4BBAED7BC8E422722A2E45E9B61.jpeg" width="2448.00" height="3264.00" transform="matrix(0.13, 0.00, -0.00, -0.13, -6.0, 773.0)"></image></g></g><text xml:space="preserve" font-family="Helvetica-Light,Helvetica" font-size="18.0" fill="#FEFFFF" transform="matrix(1.00, 0.00, -0.00, -1.00, 501.5, 17.1)">2</text><text xml:space="preserve" font-family="Helvetica-Light,Helvetica" font-size="18.0" fill="#FEFFFF" transform="matrix(1.00, 0.00, -0.00, -1.00, 511.5, 17.1)">8</text><g><clipPath id="clip0x7fee75fa9aa0"><path d="M 556.0 341.0 L 1025.0 341.0 L 1025.0 2.0 L 556.0 2.0 Z M 555.9 341.4 "></path></clipPath><g clip-path="url(#clip0x7fee75fa9aa0)"><image xlink:href="../../73BEE7E2-8CE7-4473-8A35-71BF660A58FB/assets/4666320600B26A181462301F47A49E34.jpeg" width="3264.00" height="2448.00" transform="matrix(0.16, 0.00, -0.00, -0.16, 517.0, 341.0)"></image></g></g><g><clipPath id="clip0x7fee73dc0830"><path d="M 679.1 517.0 L 759.2 517.0 L 759.2 664.6 L 679.1 664.6 Z M 679.1 517.0 "></path></clipPath><g clip-path="url(#clip0x7fee73dc0830)"><image xlink:href="../../73BEE7E2-8CE7-4473-8A35-71BF660A58FB/assets/746D9C85DEF5F62BD20352F906737458.png" width="485.00" height="894.00" transform="matrix(0.16, 0.00, -0.00, -0.17, 679.0, 665.0)"></image></g></g><g><clipPath id="clip0x7fee790819d0"><path d="M 335.6 513.1 L 413.8 513.1 L 413.8 660.8 L 335.6 660.8 Z M 335.6 513.1 "></path></clipPath><g clip-path="url(#clip0x7fee790819d0)"><image xlink:href="../../73BEE7E2-8CE7-4473-8A35-71BF660A58FB/assets/0195554926025C64A7F597F9861B644A.png" width="542.00" height="1024.00" transform="matrix(0.14, 0.00, -0.00, -0.14, 336.0, 661.0)"></image></g></g><g><clipPath id="clip0x7fee75e35660"><path d="M 510.1 513.0 L 585.7 513.0 L 585.7 655.8 L 510.1 655.8 Z M 510.1 513.0 "></path></clipPath><g clip-path="url(#clip0x7fee75e35660)"><image xlink:href="../../73BEE7E2-8CE7-4473-8A35-71BF660A58FB/assets/90360CB31ABA5F2EA76569C5EC1233ED.png" width="542.00" height="1024.00" transform="matrix(0.14, 0.00, -0.00, -0.14, 510.0, 656.0)"></image></g></g><g><clipPath id="clip0x7fee75faa960"><path d="M 423.0 508.1 L 501.1 508.1 L 501.1 655.8 L 423.0 655.8 Z M 423.0 508.1 "></path></clipPath><g clip-path="url(#clip0x7fee75faa960)"><image xlink:href="../../73BEE7E2-8CE7-4473-8A35-71BF660A58FB/assets/87CC36272B6C8042F18BF227212E1B1D.png" width="542.00" height="1024.00" transform="matrix(0.14, 0.00, -0.00, -0.14, 423.0, 656.0)"></image></g></g><g><clipPath id="clip0x7fee75e25420"><path d="M 766.8 477.8 L 846.9 477.8 L 846.9 655.7 L 766.8 655.7 Z M 766.8 477.8 "></path></clipPath><g clip-path="url(#clip0x7fee75e25420)"><image xlink:href="../../73BEE7E2-8CE7-4473-8A35-71BF660A58FB/assets/D4E165B990546010099BAEB5ED4A3CE8.png" width="465.00" height="1033.00" transform="matrix(0.17, 0.00, -0.00, -0.17, 767.0, 656.0)"></image></g></g><g><clipPath id="clip0x7fee75e75a40"><path d="M 594.9 520.4 L 673.0 520.4 L 673.0 667.8 L 594.9 667.8 Z M 594.9 520.4 "></path></clipPath><g clip-path="url(#clip0x7fee75e75a40)"><image xlink:href="../../73BEE7E2-8CE7-4473-8A35-71BF660A58FB/assets/B7CCAAFA95F2774A7B493A32B28F3B22.png" width="484.00" height="913.00" transform="matrix(0.16, 0.00, -0.00, -0.16, 595.0, 668.0)"></image></g></g><g><clipPath id="clip0x7fee70233550"><path d="M 246.5 509.4 L 333.5 509.4 L 333.5 652.2 L 246.5 652.2 Z M 246.5 509.4 "></path></clipPath><g clip-path="url(#clip0x7fee70233550)"><image xlink:href="../../73BEE7E2-8CE7-4473-8A35-71BF660A58FB/assets/F20EF4BEC6CBE7DFB909DDD56707F843.png" width="484.00" height="795.00" transform="matrix(0.18, 0.00, -0.00, -0.18, 247.0, 652.0)"></image></g></g><g><clipPath id="clip0x7fee75d74f30"><path d="M 266.1 471.5 L 855.0 471.5 L 855.0 522.6 L 266.1 522.6 Z M 266.1 471.5 "></path></clipPath><g clip-path="url(#clip0x7fee75d74f30)"><path d="M 267.0 522.0 L 854.0 522.0 L 854.0 473.0 L 267.0 473.0 Z M 267.1 521.6 " fill="#000000"></path></g></g><g><clipPath id="clip0x7fee75d78bd0"><path d="M 273.1 654.1 L 855.0 654.1 L 855.0 677.6 L 273.1 677.6 Z M 273.1 654.1 "></path></clipPath><g clip-path="url(#clip0x7fee75d78bd0)"><path d="M 274.0 677.0 L 854.0 677.0 L 854.0 655.0 L 274.0 655.0 Z M 274.1 676.6 " fill="#000000"></path></g></g><g><clipPath id="clip0x7fee75cf2750"><path d="M 248.2 277.9 L 447.6 277.9 L 447.6 449.4 L 248.2 449.4 Z M 248.2 277.9 "></path></clipPath><g clip-path="url(#clip0x7fee75cf2750)"><image xlink:href="../../73BEE7E2-8CE7-4473-8A35-71BF660A58FB/assets/F50A06FEE8AC4E3BBE00B0CDC83A2481.png" width="1071.00" height="921.00" transform="matrix(0.19, 0.00, -0.00, -0.19, 248.0, 449.0)"></image></g></g><g><clipPath id="clip0x7fee75e889b0"><path d="M 456.1 277.9 L 655.7 277.9 L 655.7 449.4 L 456.1 449.4 Z M 456.1 277.9 "></path></clipPath><g clip-path="url(#clip0x7fee75e889b0)"><image xlink:href="../../73BEE7E2-8CE7-4473-8A35-71BF660A58FB/assets/2C7F16F15F7ABD723577A71A7840DF14.png" width="1072.00" height="921.00" transform="matrix(0.19, 0.00, -0.00, -0.19, 456.0, 449.0)"></image></g></g><g><clipPath id="clip0x7fee75d99310"><path d="M 664.0 450.0 L 849.0 450.0 L 849.0 277.0 L 664.0 277.0 Z M 664.1 450.3 "></path></clipPath><g clip-path="url(#clip0x7fee75d99310)"><g><clipPath id="clip0x7fee75dd0f10"><path d="M 664.1 277.0 L 848.7 277.0 L 848.7 450.3 L 664.1 450.3 Z M 664.1 277.0 "></path></clipPath><g clip-path="url(#clip0x7fee75dd0f10)"><image xlink:href="../../73BEE7E2-8CE7-4473-8A35-71BF660A58FB/assets/E4FF0AD568103BF5420CE353D59F0C42.jpeg" width="1440.00" height="1054.00" transform="matrix(0.19, 0.00, -0.00, -0.19, 576.0, 450.0)"></image></g></g></g></g><text xml:space="preserve" font-family="Helvetica-Light,Helvetica" font-size="18.0" fill="#FEFFFF" transform="matrix(1.00, 0.00, -0.00, -1.00, 468.3, 669.1)">N</text><text xml:space="preserve" font-family="Helvetica-Light,Helvetica" font-size="18.0" fill="#FEFFFF" transform="matrix(1.00, 0.00, -0.00, -1.00, 481.3, 669.1)">a</text><text xml:space="preserve" font-family="Helvetica-Light,Helvetica" font-size="18.0" fill="#FEFFFF" transform="matrix(1.00, 0.00, -0.00, -1.00, 491.3, 669.1)">v</text><text xml:space="preserve" font-family="Helvetica-Light,Helvetica" font-size="18.0" fill="#FEFFFF" transform="matrix(1.00, 0.00, -0.00, -1.00, 500.3, 669.1)"> </text><text xml:space="preserve" font-family="Helvetica-Light,Helvetica" font-size="18.0" fill="#FEFFFF" transform="matrix(1.00, 0.00, -0.00, -1.00, 505.3, 669.1)">b</text><text xml:space="preserve" font-family="Helvetica-Light,Helvetica" font-size="18.0" fill="#FEFFFF" transform="matrix(1.00, 0.00, -0.00, -1.00, 516.3, 669.1)">a</text><text xml:space="preserve" font-family="Helvetica-Light,Helvetica" font-size="18.0" fill="#FEFFFF" transform="matrix(1.00, 0.00, -0.00, -1.00, 526.3, 669.1)">r</text><text xml:space="preserve" font-family="Helvetica-Light,Helvetica" font-size="18.0" fill="#FEFFFF" transform="matrix(1.00, 0.00, -0.00, -1.00, 532.3, 669.1)"> </text><text xml:space="preserve" font-family="Helvetica-Light,Helvetica" font-size="18.0" fill="#FEFFFF" transform="matrix(1.00, 0.00, -0.00, -1.00, 537.3, 669.1)">i</text><text xml:space="preserve" font-family="Helvetica-Light,Helvetica" font-size="18.0" fill="#FEFFFF" transform="matrix(1.00, 0.00, -0.00, -1.00, 541.3, 669.1)">t</text><text xml:space="preserve" font-family="Helvetica-Light,Helvetica" font-size="18.0" fill="#FEFFFF" transform="matrix(1.00, 0.00, -0.00, -1.00, 546.3, 669.1)">e</text><text xml:space="preserve" font-family="Helvetica-Light,Helvetica" font-size="18.0" fill="#FEFFFF" transform="matrix(1.00, 0.00, -0.00, -1.00, 556.3, 669.1)">r</text><text xml:space="preserve" font-family="Helvetica-Light,Helvetica" font-size="18.0" fill="#FEFFFF" transform="matrix(1.00, 0.00, -0.00, -1.00, 562.3, 669.1)">a</text><text xml:space="preserve" font-family="Helvetica-Light,Helvetica" font-size="18.0" fill="#FEFFFF" transform="matrix(1.00, 0.00, -0.00, -1.00, 572.3, 669.1)">t</text><text xml:space="preserve" font-family="Helvetica-Light,Helvetica" font-size="18.0" fill="#FEFFFF" transform="matrix(1.00, 0.00, -0.00, -1.00, 577.3, 669.1)">i</text><text xml:space="preserve" font-family="Helvetica-Light,Helvetica" font-size="18.0" fill="#FEFFFF" transform="matrix(1.00, 0.00, -0.00, -1.00, 581.3, 669.1)">o</text><text xml:space="preserve" font-family="Helvetica-Light,Helvetica" font-size="18.0" fill="#FEFFFF" transform="matrix(1.00, 0.00, -0.00, -1.00, 591.3, 669.1)">n</text><text xml:space="preserve" font-family="Helvetica-Light,Helvetica" font-size="18.0" fill="#FEFFFF" transform="matrix(1.00, 0.00, -0.00, -1.00, 479.5, 467.1)">M</text><text xml:space="preserve" font-family="Helvetica-Light,Helvetica" font-size="18.0" fill="#FEFFFF" transform="matrix(1.00, 0.00, -0.00, -1.00, 494.5, 467.1)">a</text><text xml:space="preserve" font-family="Helvetica-Light,Helvetica" font-size="18.0" fill="#FEFFFF" transform="matrix(1.00, 0.00, -0.00, -1.00, 504.5, 467.1)">p</text><text xml:space="preserve" font-family="Helvetica-Light,Helvetica" font-size="18.0" fill="#FEFFFF" transform="matrix(1.00, 0.00, -0.00, -1.00, 515.5, 467.1)"> </text><text xml:space="preserve" font-family="Helvetica-Light,Helvetica" font-size="18.0" fill="#FEFFFF" transform="matrix(1.00, 0.00, -0.00, -1.00, 520.6, 467.1)">i</text><text xml:space="preserve" font-family="Helvetica-Light,Helvetica" font-size="18.0" fill="#FEFFFF" transform="matrix(1.00, 0.00, -0.00, -1.00, 524.5, 467.1)">t</text><text xml:space="preserve" font-family="Helvetica-Light,Helvetica" font-size="18.0" fill="#FEFFFF" transform="matrix(1.00, 0.00, -0.00, -1.00, 529.6, 467.1)">e</text><text xml:space="preserve" font-family="Helvetica-Light,Helvetica" font-size="18.0" fill="#FEFFFF" transform="matrix(1.00, 0.00, -0.00, -1.00, 539.6, 467.1)">r</text><text xml:space="preserve" font-family="Helvetica-Light,Helvetica" font-size="18.0" fill="#FEFFFF" transform="matrix(1.00, 0.00, -0.00, -1.00, 545.6, 467.1)">a</text><text xml:space="preserve" font-family="Helvetica-Light,Helvetica" font-size="18.0" fill="#FEFFFF" transform="matrix(1.00, 0.00, -0.00, -1.00, 555.6, 467.1)">t</text><text xml:space="preserve" font-family="Helvetica-Light,Helvetica" font-size="18.0" fill="#FEFFFF" transform="matrix(1.00, 0.00, -0.00, -1.00, 560.6, 467.1)">i</text><text xml:space="preserve" font-family="Helvetica-Light,Helvetica" font-size="18.0" fill="#FEFFFF" transform="matrix(1.00, 0.00, -0.00, -1.00, 564.6, 467.1)">o</text><text xml:space="preserve" font-family="Helvetica-Light,Helvetica" font-size="18.0" fill="#FEFFFF" transform="matrix(1.00, 0.00, -0.00, -1.00, 574.6, 467.1)">n</text></g></svg>