<?xml version="1.0" encoding="UTF-8" standalone="no"?><svg xmlns="http://www.w3.org/2000/svg" xmlns:xlink="http://www.w3.org/1999/xlink" clip-rule="evenodd" stroke-miterlimit="4.00" viewBox="0 0 1024 768"><desc>SVG generated by Keynote</desc><defs></defs><g transform="matrix(1.00, 0.00, -0.00, -1.00, 0.0, 768.0)"><path d="M 0.0 768.0 L 1024.0 768.0 L 1024.0 0.0 L 0.0 0.0 Z M 0.0 768.0 " fill="#000000"></path><text xml:space="preserve" font-family="SourceSansPro-Light" font-size="40.0" fill="#FEFFFF" transform="matrix(1.00, 0.00, -0.00, -1.00, 357.0, 369.0)">T</text><text xml:space="preserve" font-family="SourceSansPro-Light" font-size="40.0" fill="#FEFFFF" transform="matrix(1.00, 0.00, -0.00, -1.00, 375.7, 369.0)">r</text><text xml:space="preserve" font-family="SourceSansPro-Light" font-size="40.0" fill="#FEFFFF" transform="matrix(1.00, 0.00, -0.00, -1.00, 387.5, 369.0)">a</text><text xml:space="preserve" font-family="SourceSansPro-Light" font-size="40.0" fill="#FEFFFF" transform="matrix(1.00, 0.00, -0.00, -1.00, 407.4, 369.0)">i</text><text xml:space="preserve" font-family="SourceSansPro-Light" font-size="40.0" fill="#FEFFFF" transform="matrix(1.00, 0.00, -0.00, -1.00, 416.6, 369.0)">n</text><text xml:space="preserve" font-family="SourceSansPro-Light" font-size="40.0" fill="#FEFFFF" transform="matrix(1.00, 0.00, -0.00, -1.00, 437.9, 369.0)">e</text><text xml:space="preserve" font-family="SourceSansPro-Light" font-size="40.0" fill="#FEFFFF" transform="matrix(1.00, 0.00, -0.00, -1.00, 457.2, 369.0)">r</text><text xml:space="preserve" font-family="SourceSansPro-Light" font-size="40.0" fill="#FEFFFF" transform="matrix(1.00, 0.00, -0.00, -1.00, 469.9, 369.0)"> </text><text xml:space="preserve" font-family="SourceSansPro-Light" font-size="40.0" fill="#FEFFFF" transform="matrix(1.00, 0.00, -0.00, -1.00, 477.8, 369.0)">o</text><text xml:space="preserve" font-family="SourceSansPro-Light" font-size="40.0" fill="#FEFFFF" transform="matrix(1.00, 0.00, -0.00, -1.00, 499.2, 369.0)">n</text><text xml:space="preserve" font-family="SourceSansPro-Light" font-size="40.0" fill="#FEFFFF" transform="matrix(1.00, 0.00, -0.00, -1.00, 520.5, 369.0)">b</text><text xml:space="preserve" font-family="SourceSansPro-Light" font-size="40.0" fill="#FEFFFF" transform="matrix(1.00, 0.00, -0.00, -1.00, 542.3, 369.0)">o</text><text xml:space="preserve" font-family="SourceSansPro-Light" font-size="40.0" fill="#FEFFFF" transform="matrix(1.00, 0.00, -0.00, -1.00, 563.1, 369.0)">a</text><text xml:space="preserve" font-family="SourceSansPro-Light" font-size="40.0" fill="#FEFFFF" transform="matrix(1.00, 0.00, -0.00, -1.00, 583.0, 369.0)">r</text><text xml:space="preserve" font-family="SourceSansPro-Light" font-size="40.0" fill="#FEFFFF" transform="matrix(1.00, 0.00, -0.00, -1.00, 595.3, 369.0)">d</text><text xml:space="preserve" font-family="SourceSansPro-Light" font-size="40.0" fill="#FEFFFF" transform="matrix(1.00, 0.00, -0.00, -1.00, 617.1, 369.0)">i</text><text xml:space="preserve" font-family="SourceSansPro-Light" font-size="40.0" fill="#FEFFFF" transform="matrix(1.00, 0.00, -0.00, -1.00, 626.2, 369.0)">n</text><text xml:space="preserve" font-family="SourceSansPro-Light" font-size="40.0" fill="#FEFFFF" transform="matrix(1.00, 0.00, -0.00, -1.00, 647.5, 369.0)">g</text><text xml:space="preserve" font-family="Helvetica-Light" font-size="18.0" fill="#FEFFFF" transform="matrix(1.00, 0.00, -0.00, -1.00, 506.0, 17.0)">3</text></g></svg>