<?xml version="1.0" encoding="UTF-8" standalone="no"?><svg xmlns="http://www.w3.org/2000/svg" xmlns:xlink="http://www.w3.org/1999/xlink" clip-rule="evenodd" stroke-miterlimit="4.00" viewBox="0 0 146 37"><desc>SVG generated by Keynote</desc><defs></defs><g transform="matrix(1.00, 0.00, -0.00, -1.00, 0.0, 37.0)"><text xml:space="preserve" font-family="SourceSansPro-Light" font-size="36.8" fill="#FEFFFF" transform="matrix(1.00, 0.00, -0.00, -1.00, -1.0, 10.0)">U</text><text xml:space="preserve" font-family="SourceSansPro-Light" font-size="36.8" fill="#FEFFFF" transform="matrix(1.00, 0.00, -0.00, -1.00, 21.7, 10.0)">X</text><text xml:space="preserve" font-family="SourceSansPro-Light" font-size="36.8" fill="#FEFFFF" transform="matrix(1.00, 0.00, -0.00, -1.00, 39.1, 10.0)"> </text><text xml:space="preserve" font-family="SourceSansPro-Light" font-size="36.8" fill="#FEFFFF" transform="matrix(1.00, 0.00, -0.00, -1.00, 46.4, 10.0)">D</text><text xml:space="preserve" font-family="SourceSansPro-Light" font-size="36.8" fill="#FEFFFF" transform="matrix(1.00, 0.00, -0.00, -1.00, 68.5, 10.0)">e</text><text xml:space="preserve" font-family="SourceSansPro-Light" font-size="36.8" fill="#FEFFFF" transform="matrix(1.00, 0.00, -0.00, -1.00, 86.2, 10.0)">s</text><text xml:space="preserve" font-family="SourceSansPro-Light" font-size="36.8" fill="#FEFFFF" transform="matrix(1.00, 0.00, -0.00, -1.00, 101.1, 10.0)">i</text><text xml:space="preserve" font-family="SourceSansPro-Light" font-size="36.8" fill="#FEFFFF" transform="matrix(1.00, 0.00, -0.00, -1.00, 109.5, 10.0)">g</text><text xml:space="preserve" font-family="SourceSansPro-Light" font-size="36.8" fill="#FEFFFF" transform="matrix(1.00, 0.00, -0.00, -1.00, 127.4, 10.0)">n</text></g></svg>