<?xml version="1.0" encoding="UTF-8" standalone="no"?>
<svg width="157px" height="153px" viewBox="0 0 157 153" version="1.1" xmlns="http://www.w3.org/2000/svg" xmlns:xlink="http://www.w3.org/1999/xlink">
    <!-- Generator: Sketch 48.2 (47327) - http://www.bohemiancoding.com/sketch -->
    <title>Group 11 Copy</title>
    <desc>Created with Sketch.</desc>
    <defs></defs>
    <g id="Page-1" stroke="none" stroke-width="1" fill="none" fill-rule="evenodd">
        <g id="Group-11-Copy" transform="translate(1.000000, 0.000000)" stroke="#44A6DF">
            <circle id="Oval-Copy-9" stroke-width="6" cx="78.5" cy="76.5" r="73.5"></circle>
            <path d="M71.686,82.164 C69.9633247,84.3426776 68.3293411,86.2679916 66.784,87.94 C65.2386589,89.6120084 63.5920087,91.0686605 61.844,92.31 C60.0959913,93.5513395 58.1706772,94.6533285 56.068,95.616 C53.9653228,96.5786715 51.4700144,97.4653293 48.582,98.276 C46.5553232,101.620017 44.3513452,104.875317 41.97,108.042 C39.5886548,111.208683 36.966681,114.007988 34.104,116.44 C31.241319,118.872012 28.0620175,120.822659 24.566,122.292 C21.0699825,123.761341 17.1686882,124.496 12.862,124.496 C11.4433262,124.496 9.99934068,124.331335 8.53,124.002 C7.06065932,123.672665 5.71800608,123.153337 4.502,122.444 C3.28599392,121.734663 2.2980038,120.797339 1.538,119.632 C0.7779962,118.466661 0.398,117.048008 0.398,115.376 C0.398,113.095989 1.10732624,111.158008 2.526,109.562 C3.94467376,107.965992 5.80665514,106.648672 8.112,105.61 C10.4173449,104.571328 13.0266521,103.735337 15.94,103.102 C18.8533479,102.468664 21.7919852,101.924002 24.756,101.468 C27.7200148,101.011998 30.5826529,100.619335 33.344,100.29 C36.1053471,99.960665 38.4993232,99.5680023 40.526,99.112 C42.6540106,95.5146487 44.6299909,91.9680175 46.454,88.472 C48.2780091,84.9759825 50.1146574,81.6066829 51.964,78.364 C53.8133426,75.1213171 55.7386567,72.0306814 57.74,69.092 C59.7413433,66.1533186 61.9959875,63.4300125 64.504,60.922 C67.0120125,58.4139875 69.836651,56.1466768 72.978,54.12 C76.119349,52.0933232 79.7673126,50.3706738 83.922,48.952 L83.922,48.8 C81.4393209,48.8 78.4500175,48.8633327 74.954,48.99 C71.4579825,49.1166673 67.7973525,49.4206643 63.972,49.902 C60.1466475,50.3833357 56.3593521,51.0799954 52.61,51.992 C48.8606479,52.9040046 45.4913483,54.1326589 42.502,55.678 C39.5126517,57.2233411 37.0933426,59.1359886 35.244,61.416 C33.3946574,63.6960114 32.47,66.4573171 32.47,69.7 C32.47,72.233346 33.0779939,74.1966597 34.294,75.59 C35.5100061,76.9833403 37.3339878,77.68 39.766,77.68 C41.0833399,77.68 42.3499939,77.4140027 43.566,76.882 C44.7820061,76.3499973 45.8839951,75.6026715 46.872,74.64 C47.8600049,73.6773285 48.6453304,72.5500065 49.228,71.258 C49.8106696,69.9659935 50.102,68.5346745 50.102,66.964 C50.102,66.2546631 50.0260008,65.5453369 49.874,64.836 C49.7219992,64.1266631 49.4940015,63.44267 49.19,62.784 L49.95,62.556 C50.2540015,63.164003 50.5073323,63.8606627 50.71,64.646 C50.9126677,65.4313373 51.014,66.2546624 51.014,67.116 C51.014,68.7880084 50.6593369,70.3839924 49.95,71.904 C49.2406631,73.4240076 48.2653395,74.7413278 47.024,75.856 C45.7826605,76.9706722 44.3006753,77.85733 42.578,78.516 C40.8553247,79.17467 38.9553437,79.504 36.878,79.504 C35.3073255,79.504 33.8633399,79.2506692 32.546,78.744 C31.2286601,78.2373308 30.0886715,77.5533376 29.126,76.692 C28.1633285,75.8306624 27.4160027,74.7920061 26.884,73.576 C26.3519973,72.3599939 26.086,71.0426738 26.086,69.624 C26.086,67.0399871 26.7446601,64.7600099 28.062,62.784 C29.3793399,60.8079901 31.1273224,59.0726741 33.306,57.578 C35.4846776,56.0833259 37.9926525,54.8040053 40.83,53.74 C43.6673475,52.6759947 46.6186513,51.7893369 49.684,51.08 C52.7493487,50.3706631 55.7893183,49.8006688 58.804,49.37 C61.8186817,48.9393312 64.6179871,48.6100011 67.202,48.382 C69.7860129,48.1539989 72.015324,48.0146669 73.89,47.964 C75.764676,47.9133331 77.0819962,47.888 77.842,47.888 C81.3380175,47.888 84.2259886,47.7613346 86.506,47.508 C88.7860114,47.2546654 90.7113255,47.128 92.282,47.128 C92.6873354,47.128 93.054665,47.2166658 93.384,47.394 C93.713335,47.5713342 93.878,47.8626646 93.878,48.268 C93.878,48.6733354 93.6626688,48.9646658 93.232,49.142 C92.8013312,49.3193342 91.952673,49.408 90.686,49.408 C89.8753293,49.408 89.0773373,49.3826669 88.292,49.332 C87.5066627,49.2813331 86.7086707,49.2306669 85.898,49.18 C83.1113194,49.7373361 80.4640125,51.0419897 77.956,53.094 C75.4479875,55.1460103 73.0540114,57.6286521 70.774,60.542 C68.4939886,63.4553479 66.3280103,66.647316 64.276,70.118 C62.2239897,73.588684 60.2986757,77.0086498 58.5,80.378 C56.7013243,83.7473502 55.004008,86.9013186 53.408,89.84 C51.811992,92.7786814 50.3300068,95.210657 48.962,97.136 L49.038,97.06 L49.19,97.212 C51.8246798,96.4519962 54.1299901,95.603338 56.106,94.666 C58.0820099,93.728662 59.8933251,92.6520061 61.54,91.436 C63.1866749,90.2199939 64.7699924,88.814008 66.29,87.218 C67.8100076,85.621992 69.4313247,83.7600106 71.154,81.632 L71.686,82.164 Z M6.782,115.832 C6.782,118.264012 7.52932586,120.163993 9.024,121.532 C10.5186741,122.900007 12.4819878,123.584 14.914,123.584 C16.9913437,123.584 18.9293243,123.204004 20.728,122.444 C22.5266757,121.683996 24.1859924,120.670673 25.706,119.404 C27.2260076,118.137327 28.6446601,116.693341 29.962,115.072 C31.2793399,113.450659 32.5206608,111.766009 33.686,110.018 C34.8513392,108.269991 35.9659947,106.522009 37.03,104.774 C38.0940053,103.025991 39.1073285,101.417341 40.07,99.948 C38.803327,100.302668 37.0933441,100.631998 34.94,100.936 C32.7866559,101.240002 30.4813456,101.594665 28.024,102 C25.5666544,102.405335 23.071346,102.924664 20.538,103.558 C18.004654,104.191337 15.7246768,105.027328 13.698,106.066 C11.6713232,107.104672 10.0120065,108.421992 8.72,110.018 C7.42799354,111.614008 6.782,113.551989 6.782,115.832 Z M111.662,48.496 C109.584656,49.5093384 107.786008,51.0546563 106.266,53.132 C104.745992,55.2093437 103.390673,57.6033198 102.2,60.314 C101.009327,63.0246802 99.9200049,65.950651 98.932,69.092 C97.9439951,72.233349 96.9306719,75.374651 95.892,78.516 C94.8533281,81.657349 93.7260061,84.6846521 92.51,87.598 C91.2939939,90.5113479 89.8753414,93.1079886 88.254,95.388 L88.406,95.54 C91.1926806,93.1079878 93.9286532,90.6126795 96.614,88.054 C99.2993468,85.4953205 101.807322,82.9873456 104.138,80.53 C106.468678,78.0726544 108.58399,75.742011 110.484,73.538 C112.384009,71.333989 113.941994,69.4213414 115.158,67.8 C115.918004,66.7866616 116.601997,65.5960068 117.21,64.228 C117.818003,62.8599932 118.400664,61.6693384 118.958,60.656 C119.920671,58.8319909 121.085993,57.1726741 122.454,55.678 C123.822007,54.1833259 125.20266,52.8913388 126.596,51.802 C127.98934,50.7126612 129.255994,49.864003 130.396,49.256 C131.536006,48.647997 132.359331,48.344 132.866,48.344 C133.626004,48.344 134.006,48.7239962 134.006,49.484 C134.006,49.8386684 133.778002,50.2439977 133.322,50.7 C132.865998,51.1560023 132.30867,51.6499973 131.65,52.182 C130.99133,52.7140027 130.29467,53.283997 129.56,53.892 C128.82533,54.500003 128.179336,55.1586631 127.622,55.868 C126.30466,57.4893414 125.228004,59.3386563 124.392,61.416 C123.555996,63.4933437 122.80867,65.6973217 122.15,68.028 C121.49133,70.3586783 120.845336,72.8159871 120.212,75.4 C119.578663,77.9840129 118.831338,80.5933202 117.97,83.228 C117.108662,85.8626798 116.070006,88.5099867 114.854,91.17 C113.637994,93.8300133 112.067343,96.426654 110.142,98.96 L110.294,99.112 C112.726012,97.7946601 115.347986,96.2113426 118.16,94.362 C120.972014,92.5126574 123.771319,90.4733445 126.558,88.244 C129.344681,86.0146555 132.042654,83.6080129 134.652,81.024 C137.261346,78.4399871 139.579323,75.7546806 141.606,72.968 C143.632677,70.1813194 145.279327,67.3313479 146.546,64.418 C147.812673,61.5046521 148.521999,58.6040144 148.674,55.716 C148.01533,55.4119985 147.470669,54.9813361 147.04,54.424 C146.609331,53.8666639 146.394,53.2333369 146.394,52.524 C146.394,51.3586608 146.76133,50.3706707 147.496,49.56 C148.23067,48.7493293 149.180661,48.344 150.346,48.344 C151.967341,48.344 153.132663,48.9266608 153.842,50.092 C154.551337,51.2573392 154.906,52.5746593 154.906,54.044 C154.906,57.185349 153.930676,60.4786494 151.98,63.924 C150.029324,67.3693506 147.496016,70.7766498 144.38,74.146 C141.263984,77.5153502 137.780686,80.7833175 133.93,83.95 C130.079314,87.1166825 126.254019,89.9919871 122.454,92.576 C118.653981,95.1600129 115.082017,97.389324 111.738,99.264 C108.393983,101.138676 105.683344,102.455996 103.606,103.216 L102.922,102.76 C104.695342,100.226654 106.177327,97.5540141 107.368,94.742 C108.558673,91.9299859 109.609995,89.0800144 110.522,86.192 C111.434005,83.3039856 112.25733,80.4160144 112.992,77.528 C113.72667,74.6399856 114.549995,71.8280137 115.462,69.092 L115.31,68.94 C113.739325,71.0680106 111.864678,73.3479878 109.686,75.78 C107.507322,78.2120122 105.176679,80.6819875 102.694,83.19 C100.211321,85.6980125 97.6653464,88.1806544 95.056,90.638 C92.4466536,93.0953456 89.9006791,95.3879894 87.418,97.516 C86.5566624,98.2760038 85.79667,98.9726635 85.138,99.606 C84.47933,100.239337 83.846003,100.796664 83.238,101.278 C82.629997,101.759336 82.0346696,102.126665 81.452,102.38 C80.8693304,102.633335 80.1980038,102.76 79.438,102.76 C79.1846654,102.76 78.9440011,102.671334 78.716,102.494 C78.4879989,102.316666 78.374,102.076002 78.374,101.772 C78.374,101.315998 78.5766646,100.961335 78.982,100.708 C79.3873354,100.454665 79.8813304,100.138002 80.464,99.758 C81.0466696,99.3779981 81.6799966,98.8206703 82.364,98.086 C83.0480034,97.3513297 83.6686639,96.2746738 84.226,94.856 C85.7966745,90.8026464 87.0886616,86.7240205 88.102,82.62 C89.1153384,78.5159795 90.255327,74.564019 91.522,70.764 C92.788673,66.963981 94.384657,63.3920167 96.31,60.048 C98.235343,56.7039833 100.895316,53.765346 104.29,51.232 L104.138,51.08 C102.668659,51.5866692 100.920677,52.1313304 98.894,52.714 C96.8673232,53.2966696 94.7646776,53.9679962 92.586,54.728 C90.4073224,55.4880038 88.2540106,56.336662 86.126,57.274 C83.9979894,58.211338 82.0853418,59.313327 80.388,60.58 C78.6906582,61.846673 77.3226719,63.277992 76.284,64.874 C75.2453281,66.470008 74.726,68.2813232 74.726,70.308 C74.726,71.7773407 75.194662,73.0946608 76.132,74.26 C77.069338,75.4253392 78.3233255,76.008 79.894,76.008 C82.4780129,76.008 84.3399943,75.0326764 85.48,73.082 C86.6200057,71.1313236 87.19,68.560016 87.19,65.368 L88.102,65.368 C88.102,66.9386745 87.9500015,68.4459928 87.646,69.89 C87.3419985,71.3340072 86.8100038,72.6133278 86.05,73.728 C85.2899962,74.8426722 84.2893395,75.72933 83.048,76.388 C81.8066605,77.04667 80.2740091,77.376 78.45,77.376 C77.3859947,77.376 76.3726715,77.1986684 75.41,76.844 C74.4473285,76.4893316 73.5860038,75.9953365 72.826,75.362 C72.0659962,74.7286635 71.4580023,73.9560046 71.002,73.044 C70.5459977,72.1319954 70.318,71.1186722 70.318,70.004 C70.318,67.7746555 70.8499947,65.862008 71.914,64.266 C72.9780053,62.669992 74.472657,61.2640061 76.398,60.048 C78.323343,58.8319939 80.5779871,57.755338 83.162,56.818 C85.7460129,55.880662 88.5579848,54.9560046 91.598,54.044 C94.6380152,53.1319954 97.8426498,52.1946715 101.212,51.232 C104.58135,50.2693285 107.963316,49.154673 111.358,47.888 L111.662,48.496 Z" id="JW-Copy-9" fill="#44A6DF"></path>
        </g>
    </g>
</svg>