<?xml version="1.0" encoding="UTF-8"?>
<svg width="103px" height="100px" viewBox="0 0 103 100" version="1.1" xmlns="http://www.w3.org/2000/svg" xmlns:xlink="http://www.w3.org/1999/xlink">
    <!-- Generator: Sketch 48.2 (47327) - http://www.bohemiancoding.com/sketch -->
    <title>Group 11 Copy 11</title>
    <desc>Created with Sketch.</desc>
    <defs></defs>
    <g id="Page-1" stroke="none" stroke-width="1" fill="none" fill-rule="evenodd">
        <g id="Group-11-Copy-11" transform="translate(-19.000000, -21.000000)" fill="#44A6DF">
            <path d="M67.1956522,119.4 C92.7598777,119.4 117.486957,96.6277641 117.486957,71 C117.486957,45.3722359 100.759878,22.6 75.1956522,22.6 C49.6314267,22.6 24.9043478,45.3722359 24.9043478,71 C24.9043478,96.6277641 41.6314267,119.4 67.1956522,119.4 Z M71.1956522,121 C43.6414456,121 21.3043478,98.6142375 21.3043478,71 C21.3043478,43.3857625 43.6414456,21 71.1956522,21 C98.7498587,21 121.086957,43.3857625 121.086957,71 C121.086957,98.6142375 98.7498587,121 71.1956522,121 Z" id="Oval-Copy-9" fill-rule="nonzero" transform="translate(71.195652, 71.000000) rotate(40.000000) translate(-71.195652, -71.000000) "></path>
            <path d="M66.7529426,74.7025536 C65.6294297,76.1265627 64.5637606,77.3849705 63.5559033,78.4778147 C62.5480461,79.5706589 61.474116,80.5227437 60.3340808,81.3340978 C59.1940456,82.1454518 57.9383735,82.8657247 56.5670268,83.494938 C55.1956801,84.1241513 53.5682629,84.7036812 51.6847265,85.2335451 C50.3629465,87.4192335 48.9255324,89.5469362 47.372441,91.6167169 C45.8193495,93.6864976 44.1093223,95.5161563 42.2423082,97.1057478 C40.375294,98.6953394 38.3017828,99.9703052 36.0217124,100.930683 C33.7416419,101.891062 31.1972537,102.371244 28.3884713,102.371244 C27.4632253,102.371244 26.5214712,102.263617 25.5631808,102.048359 C24.6048903,101.833102 23.7292242,101.493663 22.9361562,101.030032 C22.1430883,100.566402 21.4987302,99.9537557 21.0030627,99.1920764 C20.5073952,98.4303971 20.2595652,97.5031492 20.2595652,96.410305 C20.2595652,94.9200629 20.7221813,93.6533761 21.6474272,92.6102066 C22.5726732,91.5670372 23.7870403,90.7060213 25.290565,90.0271332 C26.7940897,89.3482452 28.4958559,88.8018313 30.3959146,88.3878751 C32.2959732,87.973919 34.2125254,87.617922 36.1456286,87.3198736 C38.0787318,87.0218252 39.945718,86.7651762 41.7466432,86.5499191 C43.5475683,86.3346619 45.1088975,86.0780129 46.4306774,85.7799645 C47.8185464,83.4286936 49.1072625,81.110574 50.2968645,78.8255361 C51.4864664,76.5404982 52.6843116,74.3382846 53.8904358,72.2188291 C55.09656,70.0993737 56.3522321,68.079298 57.6574898,66.1585415 C58.9627475,64.2377851 60.4332056,62.4578003 62.0689083,60.818534 C63.704611,59.1792677 65.5468142,57.697327 67.5955731,56.3726673 C69.6443321,55.0480077 72.0235003,53.9220639 74.7331492,52.9948021 C73.1139688,52.8954531 71.1643726,52.9368481 68.8843021,53.0196393 C66.6042317,53.1024306 64.2168025,53.3011265 61.7219428,53.6157332 C59.2270832,53.9303399 56.7570439,54.3856848 54.311751,54.9817816 C51.8664581,55.5778785 49.6690319,56.3809413 47.7194065,57.3909943 C45.769781,58.4010473 44.1919299,59.6511761 42.9858057,61.1414182 C41.7796815,62.6316603 41.1766284,64.436482 41.1766284,66.5559374 C41.1766284,68.211762 41.5731564,69.4950068 42.3662244,70.4057103 C43.1592924,71.3164138 44.3488765,71.7717587 45.9350124,71.7717587 C46.7941694,71.7717587 47.6202695,71.5978998 48.4133375,71.2501766 C49.2064054,70.9024535 49.9251125,70.4139925 50.5694802,69.7847792 C51.213848,69.1555659 51.72603,68.418735 52.1060417,67.5742645 C52.4860535,66.7297939 52.6760565,65.7942671 52.6760565,64.7676559 C52.6760565,64.304025 52.6264905,63.8404011 52.527357,63.3767702 C52.4282235,62.9131393 52.2795255,62.4660734 52.0812585,62.035559 L52.5769235,61.8865355 C52.7751905,62.2839334 52.9404105,62.7392784 53.0725885,63.252584 C53.2047665,63.7658896 53.2708545,64.3040245 53.2708545,64.8670048 C53.2708545,65.9598491 53.0395465,67.0030029 52.5769235,67.9964976 C52.1143005,68.9899924 51.4782035,69.8510082 50.6686132,70.579571 C49.859023,71.3081338 48.8924859,71.8876637 47.768973,72.3181781 C46.64546,72.7486925 45.4063099,72.9639465 44.0514854,72.9639465 C43.027106,72.9639465 42.0853519,72.7983665 41.2261949,72.4672016 C40.3670379,72.1360367 39.6235479,71.6889707 38.9957024,71.1259904 C38.3678569,70.56301 37.8804579,69.8841322 37.5334906,69.0893364 C37.1865234,68.2945406 37.0130424,67.4335247 37.0130424,66.506263 C37.0130424,64.8173219 37.4426144,63.3271022 38.3017714,62.035559 C39.1609283,60.7440158 40.3009465,59.609793 41.7218599,58.6328565 C43.1427734,57.6559201 44.7784515,56.8197412 46.6289434,56.1242949 C48.4794354,55.4288486 50.4042486,54.8493187 52.4034407,54.3856878 C54.4026329,53.9220569 56.3852731,53.549502 58.3514208,53.2680118 C60.3175685,52.9865216 62.1432497,52.7712676 63.8285191,52.6222434 C65.5137885,52.4732192 66.9677247,52.3821502 68.1903711,52.3490338 C69.4130176,52.3159173 70.2721617,52.2993593 70.7678292,52.2993593 C73.0478996,52.2993593 74.9314078,52.2165693 76.4184102,52.0509868 C77.9054127,51.8854044 79.1610848,51.8026144 80.1854642,51.8026144 C80.4498202,51.8026144 80.6893893,51.8605674 80.9041785,51.9764751 C81.1189677,52.0923828 81.2263608,52.2827998 81.2263608,52.5477317 C81.2263608,52.8126636 81.0859237,53.0030806 80.8050455,53.1189883 C80.5241673,53.234896 79.9706802,53.292849 79.1445677,53.292849 C78.6158558,53.292849 78.0954127,53.276291 77.583223,53.2431745 C77.0710332,53.2100581 76.5505902,53.1769421 76.0218782,53.1438256 C74.2044308,53.508107 72.4778816,54.3608438 70.8421789,55.7020617 C69.2064762,57.0432796 67.6451471,58.6659633 66.1581446,60.5701616 C64.6711422,62.4743598 63.258511,64.5606675 61.9202088,66.8291471 C60.5819066,69.0976268 59.3262345,71.3329564 58.1531548,73.5352031 C56.9800751,75.7374497 55.873101,77.7989204 54.8321993,79.7196769 C53.7912976,81.6404334 52.8247605,83.2300011 51.932559,84.4884278 C53.7995724,84.0413549 55.3030746,83.486662 56.59181,82.8740069 C57.8805455,82.2613518 59.0618686,81.5576369 60.1358148,80.7628411 C61.209761,79.9680454 62.2423861,79.0490765 63.2337211,78.005907 C64.2250561,76.9627376 65.2824642,75.7457248 66.4059771,74.3548321 L66.7529426,74.7025536 Z M24.4231513,96.7083519 C24.4231513,98.2979435 24.9105503,99.5397933 25.885363,100.433939 C26.8601757,101.328084 28.1406309,101.77515 29.7267668,101.77515 C31.0815913,101.77515 32.3455244,101.52678 33.5186041,101.030032 C34.6916838,100.533285 35.7738749,99.8709652 36.7652099,99.0430529 C37.7565448,98.2151406 38.6817769,97.2713348 39.5409339,96.2116071 C40.4000909,95.1518793 41.2096689,94.0507725 41.9696924,92.9082536 C42.7297159,91.7657346 43.456684,90.6232328 44.1506184,89.4807139 C44.8445529,88.3381949 45.505433,87.2867621 46.1332784,86.3263839 C45.307166,86.5581993 44.1919309,86.7734533 42.7875397,86.9721522 C41.3831485,87.1708512 39.8796463,87.4026631 38.2769881,87.667595 C36.6743299,87.932527 35.0469128,88.2719659 33.3946878,88.6859221 C31.7424629,89.0998782 30.2554827,89.6462921 28.9337028,90.3251802 C27.6119228,91.0040682 26.5297317,91.8650841 25.687097,92.9082536 C24.8444623,93.951423 24.4231513,95.2181098 24.4231513,96.7083519 Z M92.8249219,52.6967552 C91.4700974,53.359085 90.2970353,54.3691228 89.3057003,55.726899 C88.3143654,57.0846751 87.4304383,58.6494058 86.6538926,60.4211381 C85.8773468,62.1928704 85.1669008,64.1053191 84.522533,66.1585415 C83.8781653,68.211764 83.2172852,70.2649557 82.539873,72.3181781 C81.8624608,74.3714006 81.1272317,76.3500812 80.3341637,78.2542795 C79.5410958,80.1584777 78.6158637,81.8556724 77.5584397,83.3459145 L77.6575727,83.4452635 C79.4750202,81.8556719 81.2593963,80.2247092 83.0107548,78.5523264 C84.7621132,76.8799436 86.3977914,75.2407019 87.9178383,73.6345521 C89.4378853,72.0284022 90.8174724,70.5050665 92.0566411,69.0644991 C93.2958098,67.6239317 94.3119129,66.373803 95.1049809,65.3140752 C95.6006484,64.6517454 96.0467424,63.8735195 96.4432764,62.9793743 C96.8398104,62.085229 97.2198164,61.3070031 97.5833059,60.6446733 C98.2111514,59.4524796 98.9711634,58.3679308 99.8633649,57.3909943 C100.755566,56.4140578 101.656015,55.5696 102.564739,54.8575954 C103.473463,54.1455909 104.299563,53.590898 105.043064,53.1935001 C105.786565,52.7961022 106.32353,52.5974062 106.653975,52.5974062 C107.149643,52.5974062 107.397473,52.8457762 107.397473,53.3425235 C107.397473,53.574339 107.248775,53.8392669 106.951374,54.1373153 C106.653974,54.4353638 106.29049,54.7582447 105.860911,55.1059679 C105.431333,55.453691 104.976978,55.826246 104.497833,56.2236439 C104.018687,56.6210417 103.597376,57.0515497 103.233887,57.5151806 C102.37473,58.5749083 101.672545,59.7836421 101.127311,61.1414182 C100.582076,62.4991943 100.094677,63.9397401 99.6650989,65.4630987 C99.2355204,66.9864573 98.8142094,68.592583 98.4011532,70.2815241 C97.9880969,71.9704651 97.5006979,73.6759389 96.9389414,75.3979964 C96.3771849,77.1200539 95.6997828,78.8503646 94.9067149,80.5889804 C94.1136469,82.3275962 93.0892828,84.0247909 91.8335918,85.6806155 L91.9327248,85.7799645 C93.5188608,84.9189357 95.228888,83.8840609 97.0628576,82.675309 C98.8968273,81.466557 100.722509,80.1336382 102.539956,78.6765126 C104.357403,77.219387 106.116997,75.6463773 107.818788,73.9574362 C109.52058,72.2684952 111.032343,70.5133475 112.354123,68.6919405 C113.675903,66.8705334 114.749833,65.0077587 115.575946,63.1035605 C116.049216,62.0126671 116.797362,59.9626095 117.368749,58.0554895 C117.79474,56.6336549 117.824651,55.6523872 117.691116,54.3856878 C117.602092,53.5412215 117.328089,52.3563468 116.869106,50.8310637 C115.554551,48.7892495 115.095167,47.7333969 115.490953,47.6635057 C116.084633,47.5586689 117.340419,47.8105665 118.084984,48.2495618 C118.829549,48.6885571 119.276568,49.122228 119.805443,49.9795521 C120.334318,50.8368763 120.78398,51.9764751 121.004722,53.9152948 C121.225464,55.8541144 120.392164,60.5287549 119.11995,62.7806763 C117.847737,65.0325977 116.195537,67.2596484 114.1633,69.461895 C112.131064,71.6641417 109.859288,73.8001233 107.347906,75.869904 C104.836525,77.9396847 102.341702,79.8190174 99.8633649,81.5079585 C97.3850275,83.1968995 95.0554253,84.6540033 92.8744884,85.8793135 C90.6935514,87.1046236 88.9256973,87.9656395 87.5708728,88.4623869 L87.1247743,88.1643399 C88.2813318,86.5085154 89.2478689,84.7616467 90.0244146,82.9236814 C90.8009603,81.0857161 91.4866234,79.2229414 92.0814243,77.3353014 C92.6762253,75.4476614 93.2131904,73.5600498 93.6923356,71.6724098 C94.1714808,69.7847698 94.7084459,67.9468321 95.3032469,66.1585415 L95.2041139,66.0591926 C94.1797344,67.4500852 92.9571063,68.9403049 91.5361928,70.5298965 C90.1152794,72.1194881 88.5952552,73.7338928 86.9760748,75.3731592 C85.3568944,77.0124255 83.6964332,78.6351092 81.9946415,80.241259 C80.2928498,81.8474088 78.6323887,83.3459076 77.0132082,84.7368002 C76.4514517,85.2335476 75.9557917,85.6888925 75.5262132,86.1028487 C75.0966347,86.5168048 74.6835847,86.8810807 74.2870507,87.1956874 C73.8905167,87.5102941 73.5022497,87.750385 73.1222379,87.9159675 C72.7422262,88.0815499 72.3043932,88.1643399 71.8087257,88.1643399 C71.6435032,88.1643399 71.4865442,88.1063869 71.3378439,87.9904792 C71.1891437,87.8745715 71.1147947,87.7172705 71.1147947,87.5185716 C71.1147947,87.2205232 71.2469707,86.9887112 71.5113267,86.8231287 C71.7756827,86.6575463 72.0978617,86.4505713 72.4778734,86.2021976 C72.8578852,85.9538239 73.2709352,85.589548 73.7170359,85.1093589 C74.1631367,84.6291698 74.5679257,83.9254549 74.9314152,82.9981931 C75.9557947,80.3488738 76.7984167,77.6830363 77.4593067,75.0006005 C78.1201967,72.3181647 78.8636868,69.7351171 79.6897992,67.2513803 C80.5159117,64.7676434 81.5567978,62.4329658 82.8124888,60.2472774 C84.0681797,58.061589 85.8029899,56.1408613 88.0169713,54.4850368 L87.9178383,54.3856878 C86.9595478,54.7168527 85.7140837,54.7830837 84.4977498,55.4536893 C83.2814158,56.1242949 82.5258967,56.5396943 81.6277414,57.2327253 C80.7295861,57.9257563 80.2502999,58.3094194 79.3367424,59.1415312 C78.423185,59.973643 78.3549461,60.0882029 77.4593067,61.1414182 C76.5636673,62.1946335 76.4291281,62.358438 75.7517159,63.4016074 C75.0743037,64.4447769 72.2077077,64.047381 72.9016421,63.0042115 C73.5955766,61.9610421 74.1100465,61.5793239 75.3047257,60.5701616 C76.499405,59.5609992 77.0132082,59.2497751 78.1554325,58.4689929 C79.2976567,57.6882107 80.6067795,56.9504548 81.2263608,56.6302788 C81.845942,56.3101029 83.8120689,55.1142501 86.009528,54.4850368 C88.2069872,53.8558234 90.4126744,53.1272715 92.6266559,52.2993593 L92.8249219,52.6967552 Z" id="JW-Copy-9" stroke="#44A6DF" stroke-width="0.6"></path>
        </g>
    </g>
</svg>